{"glyphs":{"0":{"ha":844,"x_min":82,"x_max":763,"o":"m 763 407 q 719 190 763 285 q 598 40 675 94 q 422 -14 521 -14 q 247 40 324 -14 q 126 190 169 94 q 82 407 82 285 q 126 624 82 529 q 247 774 169 719 q 422 829 324 829 q 598 774 521 829 q 719 624 675 719 q 763 407 763 529 m 735 407 q 695 613 735 524 q 585 751 656 701 q 422 801 515 801 q 260 751 331 801 q 149 613 189 701 q 110 407 110 524 q 149 202 110 290 q 260 64 189 114 q 422 14 331 14 q 585 64 515 14 q 695 202 656 114 q 735 407 735 290 z "},"1":{"ha":521,"x_min":63,"x_max":496,"o":"m 496 28 l 496 0 l 94 0 l 94 28 l 292 28 l 292 747 q 254 710 281 731 q 194 672 228 690 q 125 640 160 653 q 63 628 90 628 l 63 661 q 140 681 100 661 q 213 725 179 700 q 269 771 247 750 q 292 793 290 792 l 319 793 l 319 28 l 496 28 z "},"2":{"ha":675,"x_min":65,"x_max":607,"o":"m 65 0 q 72 72 65 25 q 100 173 78 118 q 171 279 122 228 q 303 365 219 331 q 387 400 342 382 q 472 444 432 418 q 538 509 513 471 q 564 601 564 547 q 540 685 564 644 q 465 752 515 725 q 339 779 415 779 q 246 763 288 779 q 174 726 204 747 q 125 685 143 704 q 101 658 107 665 l 79 675 q 97 695 79 675 q 148 742 114 715 q 230 788 182 768 q 339 807 278 807 q 478 776 422 807 q 563 699 535 746 q 592 601 592 651 q 563 496 592 539 q 492 424 535 453 q 401 376 449 396 q 313 339 353 356 q 197 263 240 308 q 130 171 153 218 q 99 85 107 124 q 92 28 92 47 l 607 28 l 607 0 l 65 0 z "},"3":{"ha":724,"x_min":64,"x_max":647,"o":"m 428 328 q 544 283 494 319 q 620 192 593 247 q 647 67 647 136 q 610 -75 647 -14 q 506 -170 572 -136 q 353 -204 439 -204 q 172 -156 250 -204 q 64 -26 93 -107 l 90 -17 q 186 -133 114 -89 q 356 -176 258 -176 q 547 -109 475 -176 q 619 71 619 -42 q 547 249 619 183 q 349 315 475 315 l 318 315 l 318 343 l 350 343 q 538 396 472 343 q 603 542 603 449 q 570 663 603 611 q 481 743 538 714 q 353 772 425 772 q 199 729 265 772 q 104 615 132 686 l 79 625 q 138 717 99 678 q 233 778 178 757 q 353 800 289 800 q 494 767 432 800 q 594 678 557 735 q 631 549 631 621 q 606 443 631 490 q 535 366 581 396 q 428 328 490 336 z "},"4":{"ha":719,"x_min":26,"x_max":683,"o":"m 533 -176 l 533 100 l 26 100 l 26 124 l 542 793 l 561 793 l 561 128 l 683 128 l 683 100 l 561 100 l 561 -176 l 533 -176 m 65 128 l 533 128 l 533 742 l 65 128 z "},"5":{"ha":746,"x_min":54,"x_max":692,"o":"m 365 -207 q 178 -151 261 -207 q 54 -4 94 -94 l 85 -4 q 197 -131 122 -82 q 365 -179 272 -179 q 516 -142 449 -179 q 624 -38 583 -104 q 664 114 664 28 q 625 261 664 197 q 520 361 586 325 q 372 397 454 397 q 223 362 294 397 q 106 261 151 326 l 72 261 l 181 793 l 649 793 l 649 765 l 204 765 l 114 314 q 232 397 164 368 q 372 425 300 425 q 533 385 460 425 q 649 276 606 346 q 692 114 692 206 q 647 -54 692 18 q 527 -167 601 -126 q 365 -207 453 -207 z "},"6":{"ha":826,"x_min":78,"x_max":767,"o":"m 767 322 q 722 492 767 415 q 600 614 676 568 q 431 660 524 660 q 292 631 357 660 q 178 549 226 601 q 108 428 131 497 q 149 719 108 599 q 261 902 189 839 q 429 965 333 965 q 590 914 519 965 q 688 779 661 863 l 714 789 q 606 938 683 883 q 428 993 529 993 q 246 927 325 993 q 122 724 167 861 q 78 369 78 586 q 124 165 78 251 q 249 33 169 79 q 425 -14 328 -14 q 598 31 521 -14 q 721 153 675 76 q 767 322 767 229 m 428 14 q 272 56 343 14 q 157 169 200 99 q 114 322 114 239 q 156 477 114 407 q 270 590 199 547 q 426 632 342 632 q 582 590 511 632 q 696 476 653 547 q 739 321 739 406 q 697 167 739 238 q 584 56 654 97 q 428 14 514 14 z "},"7":{"ha":743,"x_min":69,"x_max":708,"o":"m 663 782 l 69 782 l 69 810 l 708 810 l 203 -176 l 171 -176 l 663 782 z "},"8":{"ha":807,"x_min":74,"x_max":733,"o":"m 733 261 q 687 118 733 179 q 564 24 640 57 q 399 -10 488 -10 q 226 29 300 -10 q 113 131 153 68 q 74 264 74 193 q 107 388 74 333 q 193 478 140 442 q 301 529 246 514 q 206 578 250 547 q 136 653 163 610 q 110 751 110 696 q 135 852 110 808 q 203 926 160 896 q 298 971 246 956 q 404 986 350 986 q 510 971 458 986 q 605 926 563 956 q 672 852 647 896 q 697 751 697 808 q 670 653 697 696 q 599 578 643 610 q 504 529 556 547 q 621 473 569 511 q 703 381 672 435 q 733 261 733 328 m 706 265 q 678 372 706 325 q 606 450 650 418 q 508 499 561 482 q 401 515 454 515 q 260 484 329 515 q 147 396 192 453 q 101 263 101 339 q 129 157 101 203 q 201 79 157 111 q 300 31 246 47 q 406 14 354 14 q 547 44 478 14 q 660 132 615 75 q 706 265 706 189 m 138 749 q 178 637 138 683 q 281 567 219 590 q 403 543 343 543 q 526 567 464 543 q 628 639 588 592 q 669 751 669 686 q 631 864 669 818 q 531 934 592 910 q 401 958 469 958 q 274 933 335 958 q 176 862 214 908 q 138 749 138 815 z "},"9":{"ha":804,"x_min":51,"x_max":740,"o":"m 51 457 q 97 288 51 364 q 218 165 142 211 q 388 119 294 119 q 526 149 461 119 q 640 231 592 178 q 710 351 689 283 q 669 60 710 181 q 557 -123 629 -60 q 389 -186 485 -186 q 228 -135 300 -186 q 131 0 157 -83 l 104 -10 q 212 -158 135 -103 q 390 -214 289 -214 q 572 -148 493 -214 q 696 56 651 -82 q 740 410 740 194 q 694 615 740 529 q 570 747 649 700 q 393 793 492 793 q 221 748 299 793 q 97 626 143 703 q 51 457 51 550 m 390 765 q 547 723 476 765 q 661 611 618 681 q 704 457 704 542 q 662 303 704 374 q 549 190 619 232 q 392 147 478 147 q 236 190 307 147 q 122 303 165 232 q 79 458 79 374 q 122 613 79 543 q 235 724 164 682 q 390 765 306 765 z "},"A":{"ha":936,"x_min":25,"x_max":910,"o":"m 456 986 l 481 986 l 910 0 l 879 0 l 725 353 l 210 353 l 56 0 l 25 0 l 456 986 m 713 381 l 468 946 l 221 381 l 713 381 z "},"Á":{"ha":936,"x_min":25,"x_max":910,"o":"m 456 986 l 481 986 l 910 0 l 879 0 l 725 353 l 210 353 l 56 0 l 25 0 l 456 986 m 713 381 l 468 946 l 221 381 l 713 381 m 476 1157 l 454 1174 l 543 1275 l 590 1275 l 476 1157 z "},"Ă":{"ha":936,"x_min":25,"x_max":910,"o":"m 456 986 l 481 986 l 910 0 l 879 0 l 725 353 l 210 353 l 56 0 l 25 0 l 456 986 m 713 381 l 468 946 l 221 381 l 713 381 m 468 1192 q 519 1216 496 1192 q 546 1275 542 1240 l 571 1275 q 540 1200 571 1232 q 468 1168 508 1168 q 397 1200 428 1168 q 365 1275 365 1232 l 392 1275 q 415 1218 392 1244 q 468 1192 439 1192 z "},"Ắ":{"ha":936,"x_min":25,"x_max":910,"o":"m 456 986 l 481 986 l 910 0 l 879 0 l 725 353 l 210 353 l 56 0 l 25 0 l 456 986 m 713 381 l 468 946 l 221 381 l 713 381 z "},"Ặ":{"ha":936,"x_min":25,"x_max":910,"o":"m 456 986 l 481 986 l 910 0 l 879 0 l 725 353 l 210 353 l 56 0 l 25 0 l 456 986 m 713 381 l 468 946 l 221 381 l 713 381 m 468 -176 l 468 -69 l 496 -69 l 496 -176 l 468 -176 m 468 1192 q 519 1216 496 1192 q 546 1275 542 1240 l 571 1275 q 540 1200 571 1232 q 468 1168 508 1168 q 397 1200 428 1168 q 365 1275 365 1232 l 392 1275 q 415 1218 392 1244 q 468 1192 439 1192 z "},"Ằ":{"ha":936,"x_min":25,"x_max":910,"o":"m 456 986 l 481 986 l 910 0 l 879 0 l 725 353 l 210 353 l 56 0 l 25 0 l 456 986 m 713 381 l 468 946 l 221 381 l 713 381 z "},"Ẳ":{"ha":936,"x_min":25,"x_max":910,"o":"m 456 986 l 481 986 l 910 0 l 879 0 l 725 353 l 210 353 l 56 0 l 25 0 l 456 986 m 713 381 l 468 946 l 221 381 l 713 381 z "},"Ẵ":{"ha":936,"x_min":25,"x_max":910,"o":"m 456 986 l 481 986 l 910 0 l 879 0 l 725 353 l 210 353 l 56 0 l 25 0 l 456 986 m 713 381 l 468 946 l 221 381 l 713 381 z "},"Â":{"ha":936,"x_min":25,"x_max":910,"o":"m 456 986 l 481 986 l 910 0 l 879 0 l 725 353 l 210 353 l 56 0 l 25 0 l 456 986 m 713 381 l 468 946 l 221 381 l 713 381 m 328 1172 l 457 1275 l 479 1275 l 608 1172 l 586 1156 l 468 1243 l 350 1156 l 328 1172 z "},"Ấ":{"ha":936,"x_min":25,"x_max":910,"o":"m 456 986 l 481 986 l 910 0 l 879 0 l 725 353 l 210 353 l 56 0 l 25 0 l 456 986 m 713 381 l 468 946 l 221 381 l 713 381 z "},"Ậ":{"ha":936,"x_min":25,"x_max":910,"o":"m 456 986 l 481 986 l 910 0 l 879 0 l 725 353 l 210 353 l 56 0 l 25 0 l 456 986 m 713 381 l 468 946 l 221 381 l 713 381 m 468 -176 l 468 -69 l 496 -69 l 496 -176 l 468 -176 m 328 1172 l 457 1275 l 479 1275 l 608 1172 l 586 1156 l 468 1243 l 350 1156 l 328 1172 z "},"Ầ":{"ha":936,"x_min":25,"x_max":910,"o":"m 456 986 l 481 986 l 910 0 l 879 0 l 725 353 l 210 353 l 56 0 l 25 0 l 456 986 m 713 381 l 468 946 l 221 381 l 713 381 z "},"Ẩ":{"ha":936,"x_min":25,"x_max":910,"o":"m 456 986 l 481 986 l 910 0 l 879 0 l 725 353 l 210 353 l 56 0 l 25 0 l 456 986 m 713 381 l 468 946 l 221 381 l 713 381 z "},"Ẫ":{"ha":936,"x_min":25,"x_max":910,"o":"m 456 986 l 481 986 l 910 0 l 879 0 l 725 353 l 210 353 l 56 0 l 25 0 l 456 986 m 713 381 l 468 946 l 221 381 l 713 381 z "},"Ȁ":{"ha":936,"x_min":25,"x_max":910,"o":"m 456 986 l 481 986 l 910 0 l 879 0 l 725 353 l 210 353 l 56 0 l 25 0 l 456 986 m 713 381 l 468 946 l 221 381 l 713 381 m 426 1275 l 474 1275 l 563 1174 l 540 1157 l 426 1275 m 288 1275 l 335 1275 l 424 1174 l 401 1157 l 288 1275 z "},"Ä":{"ha":936,"x_min":25,"x_max":910,"o":"m 456 986 l 481 986 l 910 0 l 879 0 l 725 353 l 210 353 l 56 0 l 25 0 l 456 986 m 713 381 l 468 946 l 221 381 l 713 381 m 374 1168 l 374 1275 l 401 1275 l 401 1168 l 374 1168 m 535 1168 l 535 1275 l 563 1275 l 563 1168 l 535 1168 z "},"Ạ":{"ha":936,"x_min":25,"x_max":910,"o":"m 456 986 l 481 986 l 910 0 l 879 0 l 725 353 l 210 353 l 56 0 l 25 0 l 456 986 m 713 381 l 468 946 l 221 381 l 713 381 m 468 -176 l 468 -69 l 496 -69 l 496 -176 l 468 -176 z "},"À":{"ha":936,"x_min":25,"x_max":910,"o":"m 456 986 l 481 986 l 910 0 l 879 0 l 725 353 l 210 353 l 56 0 l 25 0 l 456 986 m 713 381 l 468 946 l 221 381 l 713 381 m 374 1275 l 419 1275 l 510 1174 l 488 1157 l 374 1275 z "},"Ả":{"ha":936,"x_min":25,"x_max":910,"o":"m 456 986 l 481 986 l 910 0 l 879 0 l 725 353 l 210 353 l 56 0 l 25 0 l 456 986 m 713 381 l 468 946 l 221 381 l 713 381 m 401 1208 l 385 1226 q 426 1257 407 1246 q 471 1268 444 1268 q 527 1247 504 1268 q 550 1189 550 1226 q 534 1143 550 1163 q 494 1096 518 1124 l 478 1111 q 513 1154 500 1136 q 525 1189 525 1172 q 512 1227 525 1211 q 468 1243 499 1243 q 436 1235 450 1243 q 401 1208 422 1226 z "},"Ȃ":{"ha":936,"x_min":25,"x_max":910,"o":"m 456 986 l 481 986 l 910 0 l 879 0 l 725 353 l 210 353 l 56 0 l 25 0 l 456 986 m 713 381 l 468 946 l 221 381 l 713 381 m 468 1251 q 415 1226 439 1251 q 392 1168 392 1200 l 365 1168 q 397 1243 365 1211 q 468 1275 428 1275 q 540 1243 508 1275 q 571 1168 571 1211 l 546 1168 q 519 1227 542 1203 q 468 1251 496 1251 z "},"Ā":{"ha":936,"x_min":25,"x_max":910,"o":"m 456 986 l 481 986 l 910 0 l 879 0 l 725 353 l 210 353 l 56 0 l 25 0 l 456 986 m 713 381 l 468 946 l 221 381 l 713 381 m 274 1214 l 274 1242 l 663 1242 l 663 1214 l 274 1214 z "},"Ą":{"ha":936,"x_min":25,"x_max":910,"o":"m 456 986 l 481 986 l 910 0 l 879 0 l 725 353 l 210 353 l 56 0 l 25 0 l 456 986 m 713 381 l 468 946 l 221 381 l 713 381 m 775 -139 q 804 -64 775 -101 q 889 17 833 -26 l 896 17 l 910 0 q 829 -74 854 -43 q 804 -135 804 -106 q 826 -176 804 -161 q 904 -204 849 -192 l 888 -228 q 822 -208 847 -219 q 786 -178 797 -196 q 775 -139 775 -161 z "},"Å":{"ha":936,"x_min":25,"x_max":910,"o":"m 456 986 l 481 986 l 910 0 l 879 0 l 725 353 l 210 353 l 56 0 l 25 0 l 456 986 m 713 381 l 468 946 l 221 381 l 713 381 m 364 1207 q 394 1281 364 1251 q 468 1311 425 1311 q 542 1281 513 1311 q 572 1207 572 1251 q 542 1133 572 1164 q 468 1103 513 1103 q 394 1133 425 1103 q 364 1207 364 1164 m 468 1282 q 415 1262 438 1282 q 393 1207 393 1242 q 415 1154 393 1176 q 468 1132 438 1132 q 519 1153 496 1132 q 543 1207 543 1174 q 521 1262 543 1242 q 468 1282 499 1282 z "},"Ǻ":{"ha":936,"x_min":25,"x_max":910,"o":"m 490 1174 l 468 1190 l 557 1292 l 604 1292 l 490 1174 m 456 986 l 481 986 l 910 0 l 879 0 l 725 353 l 210 353 l 56 0 l 25 0 l 456 986 m 713 381 l 468 946 l 221 381 l 713 381 m 364 1089 q 394 1163 364 1133 q 468 1193 425 1193 q 542 1163 513 1193 q 572 1089 572 1133 q 542 1015 572 1046 q 468 985 513 985 q 394 1015 425 985 q 364 1089 364 1046 m 468 1164 q 415 1144 438 1164 q 393 1089 393 1124 q 415 1036 393 1058 q 468 1014 438 1014 q 519 1035 496 1014 q 543 1089 543 1056 q 521 1144 543 1124 q 468 1164 499 1164 z "},"Ã":{"ha":936,"x_min":25,"x_max":910,"o":"m 456 986 l 481 986 l 910 0 l 879 0 l 725 353 l 210 353 l 56 0 l 25 0 l 456 986 m 713 381 l 468 946 l 221 381 l 713 381 m 547 1182 q 478 1195 507 1182 q 426 1222 450 1208 q 374 1235 403 1235 q 329 1220 344 1235 q 308 1189 314 1206 q 303 1168 303 1172 l 275 1168 q 278 1185 275 1171 q 292 1217 282 1200 q 322 1248 301 1235 q 376 1261 342 1261 q 438 1248 413 1261 q 490 1222 464 1235 q 550 1208 515 1208 q 606 1224 589 1208 q 627 1256 622 1239 q 632 1275 632 1272 l 660 1275 q 656 1256 660 1271 q 642 1224 653 1240 q 608 1194 631 1207 q 547 1182 585 1182 z "},"Æ":{"ha":1336,"x_min":-40,"x_max":1264,"o":"m 610 986 l 1251 986 l 1251 958 l 644 958 l 644 518 l 1176 518 l 1176 490 l 644 490 l 644 28 l 1264 28 l 1264 0 l 617 0 l 617 353 l 226 353 l -6 0 l -40 0 l 610 986 m 617 381 l 617 942 l 243 381 l 617 381 z "},"Ǽ":{"ha":1336,"x_min":-40,"x_max":1264,"o":"m 610 986 l 1251 986 l 1251 958 l 644 958 l 644 518 l 1176 518 l 1176 490 l 644 490 l 644 28 l 1264 28 l 1264 0 l 617 0 l 617 353 l 226 353 l -6 0 l -40 0 l 610 986 m 617 381 l 617 942 l 243 381 l 617 381 m 764 1157 l 742 1174 l 831 1275 l 878 1275 l 764 1157 z "},"B":{"ha":910,"x_min":138,"x_max":840,"o":"m 840 256 q 807 129 840 188 q 718 35 774 71 q 594 0 663 0 l 138 0 l 138 986 l 574 986 q 694 949 643 986 q 772 855 744 913 q 799 735 799 797 q 760 597 799 660 q 657 506 722 535 q 791 410 742 481 q 840 256 840 340 m 813 256 q 785 367 813 315 q 711 451 758 418 q 604 483 664 483 l 165 483 l 165 28 l 594 28 q 705 61 656 28 q 783 147 754 94 q 813 256 813 199 m 165 958 l 165 511 l 565 511 q 672 544 626 511 q 744 629 718 578 q 771 735 771 681 q 746 845 771 794 q 676 927 721 896 q 574 958 632 958 l 165 958 z "},"C":{"ha":968,"x_min":67,"x_max":915,"o":"m 67 500 q 98 676 67 589 q 189 834 129 763 q 335 949 249 906 q 532 992 421 992 q 756 931 664 992 q 892 776 847 871 l 865 768 q 772 883 828 840 q 653 945 717 926 q 526 964 590 964 q 343 924 424 964 q 207 815 263 883 q 123 665 151 747 q 94 496 94 582 q 128 316 94 401 q 221 164 161 231 q 360 58 281 97 q 531 19 439 19 q 664 42 596 19 q 792 110 732 64 q 889 228 851 156 l 915 221 q 818 96 882 147 q 677 18 754 44 q 525 -8 600 -8 q 341 35 425 -8 q 195 152 257 79 q 100 316 133 225 q 67 500 67 407 z "},"Ć":{"ha":968,"x_min":67,"x_max":915,"o":"m 67 500 q 98 676 67 589 q 189 834 129 763 q 335 949 249 906 q 532 992 421 992 q 756 931 664 992 q 892 776 847 871 l 865 768 q 772 883 828 840 q 653 945 717 926 q 526 964 590 964 q 343 924 424 964 q 207 815 263 883 q 123 665 151 747 q 94 496 94 582 q 128 316 94 401 q 221 164 161 231 q 360 58 281 97 q 531 19 439 19 q 664 42 596 19 q 792 110 732 64 q 889 228 851 156 l 915 221 q 818 96 882 147 q 677 18 754 44 q 525 -8 600 -8 q 341 35 425 -8 q 195 152 257 79 q 100 316 133 225 q 67 500 67 407 m 538 1157 l 515 1174 l 604 1275 l 651 1275 l 538 1157 z "},"Č":{"ha":968,"x_min":67,"x_max":915,"o":"m 67 500 q 98 676 67 589 q 189 834 129 763 q 335 949 249 906 q 532 992 421 992 q 756 931 664 992 q 892 776 847 871 l 865 768 q 772 883 828 840 q 653 945 717 926 q 526 964 590 964 q 343 924 424 964 q 207 815 263 883 q 123 665 151 747 q 94 496 94 582 q 128 316 94 401 q 221 164 161 231 q 360 58 281 97 q 531 19 439 19 q 664 42 596 19 q 792 110 732 64 q 889 228 851 156 l 915 221 q 818 96 882 147 q 677 18 754 44 q 525 -8 600 -8 q 341 35 425 -8 q 195 152 257 79 q 100 316 133 225 q 67 500 67 407 m 411 1275 l 529 1188 l 647 1275 l 669 1258 l 540 1156 l 518 1156 l 389 1258 l 411 1275 z "},"Ç":{"ha":968,"x_min":67,"x_max":915,"o":"m 67 500 q 98 676 67 589 q 189 834 129 763 q 335 949 249 906 q 532 992 421 992 q 756 931 664 992 q 892 776 847 871 l 865 768 q 772 883 828 840 q 653 945 717 926 q 526 964 590 964 q 343 924 424 964 q 207 815 263 883 q 123 665 151 747 q 94 496 94 582 q 128 316 94 401 q 221 164 161 231 q 360 58 281 97 q 531 19 439 19 q 664 42 596 19 q 792 110 732 64 q 889 228 851 156 l 915 221 q 818 96 882 147 q 677 18 754 44 q 525 -8 600 -8 q 341 35 425 -8 q 195 152 257 79 q 100 316 133 225 q 67 500 67 407 m 514 -228 q 438 -219 479 -228 q 361 -193 397 -211 l 376 -169 q 440 -193 410 -183 q 510 -203 471 -203 q 592 -183 564 -203 q 621 -125 621 -164 q 594 -56 621 -85 q 514 0 567 -28 l 542 11 q 620 -48 592 -17 q 649 -125 649 -79 q 610 -203 649 -179 q 514 -228 572 -228 z "},"Ḉ":{"ha":968,"x_min":67,"x_max":915,"o":"m 67 500 q 98 676 67 589 q 189 834 129 763 q 335 949 249 906 q 532 992 421 992 q 756 931 664 992 q 892 776 847 871 l 865 768 q 772 883 828 840 q 653 945 717 926 q 526 964 590 964 q 343 924 424 964 q 207 815 263 883 q 123 665 151 747 q 94 496 94 582 q 128 316 94 401 q 221 164 161 231 q 360 58 281 97 q 531 19 439 19 q 664 42 596 19 q 792 110 732 64 q 889 228 851 156 l 915 221 q 818 96 882 147 q 677 18 754 44 q 525 -8 600 -8 q 341 35 425 -8 q 195 152 257 79 q 100 316 133 225 q 67 500 67 407 m 514 -228 q 438 -219 479 -228 q 361 -193 397 -211 l 376 -169 q 440 -193 410 -183 q 510 -203 471 -203 q 592 -183 564 -203 q 621 -125 621 -164 q 594 -56 621 -85 q 514 0 567 -28 l 542 11 q 620 -48 592 -17 q 649 -125 649 -79 q 610 -203 649 -179 q 514 -228 572 -228 m 538 1157 l 515 1174 l 604 1275 l 651 1275 l 538 1157 z "},"Ĉ":{"ha":968,"x_min":67,"x_max":915,"o":"m 67 500 q 98 676 67 589 q 189 834 129 763 q 335 949 249 906 q 532 992 421 992 q 756 931 664 992 q 892 776 847 871 l 865 768 q 772 883 828 840 q 653 945 717 926 q 526 964 590 964 q 343 924 424 964 q 207 815 263 883 q 123 665 151 747 q 94 496 94 582 q 128 316 94 401 q 221 164 161 231 q 360 58 281 97 q 531 19 439 19 q 664 42 596 19 q 792 110 732 64 q 889 228 851 156 l 915 221 q 818 96 882 147 q 677 18 754 44 q 525 -8 600 -8 q 341 35 425 -8 q 195 152 257 79 q 100 316 133 225 q 67 500 67 407 m 389 1172 l 518 1275 l 540 1275 l 669 1172 l 647 1156 l 529 1243 l 411 1156 l 389 1172 z "},"Ċ":{"ha":968,"x_min":67,"x_max":915,"o":"m 67 500 q 98 676 67 589 q 189 834 129 763 q 335 949 249 906 q 532 992 421 992 q 756 931 664 992 q 892 776 847 871 l 865 768 q 772 883 828 840 q 653 945 717 926 q 526 964 590 964 q 343 924 424 964 q 207 815 263 883 q 123 665 151 747 q 94 496 94 582 q 128 316 94 401 q 221 164 161 231 q 360 58 281 97 q 531 19 439 19 q 664 42 596 19 q 792 110 732 64 q 889 228 851 156 l 915 221 q 818 96 882 147 q 677 18 754 44 q 525 -8 600 -8 q 341 35 425 -8 q 195 152 257 79 q 100 316 133 225 q 67 500 67 407 m 515 1168 l 515 1275 l 543 1275 l 543 1168 l 515 1168 z "},"D":{"ha":988,"x_min":138,"x_max":917,"o":"m 138 0 l 138 986 l 454 986 q 712 920 610 986 q 865 742 814 854 q 917 494 917 631 q 860 233 917 344 q 700 61 804 122 q 454 0 596 0 l 138 0 m 889 494 q 838 734 889 629 q 691 899 788 839 q 454 958 594 958 l 165 958 l 165 28 l 454 28 q 694 89 597 28 q 840 256 790 150 q 889 494 889 363 z "},"Ð":{"ha":997,"x_min":49,"x_max":926,"o":"m 49 482 l 49 510 l 442 510 l 442 482 l 49 482 m 147 0 l 147 986 l 464 986 q 722 920 619 986 q 875 742 824 854 q 926 494 926 631 q 870 233 926 344 q 710 61 814 122 q 464 0 606 0 l 147 0 m 899 494 q 848 734 899 629 q 701 899 797 839 q 464 958 604 958 l 175 958 l 175 28 l 464 28 q 703 89 607 28 q 849 256 800 150 q 899 494 899 363 z "},"Ď":{"ha":988,"x_min":138,"x_max":917,"o":"m 138 0 l 138 986 l 454 986 q 712 920 610 986 q 865 742 814 854 q 917 494 917 631 q 860 233 917 344 q 700 61 804 122 q 454 0 596 0 l 138 0 m 889 494 q 838 734 889 629 q 691 899 788 839 q 454 958 594 958 l 165 958 l 165 28 l 454 28 q 694 89 597 28 q 840 256 790 150 q 889 494 889 363 m 372 1275 l 490 1188 l 608 1275 l 631 1258 l 501 1156 l 479 1156 l 350 1258 l 372 1275 z "},"Đ":{"ha":997,"x_min":49,"x_max":926,"o":"m 49 482 l 49 510 l 442 510 l 442 482 l 49 482 m 147 0 l 147 986 l 464 986 q 722 920 619 986 q 875 742 824 854 q 926 494 926 631 q 870 233 926 344 q 710 61 814 122 q 464 0 606 0 l 147 0 m 899 494 q 848 734 899 629 q 701 899 797 839 q 464 958 604 958 l 175 958 l 175 28 l 464 28 q 703 89 607 28 q 849 256 800 150 q 899 494 899 363 z "},"Ḍ":{"ha":988,"x_min":138,"x_max":917,"o":"m 138 0 l 138 986 l 454 986 q 712 920 610 986 q 865 742 814 854 q 917 494 917 631 q 860 233 917 344 q 700 61 804 122 q 454 0 596 0 l 138 0 m 889 494 q 838 734 889 629 q 691 899 788 839 q 454 958 594 958 l 165 958 l 165 28 l 454 28 q 694 89 597 28 q 840 256 790 150 q 889 494 889 363 m 482 -176 l 482 -69 l 510 -69 l 510 -176 l 482 -176 z "},"Ḏ":{"ha":988,"x_min":138,"x_max":917,"o":"m 138 0 l 138 986 l 454 986 q 712 920 610 986 q 865 742 814 854 q 917 494 917 631 q 860 233 917 344 q 700 61 804 122 q 454 0 596 0 l 138 0 m 889 494 q 838 734 889 629 q 691 899 788 839 q 454 958 594 958 l 165 958 l 165 28 l 454 28 q 694 89 597 28 q 840 256 790 150 q 889 494 889 363 m 301 -132 l 301 -104 l 690 -104 l 690 -132 l 301 -132 z "},"E":{"ha":857,"x_min":138,"x_max":785,"o":"m 785 28 l 785 0 l 138 0 l 138 986 l 772 986 l 772 958 l 165 958 l 165 518 l 697 518 l 697 490 l 165 490 l 165 28 l 785 28 z "},"É":{"ha":857,"x_min":138,"x_max":785,"o":"m 785 28 l 785 0 l 138 0 l 138 986 l 772 986 l 772 958 l 165 958 l 165 518 l 697 518 l 697 490 l 165 490 l 165 28 l 785 28 m 486 1157 l 464 1174 l 553 1275 l 600 1275 l 486 1157 z "},"Ĕ":{"ha":857,"x_min":138,"x_max":785,"o":"m 785 28 l 785 0 l 138 0 l 138 986 l 772 986 l 772 958 l 165 958 l 165 518 l 697 518 l 697 490 l 165 490 l 165 28 l 785 28 m 478 1192 q 528 1216 506 1192 q 556 1275 551 1240 l 581 1275 q 549 1200 581 1232 q 478 1168 518 1168 q 406 1200 438 1168 q 375 1275 375 1232 l 401 1275 q 425 1218 401 1244 q 478 1192 449 1192 z "},"Ě":{"ha":857,"x_min":138,"x_max":785,"o":"m 785 28 l 785 0 l 138 0 l 138 986 l 772 986 l 772 958 l 165 958 l 165 518 l 697 518 l 697 490 l 165 490 l 165 28 l 785 28 m 360 1275 l 478 1188 l 596 1275 l 618 1258 l 489 1156 l 467 1156 l 338 1258 l 360 1275 z "},"Ḝ":{"ha":857,"x_min":138,"x_max":785,"o":"m 785 28 l 785 0 l 138 0 l 138 986 l 772 986 l 772 958 l 165 958 l 165 518 l 697 518 l 697 490 l 165 490 l 165 28 l 785 28 m 464 -228 q 388 -219 429 -228 q 311 -193 347 -211 l 326 -169 q 390 -193 360 -183 q 460 -203 421 -203 q 542 -183 514 -203 q 571 -125 571 -164 q 544 -56 571 -85 q 464 0 517 -28 l 492 11 q 570 -48 542 -17 q 599 -125 599 -79 q 560 -203 599 -179 q 464 -228 522 -228 m 478 1192 q 528 1216 506 1192 q 556 1275 551 1240 l 581 1275 q 549 1200 581 1232 q 478 1168 518 1168 q 406 1200 438 1168 q 375 1275 375 1232 l 401 1275 q 425 1218 401 1244 q 478 1192 449 1192 z "},"Ê":{"ha":857,"x_min":138,"x_max":785,"o":"m 785 28 l 785 0 l 138 0 l 138 986 l 772 986 l 772 958 l 165 958 l 165 518 l 697 518 l 697 490 l 165 490 l 165 28 l 785 28 m 338 1172 l 467 1275 l 489 1275 l 618 1172 l 596 1156 l 478 1243 l 360 1156 l 338 1172 z "},"Ế":{"ha":857,"x_min":138,"x_max":785,"o":"m 785 28 l 785 0 l 138 0 l 138 986 l 772 986 l 772 958 l 165 958 l 165 518 l 697 518 l 697 490 l 165 490 l 165 28 l 785 28 z "},"Ệ":{"ha":857,"x_min":138,"x_max":785,"o":"m 785 28 l 785 0 l 138 0 l 138 986 l 772 986 l 772 958 l 165 958 l 165 518 l 697 518 l 697 490 l 165 490 l 165 28 l 785 28 m 464 -176 l 464 -69 l 492 -69 l 492 -176 l 464 -176 m 338 1172 l 467 1275 l 489 1275 l 618 1172 l 596 1156 l 478 1243 l 360 1156 l 338 1172 z "},"Ề":{"ha":857,"x_min":138,"x_max":785,"o":"m 785 28 l 785 0 l 138 0 l 138 986 l 772 986 l 772 958 l 165 958 l 165 518 l 697 518 l 697 490 l 165 490 l 165 28 l 785 28 z "},"Ể":{"ha":857,"x_min":138,"x_max":785,"o":"m 785 28 l 785 0 l 138 0 l 138 986 l 772 986 l 772 958 l 165 958 l 165 518 l 697 518 l 697 490 l 165 490 l 165 28 l 785 28 z "},"Ễ":{"ha":857,"x_min":138,"x_max":785,"o":"m 785 28 l 785 0 l 138 0 l 138 986 l 772 986 l 772 958 l 165 958 l 165 518 l 697 518 l 697 490 l 165 490 l 165 28 l 785 28 z "},"Ȅ":{"ha":857,"x_min":138,"x_max":785,"o":"m 785 28 l 785 0 l 138 0 l 138 986 l 772 986 l 772 958 l 165 958 l 165 518 l 697 518 l 697 490 l 165 490 l 165 28 l 785 28 m 436 1275 l 483 1275 l 572 1174 l 550 1157 l 436 1275 m 297 1275 l 344 1275 l 433 1174 l 411 1157 l 297 1275 z "},"Ë":{"ha":857,"x_min":138,"x_max":785,"o":"m 785 28 l 785 0 l 138 0 l 138 986 l 772 986 l 772 958 l 165 958 l 165 518 l 697 518 l 697 490 l 165 490 l 165 28 l 785 28 m 383 1168 l 383 1275 l 411 1275 l 411 1168 l 383 1168 m 544 1168 l 544 1275 l 572 1275 l 572 1168 l 544 1168 z "},"Ė":{"ha":857,"x_min":138,"x_max":785,"o":"m 785 28 l 785 0 l 138 0 l 138 986 l 772 986 l 772 958 l 165 958 l 165 518 l 697 518 l 697 490 l 165 490 l 165 28 l 785 28 m 464 1168 l 464 1275 l 492 1275 l 492 1168 l 464 1168 z "},"Ẹ":{"ha":857,"x_min":138,"x_max":785,"o":"m 785 28 l 785 0 l 138 0 l 138 986 l 772 986 l 772 958 l 165 958 l 165 518 l 697 518 l 697 490 l 165 490 l 165 28 l 785 28 m 464 -176 l 464 -69 l 492 -69 l 492 -176 l 464 -176 z "},"È":{"ha":857,"x_min":138,"x_max":785,"o":"m 785 28 l 785 0 l 138 0 l 138 986 l 772 986 l 772 958 l 165 958 l 165 518 l 697 518 l 697 490 l 165 490 l 165 28 l 785 28 m 383 1275 l 429 1275 l 519 1174 l 497 1157 l 383 1275 z "},"Ẻ":{"ha":857,"x_min":138,"x_max":785,"o":"m 785 28 l 785 0 l 138 0 l 138 986 l 772 986 l 772 958 l 165 958 l 165 518 l 697 518 l 697 490 l 165 490 l 165 28 l 785 28 m 411 1208 l 394 1226 q 435 1257 417 1246 q 481 1268 454 1268 q 537 1247 514 1268 q 560 1189 560 1226 q 544 1143 560 1163 q 504 1096 528 1124 l 488 1111 q 522 1154 510 1136 q 535 1189 535 1172 q 522 1227 535 1211 q 478 1243 508 1243 q 446 1235 460 1243 q 411 1208 432 1226 z "},"Ȇ":{"ha":857,"x_min":138,"x_max":785,"o":"m 785 28 l 785 0 l 138 0 l 138 986 l 772 986 l 772 958 l 165 958 l 165 518 l 697 518 l 697 490 l 165 490 l 165 28 l 785 28 m 478 1251 q 425 1226 449 1251 q 401 1168 401 1200 l 375 1168 q 406 1243 375 1211 q 478 1275 438 1275 q 549 1243 518 1275 q 581 1168 581 1211 l 556 1168 q 528 1227 551 1203 q 478 1251 506 1251 z "},"Ē":{"ha":857,"x_min":138,"x_max":785,"o":"m 785 28 l 785 0 l 138 0 l 138 986 l 772 986 l 772 958 l 165 958 l 165 518 l 697 518 l 697 490 l 165 490 l 165 28 l 785 28 m 283 1214 l 283 1242 l 672 1242 l 672 1214 l 283 1214 z "},"Ḗ":{"ha":857,"x_min":138,"x_max":785,"o":"m 785 28 l 785 0 l 138 0 l 138 986 l 772 986 l 772 958 l 165 958 l 165 518 l 697 518 l 697 490 l 165 490 l 165 28 l 785 28 m 283 1214 l 283 1242 l 672 1242 l 672 1214 l 283 1214 m 486 1417 l 464 1433 l 553 1535 l 600 1535 l 486 1417 z "},"Ḕ":{"ha":857,"x_min":138,"x_max":785,"o":"m 785 28 l 785 0 l 138 0 l 138 986 l 772 986 l 772 958 l 165 958 l 165 518 l 697 518 l 697 490 l 165 490 l 165 28 l 785 28 m 283 1214 l 283 1242 l 672 1242 l 672 1214 l 283 1214 m 383 1535 l 429 1535 l 519 1433 l 497 1417 l 383 1535 z "},"Ę":{"ha":857,"x_min":138,"x_max":785,"o":"m 785 28 l 785 0 l 138 0 l 138 986 l 772 986 l 772 958 l 165 958 l 165 518 l 697 518 l 697 490 l 165 490 l 165 28 l 785 28 m 650 -139 q 679 -64 650 -101 q 764 17 708 -26 l 771 17 l 785 0 q 704 -74 729 -43 q 679 -135 679 -106 q 701 -176 679 -161 q 779 -204 724 -192 l 763 -228 q 697 -208 722 -219 q 661 -178 672 -196 q 650 -139 650 -161 z "},"Ẽ":{"ha":857,"x_min":138,"x_max":785,"o":"m 785 28 l 785 0 l 138 0 l 138 986 l 772 986 l 772 958 l 165 958 l 165 518 l 697 518 l 697 490 l 165 490 l 165 28 l 785 28 m 557 1182 q 488 1195 517 1182 q 436 1222 460 1208 q 383 1235 413 1235 q 339 1220 354 1235 q 318 1189 324 1206 q 313 1168 313 1172 l 285 1168 q 288 1185 285 1171 q 301 1217 292 1200 q 331 1248 311 1235 q 386 1261 351 1261 q 448 1248 422 1261 q 499 1222 474 1235 q 560 1208 525 1208 q 615 1224 599 1208 q 637 1256 632 1239 q 642 1275 642 1272 l 669 1275 q 666 1256 669 1271 q 651 1224 663 1240 q 617 1194 640 1207 q 557 1182 594 1182 z "},"F":{"ha":836,"x_min":138,"x_max":772,"o":"m 138 0 l 138 986 l 772 986 l 772 958 l 165 958 l 165 519 l 683 519 l 683 492 l 165 492 l 165 0 l 138 0 z "},"G":{"ha":1000,"x_min":67,"x_max":915,"o":"m 532 -7 q 344 36 429 -7 q 197 151 258 79 q 101 313 135 224 q 67 493 67 401 q 99 678 67 589 q 192 839 132 768 q 335 951 253 910 q 515 993 417 993 q 756 933 668 993 q 892 778 844 872 l 865 769 q 720 919 810 874 q 515 965 631 965 q 340 925 418 965 q 208 817 263 885 q 124 665 153 749 q 94 493 94 581 q 128 315 94 400 q 222 164 163 231 q 361 59 282 97 q 532 21 440 21 q 726 70 635 21 q 904 228 818 119 l 904 189 q 532 -7 746 -7 m 888 442 l 656 442 l 656 469 l 915 469 l 915 0 l 888 0 l 888 442 z "},"Ğ":{"ha":1000,"x_min":67,"x_max":915,"o":"m 532 -7 q 344 36 429 -7 q 197 151 258 79 q 101 313 135 224 q 67 493 67 401 q 99 678 67 589 q 192 839 132 768 q 335 951 253 910 q 515 993 417 993 q 756 933 668 993 q 892 778 844 872 l 865 769 q 720 919 810 874 q 515 965 631 965 q 340 925 418 965 q 208 817 263 885 q 124 665 153 749 q 94 493 94 581 q 128 315 94 400 q 222 164 163 231 q 361 59 282 97 q 532 21 440 21 q 726 70 635 21 q 904 228 818 119 l 904 189 q 532 -7 746 -7 m 888 442 l 656 442 l 656 469 l 915 469 l 915 0 l 888 0 l 888 442 m 514 1192 q 565 1216 542 1192 q 592 1275 588 1240 l 617 1275 q 585 1200 617 1232 q 514 1168 554 1168 q 442 1200 474 1168 q 411 1275 411 1232 l 438 1275 q 461 1218 438 1244 q 514 1192 485 1192 z "},"Ǧ":{"ha":1000,"x_min":67,"x_max":915,"o":"m 532 -7 q 344 36 429 -7 q 197 151 258 79 q 101 313 135 224 q 67 493 67 401 q 99 678 67 589 q 192 839 132 768 q 335 951 253 910 q 515 993 417 993 q 756 933 668 993 q 892 778 844 872 l 865 769 q 720 919 810 874 q 515 965 631 965 q 340 925 418 965 q 208 817 263 885 q 124 665 153 749 q 94 493 94 581 q 128 315 94 400 q 222 164 163 231 q 361 59 282 97 q 532 21 440 21 q 726 70 635 21 q 904 228 818 119 l 904 189 q 532 -7 746 -7 m 888 442 l 656 442 l 656 469 l 915 469 l 915 0 l 888 0 l 888 442 m 396 1275 l 514 1188 l 632 1275 l 654 1258 l 525 1156 l 503 1156 l 374 1258 l 396 1275 z "},"Ĝ":{"ha":1000,"x_min":67,"x_max":915,"o":"m 532 -7 q 344 36 429 -7 q 197 151 258 79 q 101 313 135 224 q 67 493 67 401 q 99 678 67 589 q 192 839 132 768 q 335 951 253 910 q 515 993 417 993 q 756 933 668 993 q 892 778 844 872 l 865 769 q 720 919 810 874 q 515 965 631 965 q 340 925 418 965 q 208 817 263 885 q 124 665 153 749 q 94 493 94 581 q 128 315 94 400 q 222 164 163 231 q 361 59 282 97 q 532 21 440 21 q 726 70 635 21 q 904 228 818 119 l 904 189 q 532 -7 746 -7 m 888 442 l 656 442 l 656 469 l 915 469 l 915 0 l 888 0 l 888 442 m 374 1172 l 503 1275 l 525 1275 l 654 1172 l 632 1156 l 514 1243 l 396 1156 l 374 1172 z "},"Ģ":{"ha":1000,"x_min":67,"x_max":915,"o":"m 532 -7 q 344 36 429 -7 q 197 151 258 79 q 101 313 135 224 q 67 493 67 401 q 99 678 67 589 q 192 839 132 768 q 335 951 253 910 q 515 993 417 993 q 756 933 668 993 q 892 778 844 872 l 865 769 q 720 919 810 874 q 515 965 631 965 q 340 925 418 965 q 208 817 263 885 q 124 665 153 749 q 94 493 94 581 q 128 315 94 400 q 222 164 163 231 q 361 59 282 97 q 532 21 440 21 q 726 70 635 21 q 904 228 818 119 l 904 189 q 532 -7 746 -7 m 888 442 l 656 442 l 656 469 l 915 469 l 915 0 l 888 0 l 888 442 m 507 -232 l 521 -151 l 508 -151 l 508 -69 l 544 -69 l 544 -151 l 526 -232 l 507 -232 z "},"Ġ":{"ha":1000,"x_min":67,"x_max":915,"o":"m 532 -7 q 344 36 429 -7 q 197 151 258 79 q 101 313 135 224 q 67 493 67 401 q 99 678 67 589 q 192 839 132 768 q 335 951 253 910 q 515 993 417 993 q 756 933 668 993 q 892 778 844 872 l 865 769 q 720 919 810 874 q 515 965 631 965 q 340 925 418 965 q 208 817 263 885 q 124 665 153 749 q 94 493 94 581 q 128 315 94 400 q 222 164 163 231 q 361 59 282 97 q 532 21 440 21 q 726 70 635 21 q 904 228 818 119 l 904 189 q 532 -7 746 -7 m 888 442 l 656 442 l 656 469 l 915 469 l 915 0 l 888 0 l 888 442 m 500 1168 l 500 1275 l 528 1275 l 528 1168 l 500 1168 z "},"Ḡ":{"ha":1000,"x_min":67,"x_max":915,"o":"m 532 -7 q 344 36 429 -7 q 197 151 258 79 q 101 313 135 224 q 67 493 67 401 q 99 678 67 589 q 192 839 132 768 q 335 951 253 910 q 515 993 417 993 q 756 933 668 993 q 892 778 844 872 l 865 769 q 720 919 810 874 q 515 965 631 965 q 340 925 418 965 q 208 817 263 885 q 124 665 153 749 q 94 493 94 581 q 128 315 94 400 q 222 164 163 231 q 361 59 282 97 q 532 21 440 21 q 726 70 635 21 q 904 228 818 119 l 904 189 q 532 -7 746 -7 m 888 442 l 656 442 l 656 469 l 915 469 l 915 0 l 888 0 l 888 442 m 319 1214 l 319 1242 l 708 1242 l 708 1214 l 319 1214 z "},"H":{"ha":1015,"x_min":138,"x_max":878,"o":"m 878 986 l 878 0 l 850 0 l 850 490 l 165 490 l 165 0 l 138 0 l 138 986 l 165 986 l 165 518 l 850 518 l 850 986 l 878 986 z "},"Ħ":{"ha":1029,"x_min":75,"x_max":954,"o":"m 75 769 l 75 797 l 954 797 l 954 769 l 75 769 m 885 986 l 885 0 l 857 0 l 857 490 l 172 490 l 172 0 l 144 0 l 144 986 l 172 986 l 172 518 l 857 518 l 857 986 l 885 986 z "},"Ḫ":{"ha":1015,"x_min":138,"x_max":878,"o":"m 878 986 l 878 0 l 850 0 l 850 490 l 165 490 l 165 0 l 138 0 l 138 986 l 165 986 l 165 518 l 850 518 l 850 986 l 878 986 m 508 -142 q 559 -117 536 -142 q 586 -58 582 -93 l 611 -58 q 580 -133 611 -101 q 508 -165 549 -165 q 437 -133 468 -165 q 406 -58 406 -101 l 432 -58 q 456 -115 432 -89 q 508 -142 479 -142 z "},"Ĥ":{"ha":1015,"x_min":138,"x_max":878,"o":"m 878 986 l 878 0 l 850 0 l 850 490 l 165 490 l 165 0 l 138 0 l 138 986 l 165 986 l 165 518 l 850 518 l 850 986 l 878 986 m 369 1172 l 499 1275 l 521 1275 l 650 1172 l 628 1156 l 510 1243 l 392 1156 l 369 1172 z "},"Ḥ":{"ha":1015,"x_min":138,"x_max":878,"o":"m 878 986 l 878 0 l 850 0 l 850 490 l 165 490 l 165 0 l 138 0 l 138 986 l 165 986 l 165 518 l 850 518 l 850 986 l 878 986 m 494 -176 l 494 -69 l 522 -69 l 522 -176 l 494 -176 z "},"I":{"ha":303,"x_min":138,"x_max":165,"o":"m 138 0 l 138 986 l 165 986 l 165 0 l 138 0 z "},"Í":{"ha":303,"x_min":138,"x_max":274,"o":"m 138 0 l 138 986 l 165 986 l 165 0 l 138 0 m 160 1157 l 138 1174 l 226 1275 l 274 1275 l 160 1157 z "},"Ĭ":{"ha":303,"x_min":49,"x_max":254,"o":"m 138 0 l 138 986 l 165 986 l 165 0 l 138 0 m 151 1192 q 202 1216 179 1192 q 229 1275 225 1240 l 254 1275 q 223 1200 254 1232 q 151 1168 192 1168 q 80 1200 111 1168 q 49 1275 49 1232 l 75 1275 q 99 1218 75 1244 q 151 1192 122 1192 z "},"Î":{"ha":303,"x_min":11,"x_max":292,"o":"m 138 0 l 138 986 l 165 986 l 165 0 l 138 0 m 11 1172 l 140 1275 l 163 1275 l 292 1172 l 269 1156 l 151 1243 l 33 1156 l 11 1172 z "},"Ȉ":{"ha":303,"x_min":-29,"x_max":246,"o":"m 138 0 l 138 986 l 165 986 l 165 0 l 138 0 m 110 1275 l 157 1275 l 246 1174 l 224 1157 l 110 1275 m -29 1275 l 18 1275 l 107 1174 l 85 1157 l -29 1275 z "},"Ï":{"ha":303,"x_min":57,"x_max":246,"o":"m 138 0 l 138 986 l 165 986 l 165 0 l 138 0 m 57 1168 l 57 1275 l 85 1275 l 85 1168 l 57 1168 m 218 1168 l 218 1275 l 246 1275 l 246 1168 l 218 1168 z "},"Ḯ":{"ha":303,"x_min":57,"x_max":274,"o":"m 138 0 l 138 986 l 165 986 l 165 0 l 138 0 m 57 1168 l 57 1275 l 85 1275 l 85 1168 l 57 1168 m 218 1168 l 218 1275 l 246 1275 l 246 1168 l 218 1168 m 160 1436 l 138 1453 l 226 1554 l 274 1554 l 160 1436 z "},"İ":{"ha":303,"x_min":138,"x_max":165,"o":"m 138 0 l 138 986 l 165 986 l 165 0 l 138 0 m 138 1168 l 138 1275 l 165 1275 l 165 1168 l 138 1168 z "},"Ị":{"ha":303,"x_min":138,"x_max":167,"o":"m 138 0 l 138 986 l 165 986 l 165 0 l 138 0 m 139 -176 l 139 -69 l 167 -69 l 167 -176 l 139 -176 z "},"Ì":{"ha":303,"x_min":57,"x_max":193,"o":"m 138 0 l 138 986 l 165 986 l 165 0 l 138 0 m 57 1275 l 103 1275 l 193 1174 l 171 1157 l 57 1275 z "},"Ỉ":{"ha":303,"x_min":68,"x_max":233,"o":"m 138 0 l 138 986 l 165 986 l 165 0 l 138 0 m 85 1208 l 68 1226 q 109 1257 90 1246 q 154 1268 128 1268 q 210 1247 188 1268 q 233 1189 233 1226 q 217 1143 233 1163 q 178 1096 201 1124 l 161 1111 q 196 1154 183 1136 q 208 1189 208 1172 q 195 1227 208 1211 q 151 1243 182 1243 q 119 1235 133 1243 q 85 1208 106 1226 z "},"Ȋ":{"ha":303,"x_min":49,"x_max":254,"o":"m 138 0 l 138 986 l 165 986 l 165 0 l 138 0 m 151 1251 q 99 1226 122 1251 q 75 1168 75 1200 l 49 1168 q 80 1243 49 1211 q 151 1275 111 1275 q 223 1243 192 1275 q 254 1168 254 1211 l 229 1168 q 202 1227 225 1203 q 151 1251 179 1251 z "},"Ī":{"ha":303,"x_min":-43,"x_max":346,"o":"m 138 0 l 138 986 l 165 986 l 165 0 l 138 0 m -43 1214 l -43 1242 l 346 1242 l 346 1214 l -43 1214 z "},"Į":{"ha":303,"x_min":31,"x_max":165,"o":"m 138 0 l 138 986 l 165 986 l 165 0 l 138 0 m 31 -139 q 60 -64 31 -101 q 144 17 89 -26 l 151 17 l 165 0 q 85 -74 110 -43 q 60 -135 60 -106 q 82 -176 60 -161 q 160 -204 104 -192 l 143 -228 q 78 -208 103 -219 q 42 -178 53 -196 q 31 -139 31 -161 z "},"Ĩ":{"ha":303,"x_min":-42,"x_max":343,"o":"m 138 0 l 138 986 l 165 986 l 165 0 l 138 0 m 231 1182 q 162 1195 190 1182 q 110 1222 133 1208 q 57 1235 86 1235 q 13 1220 28 1235 q -8 1189 -3 1206 q -14 1168 -14 1172 l -42 1168 q -38 1185 -42 1171 q -25 1217 -35 1200 q 5 1248 -15 1235 q 60 1261 25 1261 q 122 1248 96 1261 q 173 1222 147 1235 q 233 1208 199 1208 q 289 1224 272 1208 q 310 1256 306 1239 q 315 1275 315 1272 l 343 1275 q 340 1256 343 1271 q 325 1224 336 1240 q 291 1194 314 1207 q 231 1182 268 1182 z "},"J":{"ha":657,"x_min":26,"x_max":532,"o":"m 42 68 q 131 27 82 42 q 240 13 181 13 q 382 44 329 13 q 461 138 435 76 q 496 288 488 200 q 504 485 504 375 l 504 986 l 532 986 l 532 485 q 522 281 532 372 q 483 122 513 189 q 396 20 454 56 q 240 -15 338 -15 q 124 0 176 -15 q 26 46 71 15 l 42 68 z "},"Ĵ":{"ha":657,"x_min":26,"x_max":658,"o":"m 42 68 q 131 27 82 42 q 240 13 181 13 q 382 44 329 13 q 461 138 435 76 q 496 288 488 200 q 504 485 504 375 l 504 986 l 532 986 l 532 485 q 522 281 532 372 q 483 122 513 189 q 396 20 454 56 q 240 -15 338 -15 q 124 0 176 -15 q 26 46 71 15 l 42 68 m 378 1172 l 507 1275 l 529 1275 l 658 1172 l 636 1156 l 518 1243 l 400 1156 l 378 1172 z "},"K":{"ha":863,"x_min":138,"x_max":853,"o":"m 138 0 l 138 986 l 165 986 l 165 346 l 793 986 l 833 986 l 413 556 l 853 0 l 817 0 l 392 536 l 165 307 l 165 0 l 138 0 z "},"Ķ":{"ha":863,"x_min":138,"x_max":853,"o":"m 138 0 l 138 986 l 165 986 l 165 346 l 793 986 l 833 986 l 413 556 l 853 0 l 817 0 l 392 536 l 165 307 l 165 0 l 138 0 m 413 -232 l 426 -151 l 414 -151 l 414 -69 l 450 -69 l 450 -151 l 432 -232 l 413 -232 z "},"L":{"ha":804,"x_min":138,"x_max":785,"o":"m 138 0 l 138 986 l 165 986 l 165 28 l 785 28 l 785 0 l 138 0 z "},"Ĺ":{"ha":804,"x_min":138,"x_max":785,"o":"m 138 0 l 138 986 l 165 986 l 165 28 l 785 28 l 785 0 l 138 0 m 160 1161 l 138 1178 l 226 1279 l 274 1279 l 160 1161 z "},"Ľ":{"ha":804,"x_min":138,"x_max":785,"o":"m 138 0 l 138 986 l 165 986 l 165 28 l 785 28 l 785 0 l 138 0 m 558 906 l 536 922 l 625 1024 l 672 1024 l 558 906 z "},"Ļ":{"ha":804,"x_min":138,"x_max":785,"o":"m 138 0 l 138 986 l 165 986 l 165 28 l 785 28 l 785 0 l 138 0 m 436 -232 l 450 -151 l 438 -151 l 438 -69 l 474 -69 l 474 -151 l 456 -232 l 436 -232 z "},"Ŀ":{"ha":804,"x_min":138,"x_max":785,"o":"m 138 0 l 138 986 l 165 986 l 165 28 l 785 28 l 785 0 l 138 0 m 508 500 l 508 615 l 536 615 l 536 500 l 508 500 z "},"Ḷ":{"ha":804,"x_min":138,"x_max":785,"o":"m 138 0 l 138 986 l 165 986 l 165 28 l 785 28 l 785 0 l 138 0 m 446 -176 l 446 -69 l 474 -69 l 474 -176 l 446 -176 z "},"Ḻ":{"ha":804,"x_min":138,"x_max":785,"o":"m 138 0 l 138 986 l 165 986 l 165 28 l 785 28 l 785 0 l 138 0 m 265 -132 l 265 -104 l 654 -104 l 654 -132 l 265 -132 z "},"Ł":{"ha":814,"x_min":40,"x_max":794,"o":"m 60 307 l 40 328 l 436 724 l 456 703 l 60 307 m 147 0 l 147 986 l 175 986 l 175 28 l 794 28 l 794 0 l 147 0 z "},"M":{"ha":1228,"x_min":138,"x_max":1090,"o":"m 1063 0 l 1063 925 l 625 194 l 603 194 l 165 925 l 165 0 l 138 0 l 138 986 l 160 986 l 614 228 l 1068 986 l 1090 986 l 1090 0 l 1063 0 z "},"Ṃ":{"ha":1228,"x_min":138,"x_max":1090,"o":"m 1063 0 l 1063 925 l 625 194 l 603 194 l 165 925 l 165 0 l 138 0 l 138 986 l 160 986 l 614 228 l 1068 986 l 1090 986 l 1090 0 l 1063 0 m 600 -176 l 600 -69 l 628 -69 l 628 -176 l 600 -176 z "},"N":{"ha":1078,"x_min":138,"x_max":940,"o":"m 165 932 l 165 0 l 138 0 l 138 986 l 158 986 l 913 40 l 913 986 l 940 986 l 940 0 l 908 0 l 165 932 z "},"Ń":{"ha":1078,"x_min":138,"x_max":940,"o":"m 165 932 l 165 0 l 138 0 l 138 986 l 158 986 l 913 40 l 913 986 l 940 986 l 940 0 l 908 0 l 165 932 m 554 1157 l 532 1174 l 621 1275 l 668 1275 l 554 1157 z "},"Ň":{"ha":1078,"x_min":138,"x_max":940,"o":"m 165 932 l 165 0 l 138 0 l 138 986 l 158 986 l 913 40 l 913 986 l 940 986 l 940 0 l 908 0 l 165 932 m 428 1275 l 546 1188 l 664 1275 l 686 1258 l 557 1156 l 535 1156 l 406 1258 l 428 1275 z "},"Ņ":{"ha":1078,"x_min":138,"x_max":940,"o":"m 165 932 l 165 0 l 138 0 l 138 986 l 158 986 l 913 40 l 913 986 l 940 986 l 940 0 l 908 0 l 165 932 m 524 -232 l 538 -151 l 525 -151 l 525 -69 l 561 -69 l 561 -151 l 543 -232 l 524 -232 z "},"Ṅ":{"ha":1078,"x_min":138,"x_max":940,"o":"m 165 932 l 165 0 l 138 0 l 138 986 l 158 986 l 913 40 l 913 986 l 940 986 l 940 0 l 908 0 l 165 932 m 532 1168 l 532 1275 l 560 1275 l 560 1168 l 532 1168 z "},"Ṇ":{"ha":1078,"x_min":138,"x_max":940,"o":"m 165 932 l 165 0 l 138 0 l 138 986 l 158 986 l 913 40 l 913 986 l 940 986 l 940 0 l 908 0 l 165 932 m 533 -176 l 533 -69 l 561 -69 l 561 -176 l 533 -176 z "},"Ŋ":{"ha":1078,"x_min":138,"x_max":940,"o":"m 165 932 l 165 0 l 138 0 l 138 986 l 158 986 l 913 40 l 913 985 l 940 985 l 940 -50 q 912 -146 940 -104 q 841 -212 883 -187 q 756 -236 799 -236 q 680 -226 715 -236 q 617 -189 644 -215 l 639 -172 q 694 -201 664 -194 q 754 -208 725 -208 q 829 -187 793 -208 q 889 -131 865 -167 q 913 -50 913 -94 l 913 -6 l 165 932 z "},"Ṉ":{"ha":1078,"x_min":138,"x_max":940,"o":"m 165 932 l 165 0 l 138 0 l 138 986 l 158 986 l 913 40 l 913 986 l 940 986 l 940 0 l 908 0 l 165 932 m 353 -132 l 353 -104 l 742 -104 l 742 -132 l 353 -132 z "},"Ñ":{"ha":1078,"x_min":138,"x_max":940,"o":"m 165 932 l 165 0 l 138 0 l 138 986 l 158 986 l 913 40 l 913 986 l 940 986 l 940 0 l 908 0 l 165 932 m 625 1182 q 556 1195 585 1182 q 504 1222 528 1208 q 451 1235 481 1235 q 407 1220 422 1235 q 386 1189 392 1206 q 381 1168 381 1172 l 353 1168 q 356 1185 353 1171 q 369 1217 360 1200 q 399 1248 379 1235 q 454 1261 419 1261 q 516 1248 490 1261 q 567 1222 542 1235 q 628 1208 593 1208 q 683 1224 667 1208 q 705 1256 700 1239 q 710 1275 710 1272 l 738 1275 q 734 1256 738 1271 q 719 1224 731 1240 q 685 1194 708 1207 q 625 1182 663 1182 z "},"O":{"ha":1051,"x_min":67,"x_max":985,"o":"m 526 -7 q 340 35 425 -7 q 194 149 256 78 q 100 309 133 219 q 67 493 67 399 q 101 681 67 592 q 199 841 136 771 q 345 952 261 911 q 526 993 429 993 q 713 950 629 993 q 858 835 797 907 q 951 674 918 763 q 985 493 985 585 q 950 303 985 393 q 853 144 915 214 q 707 33 790 74 q 526 -7 624 -7 m 94 493 q 126 317 94 401 q 217 165 158 232 q 354 60 275 99 q 526 21 433 21 q 701 61 622 21 q 838 169 781 101 q 926 322 894 238 q 957 493 957 406 q 924 669 957 585 q 833 821 892 754 q 697 926 775 888 q 526 965 618 965 q 351 925 431 965 q 214 817 271 885 q 126 665 157 749 q 94 493 94 581 z "},"Ó":{"ha":1051,"x_min":67,"x_max":985,"o":"m 526 -7 q 340 35 425 -7 q 194 149 256 78 q 100 309 133 219 q 67 493 67 399 q 101 681 67 592 q 199 841 136 771 q 345 952 261 911 q 526 993 429 993 q 713 950 629 993 q 858 835 797 907 q 951 674 918 763 q 985 493 985 585 q 950 303 985 393 q 853 144 915 214 q 707 33 790 74 q 526 -7 624 -7 m 94 493 q 126 317 94 401 q 217 165 158 232 q 354 60 275 99 q 526 21 433 21 q 701 61 622 21 q 838 169 781 101 q 926 322 894 238 q 957 493 957 406 q 924 669 957 585 q 833 821 892 754 q 697 926 775 888 q 526 965 618 965 q 351 925 431 965 q 214 817 271 885 q 126 665 157 749 q 94 493 94 581 m 535 1157 l 513 1174 l 601 1275 l 649 1275 l 535 1157 z "},"Ŏ":{"ha":1051,"x_min":67,"x_max":985,"o":"m 526 -7 q 340 35 425 -7 q 194 149 256 78 q 100 309 133 219 q 67 493 67 399 q 101 681 67 592 q 199 841 136 771 q 345 952 261 911 q 526 993 429 993 q 713 950 629 993 q 858 835 797 907 q 951 674 918 763 q 985 493 985 585 q 950 303 985 393 q 853 144 915 214 q 707 33 790 74 q 526 -7 624 -7 m 94 493 q 126 317 94 401 q 217 165 158 232 q 354 60 275 99 q 526 21 433 21 q 701 61 622 21 q 838 169 781 101 q 926 322 894 238 q 957 493 957 406 q 924 669 957 585 q 833 821 892 754 q 697 926 775 888 q 526 965 618 965 q 351 925 431 965 q 214 817 271 885 q 126 665 157 749 q 94 493 94 581 m 526 1192 q 577 1216 554 1192 q 604 1275 600 1240 l 629 1275 q 598 1200 629 1232 q 526 1168 567 1168 q 455 1200 486 1168 q 424 1275 424 1232 l 450 1275 q 474 1218 450 1244 q 526 1192 497 1192 z "},"Ô":{"ha":1051,"x_min":67,"x_max":985,"o":"m 526 -7 q 340 35 425 -7 q 194 149 256 78 q 100 309 133 219 q 67 493 67 399 q 101 681 67 592 q 199 841 136 771 q 345 952 261 911 q 526 993 429 993 q 713 950 629 993 q 858 835 797 907 q 951 674 918 763 q 985 493 985 585 q 950 303 985 393 q 853 144 915 214 q 707 33 790 74 q 526 -7 624 -7 m 94 493 q 126 317 94 401 q 217 165 158 232 q 354 60 275 99 q 526 21 433 21 q 701 61 622 21 q 838 169 781 101 q 926 322 894 238 q 957 493 957 406 q 924 669 957 585 q 833 821 892 754 q 697 926 775 888 q 526 965 618 965 q 351 925 431 965 q 214 817 271 885 q 126 665 157 749 q 94 493 94 581 m 386 1172 l 515 1275 l 538 1275 l 667 1172 l 644 1156 l 526 1243 l 408 1156 l 386 1172 z "},"Ố":{"ha":1051,"x_min":67,"x_max":985,"o":"m 526 -7 q 340 35 425 -7 q 194 149 256 78 q 100 309 133 219 q 67 493 67 399 q 101 681 67 592 q 199 841 136 771 q 345 952 261 911 q 526 993 429 993 q 713 950 629 993 q 858 835 797 907 q 951 674 918 763 q 985 493 985 585 q 950 303 985 393 q 853 144 915 214 q 707 33 790 74 q 526 -7 624 -7 m 94 493 q 126 317 94 401 q 217 165 158 232 q 354 60 275 99 q 526 21 433 21 q 701 61 622 21 q 838 169 781 101 q 926 322 894 238 q 957 493 957 406 q 924 669 957 585 q 833 821 892 754 q 697 926 775 888 q 526 965 618 965 q 351 925 431 965 q 214 817 271 885 q 126 665 157 749 q 94 493 94 581 z "},"Ộ":{"ha":1051,"x_min":67,"x_max":985,"o":"m 526 -7 q 340 35 425 -7 q 194 149 256 78 q 100 309 133 219 q 67 493 67 399 q 101 681 67 592 q 199 841 136 771 q 345 952 261 911 q 526 993 429 993 q 713 950 629 993 q 858 835 797 907 q 951 674 918 763 q 985 493 985 585 q 950 303 985 393 q 853 144 915 214 q 707 33 790 74 q 526 -7 624 -7 m 94 493 q 126 317 94 401 q 217 165 158 232 q 354 60 275 99 q 526 21 433 21 q 701 61 622 21 q 838 169 781 101 q 926 322 894 238 q 957 493 957 406 q 924 669 957 585 q 833 821 892 754 q 697 926 775 888 q 526 965 618 965 q 351 925 431 965 q 214 817 271 885 q 126 665 157 749 q 94 493 94 581 m 513 -176 l 513 -69 l 540 -69 l 540 -176 l 513 -176 m 386 1172 l 515 1275 l 538 1275 l 667 1172 l 644 1156 l 526 1243 l 408 1156 l 386 1172 z "},"Ồ":{"ha":1051,"x_min":67,"x_max":985,"o":"m 526 -7 q 340 35 425 -7 q 194 149 256 78 q 100 309 133 219 q 67 493 67 399 q 101 681 67 592 q 199 841 136 771 q 345 952 261 911 q 526 993 429 993 q 713 950 629 993 q 858 835 797 907 q 951 674 918 763 q 985 493 985 585 q 950 303 985 393 q 853 144 915 214 q 707 33 790 74 q 526 -7 624 -7 m 94 493 q 126 317 94 401 q 217 165 158 232 q 354 60 275 99 q 526 21 433 21 q 701 61 622 21 q 838 169 781 101 q 926 322 894 238 q 957 493 957 406 q 924 669 957 585 q 833 821 892 754 q 697 926 775 888 q 526 965 618 965 q 351 925 431 965 q 214 817 271 885 q 126 665 157 749 q 94 493 94 581 z "},"Ổ":{"ha":1051,"x_min":67,"x_max":985,"o":"m 526 -7 q 340 35 425 -7 q 194 149 256 78 q 100 309 133 219 q 67 493 67 399 q 101 681 67 592 q 199 841 136 771 q 345 952 261 911 q 526 993 429 993 q 713 950 629 993 q 858 835 797 907 q 951 674 918 763 q 985 493 985 585 q 950 303 985 393 q 853 144 915 214 q 707 33 790 74 q 526 -7 624 -7 m 94 493 q 126 317 94 401 q 217 165 158 232 q 354 60 275 99 q 526 21 433 21 q 701 61 622 21 q 838 169 781 101 q 926 322 894 238 q 957 493 957 406 q 924 669 957 585 q 833 821 892 754 q 697 926 775 888 q 526 965 618 965 q 351 925 431 965 q 214 817 271 885 q 126 665 157 749 q 94 493 94 581 z "},"Ỗ":{"ha":1051,"x_min":67,"x_max":985,"o":"m 526 -7 q 340 35 425 -7 q 194 149 256 78 q 100 309 133 219 q 67 493 67 399 q 101 681 67 592 q 199 841 136 771 q 345 952 261 911 q 526 993 429 993 q 713 950 629 993 q 858 835 797 907 q 951 674 918 763 q 985 493 985 585 q 950 303 985 393 q 853 144 915 214 q 707 33 790 74 q 526 -7 624 -7 m 94 493 q 126 317 94 401 q 217 165 158 232 q 354 60 275 99 q 526 21 433 21 q 701 61 622 21 q 838 169 781 101 q 926 322 894 238 q 957 493 957 406 q 924 669 957 585 q 833 821 892 754 q 697 926 775 888 q 526 965 618 965 q 351 925 431 965 q 214 817 271 885 q 126 665 157 749 q 94 493 94 581 z "},"Ȍ":{"ha":1051,"x_min":67,"x_max":985,"o":"m 526 -7 q 340 35 425 -7 q 194 149 256 78 q 100 309 133 219 q 67 493 67 399 q 101 681 67 592 q 199 841 136 771 q 345 952 261 911 q 526 993 429 993 q 713 950 629 993 q 858 835 797 907 q 951 674 918 763 q 985 493 985 585 q 950 303 985 393 q 853 144 915 214 q 707 33 790 74 q 526 -7 624 -7 m 94 493 q 126 317 94 401 q 217 165 158 232 q 354 60 275 99 q 526 21 433 21 q 701 61 622 21 q 838 169 781 101 q 926 322 894 238 q 957 493 957 406 q 924 669 957 585 q 833 821 892 754 q 697 926 775 888 q 526 965 618 965 q 351 925 431 965 q 214 817 271 885 q 126 665 157 749 q 94 493 94 581 m 485 1275 l 532 1275 l 621 1174 l 599 1157 l 485 1275 m 346 1275 l 393 1275 l 482 1174 l 460 1157 l 346 1275 z "},"Ö":{"ha":1051,"x_min":67,"x_max":985,"o":"m 526 -7 q 340 35 425 -7 q 194 149 256 78 q 100 309 133 219 q 67 493 67 399 q 101 681 67 592 q 199 841 136 771 q 345 952 261 911 q 526 993 429 993 q 713 950 629 993 q 858 835 797 907 q 951 674 918 763 q 985 493 985 585 q 950 303 985 393 q 853 144 915 214 q 707 33 790 74 q 526 -7 624 -7 m 94 493 q 126 317 94 401 q 217 165 158 232 q 354 60 275 99 q 526 21 433 21 q 701 61 622 21 q 838 169 781 101 q 926 322 894 238 q 957 493 957 406 q 924 669 957 585 q 833 821 892 754 q 697 926 775 888 q 526 965 618 965 q 351 925 431 965 q 214 817 271 885 q 126 665 157 749 q 94 493 94 581 m 432 1168 l 432 1275 l 460 1275 l 460 1168 l 432 1168 m 593 1168 l 593 1275 l 621 1275 l 621 1168 l 593 1168 z "},"Ȫ":{"ha":1051,"x_min":67,"x_max":985,"o":"m 526 -7 q 340 35 425 -7 q 194 149 256 78 q 100 309 133 219 q 67 493 67 399 q 101 681 67 592 q 199 841 136 771 q 345 952 261 911 q 526 993 429 993 q 713 950 629 993 q 858 835 797 907 q 951 674 918 763 q 985 493 985 585 q 950 303 985 393 q 853 144 915 214 q 707 33 790 74 q 526 -7 624 -7 m 94 493 q 126 317 94 401 q 217 165 158 232 q 354 60 275 99 q 526 21 433 21 q 701 61 622 21 q 838 169 781 101 q 926 322 894 238 q 957 493 957 406 q 924 669 957 585 q 833 821 892 754 q 697 926 775 888 q 526 965 618 965 q 351 925 431 965 q 214 817 271 885 q 126 665 157 749 q 94 493 94 581 m 432 1168 l 432 1275 l 460 1275 l 460 1168 l 432 1168 m 593 1168 l 593 1275 l 621 1275 l 621 1168 l 593 1168 m 332 1493 l 332 1521 l 721 1521 l 721 1493 l 332 1493 z "},"Ȱ":{"ha":1051,"x_min":67,"x_max":985,"o":"m 526 -7 q 340 35 425 -7 q 194 149 256 78 q 100 309 133 219 q 67 493 67 399 q 101 681 67 592 q 199 841 136 771 q 345 952 261 911 q 526 993 429 993 q 713 950 629 993 q 858 835 797 907 q 951 674 918 763 q 985 493 985 585 q 950 303 985 393 q 853 144 915 214 q 707 33 790 74 q 526 -7 624 -7 m 94 493 q 126 317 94 401 q 217 165 158 232 q 354 60 275 99 q 526 21 433 21 q 701 61 622 21 q 838 169 781 101 q 926 322 894 238 q 957 493 957 406 q 924 669 957 585 q 833 821 892 754 q 697 926 775 888 q 526 965 618 965 q 351 925 431 965 q 214 817 271 885 q 126 665 157 749 q 94 493 94 581 m 513 1168 l 513 1275 l 540 1275 l 540 1168 l 513 1168 m 332 1507 l 332 1535 l 721 1535 l 721 1507 l 332 1507 z "},"Ọ":{"ha":1051,"x_min":67,"x_max":985,"o":"m 526 -7 q 340 35 425 -7 q 194 149 256 78 q 100 309 133 219 q 67 493 67 399 q 101 681 67 592 q 199 841 136 771 q 345 952 261 911 q 526 993 429 993 q 713 950 629 993 q 858 835 797 907 q 951 674 918 763 q 985 493 985 585 q 950 303 985 393 q 853 144 915 214 q 707 33 790 74 q 526 -7 624 -7 m 94 493 q 126 317 94 401 q 217 165 158 232 q 354 60 275 99 q 526 21 433 21 q 701 61 622 21 q 838 169 781 101 q 926 322 894 238 q 957 493 957 406 q 924 669 957 585 q 833 821 892 754 q 697 926 775 888 q 526 965 618 965 q 351 925 431 965 q 214 817 271 885 q 126 665 157 749 q 94 493 94 581 m 513 -176 l 513 -69 l 540 -69 l 540 -176 l 513 -176 z "},"Ò":{"ha":1051,"x_min":67,"x_max":985,"o":"m 526 -7 q 340 35 425 -7 q 194 149 256 78 q 100 309 133 219 q 67 493 67 399 q 101 681 67 592 q 199 841 136 771 q 345 952 261 911 q 526 993 429 993 q 713 950 629 993 q 858 835 797 907 q 951 674 918 763 q 985 493 985 585 q 950 303 985 393 q 853 144 915 214 q 707 33 790 74 q 526 -7 624 -7 m 94 493 q 126 317 94 401 q 217 165 158 232 q 354 60 275 99 q 526 21 433 21 q 701 61 622 21 q 838 169 781 101 q 926 322 894 238 q 957 493 957 406 q 924 669 957 585 q 833 821 892 754 q 697 926 775 888 q 526 965 618 965 q 351 925 431 965 q 214 817 271 885 q 126 665 157 749 q 94 493 94 581 m 432 1275 l 478 1275 l 568 1174 l 546 1157 l 432 1275 z "},"Ỏ":{"ha":1051,"x_min":67,"x_max":985,"o":"m 526 -7 q 340 35 425 -7 q 194 149 256 78 q 100 309 133 219 q 67 493 67 399 q 101 681 67 592 q 199 841 136 771 q 345 952 261 911 q 526 993 429 993 q 713 950 629 993 q 858 835 797 907 q 951 674 918 763 q 985 493 985 585 q 950 303 985 393 q 853 144 915 214 q 707 33 790 74 q 526 -7 624 -7 m 94 493 q 126 317 94 401 q 217 165 158 232 q 354 60 275 99 q 526 21 433 21 q 701 61 622 21 q 838 169 781 101 q 926 322 894 238 q 957 493 957 406 q 924 669 957 585 q 833 821 892 754 q 697 926 775 888 q 526 965 618 965 q 351 925 431 965 q 214 817 271 885 q 126 665 157 749 q 94 493 94 581 m 460 1208 l 443 1226 q 484 1257 465 1246 q 529 1268 503 1268 q 585 1247 563 1268 q 608 1189 608 1226 q 592 1143 608 1163 q 553 1096 576 1124 l 536 1111 q 571 1154 558 1136 q 583 1189 583 1172 q 570 1227 583 1211 q 526 1243 557 1243 q 494 1235 508 1243 q 460 1208 481 1226 z "},"Ơ":{"ha":1051,"x_min":67,"x_max":985,"o":"m 526 -7 q 340 35 425 -7 q 194 149 256 78 q 100 309 133 219 q 67 493 67 399 q 101 681 67 592 q 199 841 136 771 q 345 952 261 911 q 526 993 429 993 q 713 950 629 993 q 858 835 797 907 q 951 674 918 763 q 985 493 985 585 q 950 303 985 393 q 853 144 915 214 q 707 33 790 74 q 526 -7 624 -7 m 94 493 q 126 317 94 401 q 217 165 158 232 q 354 60 275 99 q 526 21 433 21 q 701 61 622 21 q 838 169 781 101 q 926 322 894 238 q 957 493 957 406 q 924 669 957 585 q 833 821 892 754 q 697 926 775 888 q 526 965 618 965 q 351 925 431 965 q 214 817 271 885 q 126 665 157 749 q 94 493 94 581 m 607 958 l 607 986 q 674 994 643 986 q 719 1018 706 1003 q 735 1051 731 1031 q 742 1103 740 1072 l 772 1103 q 768 1060 771 1078 q 760 1028 765 1042 q 742 1000 754 1015 q 710 978 731 988 q 662 963 689 968 q 607 958 635 958 z "},"Ớ":{"ha":1051,"x_min":67,"x_max":985,"o":"m 526 -7 q 340 35 425 -7 q 194 149 256 78 q 100 309 133 219 q 67 493 67 399 q 101 681 67 592 q 199 841 136 771 q 345 952 261 911 q 526 993 429 993 q 713 950 629 993 q 858 835 797 907 q 951 674 918 763 q 985 493 985 585 q 950 303 985 393 q 853 144 915 214 q 707 33 790 74 q 526 -7 624 -7 m 94 493 q 126 317 94 401 q 217 165 158 232 q 354 60 275 99 q 526 21 433 21 q 701 61 622 21 q 838 169 781 101 q 926 322 894 238 q 957 493 957 406 q 924 669 957 585 q 833 821 892 754 q 697 926 775 888 q 526 965 618 965 q 351 925 431 965 q 214 817 271 885 q 126 665 157 749 q 94 493 94 581 m 607 958 l 607 986 q 674 994 643 986 q 719 1018 706 1003 q 735 1051 731 1031 q 742 1103 740 1072 l 772 1103 q 768 1060 771 1078 q 760 1028 765 1042 q 742 1000 754 1015 q 710 978 731 988 q 662 963 689 968 q 607 958 635 958 m 535 1157 l 513 1174 l 601 1275 l 649 1275 l 535 1157 z "},"Ợ":{"ha":1051,"x_min":67,"x_max":985,"o":"m 526 -7 q 340 35 425 -7 q 194 149 256 78 q 100 309 133 219 q 67 493 67 399 q 101 681 67 592 q 199 841 136 771 q 345 952 261 911 q 526 993 429 993 q 713 950 629 993 q 858 835 797 907 q 951 674 918 763 q 985 493 985 585 q 950 303 985 393 q 853 144 915 214 q 707 33 790 74 q 526 -7 624 -7 m 94 493 q 126 317 94 401 q 217 165 158 232 q 354 60 275 99 q 526 21 433 21 q 701 61 622 21 q 838 169 781 101 q 926 322 894 238 q 957 493 957 406 q 924 669 957 585 q 833 821 892 754 q 697 926 775 888 q 526 965 618 965 q 351 925 431 965 q 214 817 271 885 q 126 665 157 749 q 94 493 94 581 m 607 958 l 607 986 q 674 994 643 986 q 719 1018 706 1003 q 735 1051 731 1031 q 742 1103 740 1072 l 772 1103 q 768 1060 771 1078 q 760 1028 765 1042 q 742 1000 754 1015 q 710 978 731 988 q 662 963 689 968 q 607 958 635 958 m 513 -176 l 513 -69 l 540 -69 l 540 -176 l 513 -176 z "},"Ờ":{"ha":1051,"x_min":67,"x_max":985,"o":"m 526 -7 q 340 35 425 -7 q 194 149 256 78 q 100 309 133 219 q 67 493 67 399 q 101 681 67 592 q 199 841 136 771 q 345 952 261 911 q 526 993 429 993 q 713 950 629 993 q 858 835 797 907 q 951 674 918 763 q 985 493 985 585 q 950 303 985 393 q 853 144 915 214 q 707 33 790 74 q 526 -7 624 -7 m 94 493 q 126 317 94 401 q 217 165 158 232 q 354 60 275 99 q 526 21 433 21 q 701 61 622 21 q 838 169 781 101 q 926 322 894 238 q 957 493 957 406 q 924 669 957 585 q 833 821 892 754 q 697 926 775 888 q 526 965 618 965 q 351 925 431 965 q 214 817 271 885 q 126 665 157 749 q 94 493 94 581 m 607 958 l 607 986 q 674 994 643 986 q 719 1018 706 1003 q 735 1051 731 1031 q 742 1103 740 1072 l 772 1103 q 768 1060 771 1078 q 760 1028 765 1042 q 742 1000 754 1015 q 710 978 731 988 q 662 963 689 968 q 607 958 635 958 m 432 1275 l 478 1275 l 568 1174 l 546 1157 l 432 1275 z "},"Ở":{"ha":1051,"x_min":67,"x_max":985,"o":"m 526 -7 q 340 35 425 -7 q 194 149 256 78 q 100 309 133 219 q 67 493 67 399 q 101 681 67 592 q 199 841 136 771 q 345 952 261 911 q 526 993 429 993 q 713 950 629 993 q 858 835 797 907 q 951 674 918 763 q 985 493 985 585 q 950 303 985 393 q 853 144 915 214 q 707 33 790 74 q 526 -7 624 -7 m 94 493 q 126 317 94 401 q 217 165 158 232 q 354 60 275 99 q 526 21 433 21 q 701 61 622 21 q 838 169 781 101 q 926 322 894 238 q 957 493 957 406 q 924 669 957 585 q 833 821 892 754 q 697 926 775 888 q 526 965 618 965 q 351 925 431 965 q 214 817 271 885 q 126 665 157 749 q 94 493 94 581 m 607 958 l 607 986 q 674 994 643 986 q 719 1018 706 1003 q 735 1051 731 1031 q 742 1103 740 1072 l 772 1103 q 768 1060 771 1078 q 760 1028 765 1042 q 742 1000 754 1015 q 710 978 731 988 q 662 963 689 968 q 607 958 635 958 m 460 1208 l 443 1226 q 484 1257 465 1246 q 529 1268 503 1268 q 585 1247 563 1268 q 608 1189 608 1226 q 592 1143 608 1163 q 553 1096 576 1124 l 536 1111 q 571 1154 558 1136 q 583 1189 583 1172 q 570 1227 583 1211 q 526 1243 557 1243 q 494 1235 508 1243 q 460 1208 481 1226 z "},"Ỡ":{"ha":1051,"x_min":67,"x_max":985,"o":"m 526 -7 q 340 35 425 -7 q 194 149 256 78 q 100 309 133 219 q 67 493 67 399 q 101 681 67 592 q 199 841 136 771 q 345 952 261 911 q 526 993 429 993 q 713 950 629 993 q 858 835 797 907 q 951 674 918 763 q 985 493 985 585 q 950 303 985 393 q 853 144 915 214 q 707 33 790 74 q 526 -7 624 -7 m 94 493 q 126 317 94 401 q 217 165 158 232 q 354 60 275 99 q 526 21 433 21 q 701 61 622 21 q 838 169 781 101 q 926 322 894 238 q 957 493 957 406 q 924 669 957 585 q 833 821 892 754 q 697 926 775 888 q 526 965 618 965 q 351 925 431 965 q 214 817 271 885 q 126 665 157 749 q 94 493 94 581 m 607 958 l 607 986 q 674 994 643 986 q 719 1018 706 1003 q 735 1051 731 1031 q 742 1103 740 1072 l 772 1103 q 768 1060 771 1078 q 760 1028 765 1042 q 742 1000 754 1015 q 710 978 731 988 q 662 963 689 968 q 607 958 635 958 m 606 1182 q 537 1195 565 1182 q 485 1222 508 1208 q 432 1235 461 1235 q 388 1220 403 1235 q 367 1189 372 1206 q 361 1168 361 1172 l 333 1168 q 337 1185 333 1171 q 350 1217 340 1200 q 380 1248 360 1235 q 435 1261 400 1261 q 497 1248 471 1261 q 548 1222 522 1235 q 608 1208 574 1208 q 664 1224 647 1208 q 685 1256 681 1239 q 690 1275 690 1272 l 718 1275 q 715 1256 718 1271 q 700 1224 711 1240 q 666 1194 689 1207 q 606 1182 643 1182 z "},"Ő":{"ha":1051,"x_min":67,"x_max":985,"o":"m 526 -7 q 340 35 425 -7 q 194 149 256 78 q 100 309 133 219 q 67 493 67 399 q 101 681 67 592 q 199 841 136 771 q 345 952 261 911 q 526 993 429 993 q 713 950 629 993 q 858 835 797 907 q 951 674 918 763 q 985 493 985 585 q 950 303 985 393 q 853 144 915 214 q 707 33 790 74 q 526 -7 624 -7 m 94 493 q 126 317 94 401 q 217 165 158 232 q 354 60 275 99 q 526 21 433 21 q 701 61 622 21 q 838 169 781 101 q 926 322 894 238 q 957 493 957 406 q 924 669 957 585 q 833 821 892 754 q 697 926 775 888 q 526 965 618 965 q 351 925 431 965 q 214 817 271 885 q 126 665 157 749 q 94 493 94 581 m 438 1157 l 415 1174 l 504 1275 l 551 1275 l 438 1157 m 576 1157 l 554 1174 l 643 1275 l 690 1275 l 576 1157 z "},"Ȏ":{"ha":1051,"x_min":67,"x_max":985,"o":"m 526 -7 q 340 35 425 -7 q 194 149 256 78 q 100 309 133 219 q 67 493 67 399 q 101 681 67 592 q 199 841 136 771 q 345 952 261 911 q 526 993 429 993 q 713 950 629 993 q 858 835 797 907 q 951 674 918 763 q 985 493 985 585 q 950 303 985 393 q 853 144 915 214 q 707 33 790 74 q 526 -7 624 -7 m 94 493 q 126 317 94 401 q 217 165 158 232 q 354 60 275 99 q 526 21 433 21 q 701 61 622 21 q 838 169 781 101 q 926 322 894 238 q 957 493 957 406 q 924 669 957 585 q 833 821 892 754 q 697 926 775 888 q 526 965 618 965 q 351 925 431 965 q 214 817 271 885 q 126 665 157 749 q 94 493 94 581 m 526 1251 q 474 1226 497 1251 q 450 1168 450 1200 l 424 1168 q 455 1243 424 1211 q 526 1275 486 1275 q 598 1243 567 1275 q 629 1168 629 1211 l 604 1168 q 577 1227 600 1203 q 526 1251 554 1251 z "},"Ō":{"ha":1051,"x_min":67,"x_max":985,"o":"m 526 -7 q 340 35 425 -7 q 194 149 256 78 q 100 309 133 219 q 67 493 67 399 q 101 681 67 592 q 199 841 136 771 q 345 952 261 911 q 526 993 429 993 q 713 950 629 993 q 858 835 797 907 q 951 674 918 763 q 985 493 985 585 q 950 303 985 393 q 853 144 915 214 q 707 33 790 74 q 526 -7 624 -7 m 94 493 q 126 317 94 401 q 217 165 158 232 q 354 60 275 99 q 526 21 433 21 q 701 61 622 21 q 838 169 781 101 q 926 322 894 238 q 957 493 957 406 q 924 669 957 585 q 833 821 892 754 q 697 926 775 888 q 526 965 618 965 q 351 925 431 965 q 214 817 271 885 q 126 665 157 749 q 94 493 94 581 m 332 1214 l 332 1242 l 721 1242 l 721 1214 l 332 1214 z "},"Ṓ":{"ha":1051,"x_min":67,"x_max":985,"o":"m 526 -7 q 340 35 425 -7 q 194 149 256 78 q 100 309 133 219 q 67 493 67 399 q 101 681 67 592 q 199 841 136 771 q 345 952 261 911 q 526 993 429 993 q 713 950 629 993 q 858 835 797 907 q 951 674 918 763 q 985 493 985 585 q 950 303 985 393 q 853 144 915 214 q 707 33 790 74 q 526 -7 624 -7 m 94 493 q 126 317 94 401 q 217 165 158 232 q 354 60 275 99 q 526 21 433 21 q 701 61 622 21 q 838 169 781 101 q 926 322 894 238 q 957 493 957 406 q 924 669 957 585 q 833 821 892 754 q 697 926 775 888 q 526 965 618 965 q 351 925 431 965 q 214 817 271 885 q 126 665 157 749 q 94 493 94 581 m 332 1214 l 332 1242 l 721 1242 l 721 1214 l 332 1214 m 535 1417 l 513 1433 l 601 1535 l 649 1535 l 535 1417 z "},"Ṑ":{"ha":1051,"x_min":67,"x_max":985,"o":"m 526 -7 q 340 35 425 -7 q 194 149 256 78 q 100 309 133 219 q 67 493 67 399 q 101 681 67 592 q 199 841 136 771 q 345 952 261 911 q 526 993 429 993 q 713 950 629 993 q 858 835 797 907 q 951 674 918 763 q 985 493 985 585 q 950 303 985 393 q 853 144 915 214 q 707 33 790 74 q 526 -7 624 -7 m 94 493 q 126 317 94 401 q 217 165 158 232 q 354 60 275 99 q 526 21 433 21 q 701 61 622 21 q 838 169 781 101 q 926 322 894 238 q 957 493 957 406 q 924 669 957 585 q 833 821 892 754 q 697 926 775 888 q 526 965 618 965 q 351 925 431 965 q 214 817 271 885 q 126 665 157 749 q 94 493 94 581 m 332 1214 l 332 1242 l 721 1242 l 721 1214 l 332 1214 m 432 1535 l 478 1535 l 568 1433 l 546 1417 l 432 1535 z "},"Ǫ":{"ha":1051,"x_min":67,"x_max":985,"o":"m 526 -7 q 340 35 425 -7 q 194 149 256 78 q 100 309 133 219 q 67 493 67 399 q 101 681 67 592 q 199 841 136 771 q 345 952 261 911 q 526 993 429 993 q 713 950 629 993 q 858 835 797 907 q 951 674 918 763 q 985 493 985 585 q 950 303 985 393 q 853 144 915 214 q 707 33 790 74 q 526 -7 624 -7 m 94 493 q 126 317 94 401 q 217 165 158 232 q 354 60 275 99 q 526 21 433 21 q 701 61 622 21 q 838 169 781 101 q 926 322 894 238 q 957 493 957 406 q 924 669 957 585 q 833 821 892 754 q 697 926 775 888 q 526 965 618 965 q 351 925 431 965 q 214 817 271 885 q 126 665 157 749 q 94 493 94 581 m 460 -139 q 489 -64 460 -101 q 574 17 518 -26 l 581 17 l 594 0 q 514 -74 539 -43 q 489 -135 489 -106 q 511 -176 489 -161 q 589 -204 533 -192 l 572 -228 q 507 -208 532 -219 q 471 -178 482 -196 q 460 -139 460 -161 z "},"Ø":{"ha":1051,"x_min":67,"x_max":985,"o":"m 526 -7 q 340 35 425 -7 q 194 149 256 78 q 100 309 133 219 q 67 493 67 399 q 101 681 67 592 q 199 841 136 771 q 345 952 261 911 q 526 993 429 993 q 713 950 629 993 q 858 835 797 907 q 951 674 918 763 q 985 493 985 585 q 950 303 985 393 q 853 144 915 214 q 707 33 790 74 q 526 -7 624 -7 m 94 493 q 126 317 94 401 q 217 165 158 232 q 354 60 275 99 q 526 21 433 21 q 701 61 622 21 q 838 169 781 101 q 926 322 894 238 q 957 493 957 406 q 924 669 957 585 q 833 821 892 754 q 697 926 775 888 q 526 965 618 965 q 351 925 431 965 q 214 817 271 885 q 126 665 157 749 q 94 493 94 581 m 860 986 l 226 0 l 192 0 l 824 986 l 860 986 z "},"Ǿ":{"ha":1051,"x_min":67,"x_max":985,"o":"m 526 -7 q 340 35 425 -7 q 194 149 256 78 q 100 309 133 219 q 67 493 67 399 q 101 681 67 592 q 199 841 136 771 q 345 952 261 911 q 526 993 429 993 q 713 950 629 993 q 858 835 797 907 q 951 674 918 763 q 985 493 985 585 q 950 303 985 393 q 853 144 915 214 q 707 33 790 74 q 526 -7 624 -7 m 94 493 q 126 317 94 401 q 217 165 158 232 q 354 60 275 99 q 526 21 433 21 q 701 61 622 21 q 838 169 781 101 q 926 322 894 238 q 957 493 957 406 q 924 669 957 585 q 833 821 892 754 q 697 926 775 888 q 526 965 618 965 q 351 925 431 965 q 214 817 271 885 q 126 665 157 749 q 94 493 94 581 m 860 986 l 226 0 l 192 0 l 824 986 l 860 986 m 535 1157 l 513 1174 l 601 1275 l 649 1275 l 535 1157 z "},"Õ":{"ha":1051,"x_min":67,"x_max":985,"o":"m 526 -7 q 340 35 425 -7 q 194 149 256 78 q 100 309 133 219 q 67 493 67 399 q 101 681 67 592 q 199 841 136 771 q 345 952 261 911 q 526 993 429 993 q 713 950 629 993 q 858 835 797 907 q 951 674 918 763 q 985 493 985 585 q 950 303 985 393 q 853 144 915 214 q 707 33 790 74 q 526 -7 624 -7 m 94 493 q 126 317 94 401 q 217 165 158 232 q 354 60 275 99 q 526 21 433 21 q 701 61 622 21 q 838 169 781 101 q 926 322 894 238 q 957 493 957 406 q 924 669 957 585 q 833 821 892 754 q 697 926 775 888 q 526 965 618 965 q 351 925 431 965 q 214 817 271 885 q 126 665 157 749 q 94 493 94 581 m 606 1182 q 537 1195 565 1182 q 485 1222 508 1208 q 432 1235 461 1235 q 388 1220 403 1235 q 367 1189 372 1206 q 361 1168 361 1172 l 333 1168 q 337 1185 333 1171 q 350 1217 340 1200 q 380 1248 360 1235 q 435 1261 400 1261 q 497 1248 471 1261 q 548 1222 522 1235 q 608 1208 574 1208 q 664 1224 647 1208 q 685 1256 681 1239 q 690 1275 690 1272 l 718 1275 q 715 1256 718 1271 q 700 1224 711 1240 q 666 1194 689 1207 q 606 1182 643 1182 z "},"Ṍ":{"ha":1051,"x_min":67,"x_max":985,"o":"m 526 -7 q 340 35 425 -7 q 194 149 256 78 q 100 309 133 219 q 67 493 67 399 q 101 681 67 592 q 199 841 136 771 q 345 952 261 911 q 526 993 429 993 q 713 950 629 993 q 858 835 797 907 q 951 674 918 763 q 985 493 985 585 q 950 303 985 393 q 853 144 915 214 q 707 33 790 74 q 526 -7 624 -7 m 94 493 q 126 317 94 401 q 217 165 158 232 q 354 60 275 99 q 526 21 433 21 q 701 61 622 21 q 838 169 781 101 q 926 322 894 238 q 957 493 957 406 q 924 669 957 585 q 833 821 892 754 q 697 926 775 888 q 526 965 618 965 q 351 925 431 965 q 214 817 271 885 q 126 665 157 749 q 94 493 94 581 m 606 1182 q 537 1195 565 1182 q 485 1222 508 1208 q 432 1235 461 1235 q 388 1220 403 1235 q 367 1189 372 1206 q 361 1168 361 1172 l 333 1168 q 337 1185 333 1171 q 350 1217 340 1200 q 380 1248 360 1235 q 435 1261 400 1261 q 497 1248 471 1261 q 548 1222 522 1235 q 608 1208 574 1208 q 664 1224 647 1208 q 685 1256 681 1239 q 690 1275 690 1272 l 718 1275 q 715 1256 718 1271 q 700 1224 711 1240 q 666 1194 689 1207 q 606 1182 643 1182 m 535 1450 l 513 1467 l 601 1568 l 649 1568 l 535 1450 z "},"Ṏ":{"ha":1051,"x_min":67,"x_max":985,"o":"m 526 -7 q 340 35 425 -7 q 194 149 256 78 q 100 309 133 219 q 67 493 67 399 q 101 681 67 592 q 199 841 136 771 q 345 952 261 911 q 526 993 429 993 q 713 950 629 993 q 858 835 797 907 q 951 674 918 763 q 985 493 985 585 q 950 303 985 393 q 853 144 915 214 q 707 33 790 74 q 526 -7 624 -7 m 94 493 q 126 317 94 401 q 217 165 158 232 q 354 60 275 99 q 526 21 433 21 q 701 61 622 21 q 838 169 781 101 q 926 322 894 238 q 957 493 957 406 q 924 669 957 585 q 833 821 892 754 q 697 926 775 888 q 526 965 618 965 q 351 925 431 965 q 214 817 271 885 q 126 665 157 749 q 94 493 94 581 m 606 1182 q 537 1195 565 1182 q 485 1222 508 1208 q 432 1235 461 1235 q 388 1220 403 1235 q 367 1189 372 1206 q 361 1168 361 1172 l 333 1168 q 337 1185 333 1171 q 350 1217 340 1200 q 380 1248 360 1235 q 435 1261 400 1261 q 497 1248 471 1261 q 548 1222 522 1235 q 608 1208 574 1208 q 664 1224 647 1208 q 685 1256 681 1239 q 690 1275 690 1272 l 718 1275 q 715 1256 718 1271 q 700 1224 711 1240 q 666 1194 689 1207 q 606 1182 643 1182 m 432 1461 l 432 1568 l 460 1568 l 460 1461 l 432 1461 m 593 1461 l 593 1568 l 621 1568 l 621 1461 l 593 1461 z "},"Ȭ":{"ha":1051,"x_min":67,"x_max":985,"o":"m 526 -7 q 340 35 425 -7 q 194 149 256 78 q 100 309 133 219 q 67 493 67 399 q 101 681 67 592 q 199 841 136 771 q 345 952 261 911 q 526 993 429 993 q 713 950 629 993 q 858 835 797 907 q 951 674 918 763 q 985 493 985 585 q 950 303 985 393 q 853 144 915 214 q 707 33 790 74 q 526 -7 624 -7 m 94 493 q 126 317 94 401 q 217 165 158 232 q 354 60 275 99 q 526 21 433 21 q 701 61 622 21 q 838 169 781 101 q 926 322 894 238 q 957 493 957 406 q 924 669 957 585 q 833 821 892 754 q 697 926 775 888 q 526 965 618 965 q 351 925 431 965 q 214 817 271 885 q 126 665 157 749 q 94 493 94 581 m 606 1182 q 537 1195 565 1182 q 485 1222 508 1208 q 432 1235 461 1235 q 388 1220 403 1235 q 367 1189 372 1206 q 361 1168 361 1172 l 333 1168 q 337 1185 333 1171 q 350 1217 340 1200 q 380 1248 360 1235 q 435 1261 400 1261 q 497 1248 471 1261 q 548 1222 522 1235 q 608 1208 574 1208 q 664 1224 647 1208 q 685 1256 681 1239 q 690 1275 690 1272 l 718 1275 q 715 1256 718 1271 q 700 1224 711 1240 q 666 1194 689 1207 q 606 1182 643 1182 m 332 1507 l 332 1535 l 721 1535 l 721 1507 l 332 1507 z "},"Œ":{"ha":1676,"x_min":67,"x_max":1604,"o":"m 1604 28 l 1604 0 l 957 0 l 957 325 q 863 157 925 232 q 715 38 800 82 q 529 -7 629 -7 q 342 35 426 -7 q 195 148 257 76 q 100 309 133 219 q 67 493 67 399 q 101 681 67 592 q 199 841 136 771 q 345 952 261 911 q 526 993 429 993 q 718 948 632 993 q 865 827 804 903 q 957 660 926 751 l 957 986 l 1592 986 l 1592 958 l 985 958 l 985 518 l 1517 518 l 1517 490 l 985 490 l 985 28 l 1604 28 m 526 21 q 701 61 622 21 q 838 169 781 101 q 926 322 894 238 q 957 494 957 407 q 924 671 957 586 q 833 822 892 756 q 697 926 775 888 q 526 965 618 965 q 351 925 431 965 q 214 817 271 885 q 126 665 157 749 q 94 493 94 581 q 126 317 94 401 q 217 165 158 232 q 354 60 275 99 q 526 21 433 21 z "},"P":{"ha":860,"x_min":138,"x_max":817,"o":"m 138 0 l 138 986 l 539 986 q 651 960 600 986 q 738 892 701 935 q 796 796 775 849 q 817 688 817 743 q 783 542 817 611 q 689 431 749 474 q 549 388 629 388 l 165 388 l 165 0 l 138 0 m 165 415 l 549 415 q 678 456 624 415 q 760 558 732 496 q 789 688 789 621 q 756 820 789 758 q 665 920 722 882 q 539 958 608 958 l 165 958 l 165 415 z "},"Þ":{"ha":832,"x_min":138,"x_max":789,"o":"m 511 778 q 623 752 572 778 q 710 683 674 726 q 768 588 747 640 q 789 479 789 535 q 755 334 789 403 q 661 222 721 265 q 521 179 601 179 l 165 179 l 165 0 l 138 0 l 138 986 l 165 986 l 165 778 l 511 778 m 521 207 q 650 247 596 207 q 733 350 704 288 q 761 479 761 413 q 728 612 761 550 q 638 712 694 674 q 511 750 581 750 l 165 750 l 165 207 l 521 207 z "},"Q":{"ha":1051,"x_min":67,"x_max":985,"o":"m 526 -7 q 340 35 425 -7 q 194 149 256 78 q 100 309 133 219 q 67 493 67 399 q 101 681 67 592 q 199 841 136 771 q 345 952 261 911 q 526 993 429 993 q 713 950 629 993 q 858 835 797 907 q 951 674 918 763 q 985 493 985 585 q 950 303 985 393 q 853 144 915 214 q 707 33 790 74 q 526 -7 624 -7 m 526 21 q 701 61 622 21 q 838 169 781 101 q 926 322 894 238 q 957 493 957 406 q 924 669 957 585 q 833 821 892 754 q 697 926 775 888 q 526 965 618 965 q 351 925 431 965 q 214 817 271 885 q 126 665 157 749 q 94 493 94 581 q 126 317 94 401 q 217 165 158 232 q 354 60 275 99 q 526 21 433 21 m 693 258 l 728 258 l 933 0 l 899 0 l 693 258 z "},"R":{"ha":892,"x_min":138,"x_max":817,"o":"m 138 0 l 138 986 l 539 986 q 651 960 600 986 q 738 892 701 935 q 796 796 775 849 q 817 688 817 743 q 785 545 817 611 q 697 436 753 479 q 565 388 640 393 l 815 0 l 782 0 l 532 388 l 165 388 l 165 0 l 138 0 m 165 415 l 549 415 q 677 455 624 415 q 760 557 731 494 q 789 688 789 619 q 756 820 789 758 q 665 920 722 882 q 539 958 608 958 l 165 958 l 165 415 z "},"Ŕ":{"ha":892,"x_min":138,"x_max":817,"o":"m 138 0 l 138 986 l 539 986 q 651 960 600 986 q 738 892 701 935 q 796 796 775 849 q 817 688 817 743 q 785 545 817 611 q 697 436 753 479 q 565 388 640 393 l 815 0 l 782 0 l 532 388 l 165 388 l 165 0 l 138 0 m 165 415 l 549 415 q 677 455 624 415 q 760 557 731 494 q 789 688 789 619 q 756 820 789 758 q 665 920 722 882 q 539 958 608 958 l 165 958 l 165 415 m 419 1161 l 397 1178 l 486 1279 l 533 1279 l 419 1161 z "},"Ř":{"ha":892,"x_min":138,"x_max":817,"o":"m 138 0 l 138 986 l 539 986 q 651 960 600 986 q 738 892 701 935 q 796 796 775 849 q 817 688 817 743 q 785 545 817 611 q 697 436 753 479 q 565 388 640 393 l 815 0 l 782 0 l 532 388 l 165 388 l 165 0 l 138 0 m 165 415 l 549 415 q 677 455 624 415 q 760 557 731 494 q 789 688 789 619 q 756 820 789 758 q 665 920 722 882 q 539 958 608 958 l 165 958 l 165 415 m 293 1279 l 411 1192 l 529 1279 l 551 1263 l 422 1160 l 400 1160 l 271 1263 l 293 1279 z "},"Ŗ":{"ha":892,"x_min":138,"x_max":817,"o":"m 138 0 l 138 986 l 539 986 q 651 960 600 986 q 738 892 701 935 q 796 796 775 849 q 817 688 817 743 q 785 545 817 611 q 697 436 753 479 q 565 388 640 393 l 815 0 l 782 0 l 532 388 l 165 388 l 165 0 l 138 0 m 165 415 l 549 415 q 677 455 624 415 q 760 557 731 494 q 789 688 789 619 q 756 820 789 758 q 665 920 722 882 q 539 958 608 958 l 165 958 l 165 415 m 415 -232 l 429 -151 l 417 -151 l 417 -69 l 453 -69 l 453 -151 l 435 -232 l 415 -232 z "},"Ȑ":{"ha":892,"x_min":138,"x_max":817,"o":"m 138 0 l 138 986 l 539 986 q 651 960 600 986 q 738 892 701 935 q 796 796 775 849 q 817 688 817 743 q 785 545 817 611 q 697 436 753 479 q 565 388 640 393 l 815 0 l 782 0 l 532 388 l 165 388 l 165 0 l 138 0 m 165 415 l 549 415 q 677 455 624 415 q 760 557 731 494 q 789 688 789 619 q 756 820 789 758 q 665 920 722 882 q 539 958 608 958 l 165 958 l 165 415 m 369 1279 l 417 1279 l 506 1178 l 483 1161 l 369 1279 m 231 1279 l 278 1279 l 367 1178 l 344 1161 l 231 1279 z "},"Ṛ":{"ha":892,"x_min":138,"x_max":817,"o":"m 138 0 l 138 986 l 539 986 q 651 960 600 986 q 738 892 701 935 q 796 796 775 849 q 817 688 817 743 q 785 545 817 611 q 697 436 753 479 q 565 388 640 393 l 815 0 l 782 0 l 532 388 l 165 388 l 165 0 l 138 0 m 165 415 l 549 415 q 677 455 624 415 q 760 557 731 494 q 789 688 789 619 q 756 820 789 758 q 665 920 722 882 q 539 958 608 958 l 165 958 l 165 415 m 425 -176 l 425 -69 l 453 -69 l 453 -176 l 425 -176 z "},"Ȓ":{"ha":892,"x_min":138,"x_max":817,"o":"m 138 0 l 138 986 l 539 986 q 651 960 600 986 q 738 892 701 935 q 796 796 775 849 q 817 688 817 743 q 785 545 817 611 q 697 436 753 479 q 565 388 640 393 l 815 0 l 782 0 l 532 388 l 165 388 l 165 0 l 138 0 m 165 415 l 549 415 q 677 455 624 415 q 760 557 731 494 q 789 688 789 619 q 756 820 789 758 q 665 920 722 882 q 539 958 608 958 l 165 958 l 165 415 m 411 1256 q 358 1230 382 1256 q 335 1172 335 1204 l 308 1172 q 340 1247 308 1215 q 411 1279 371 1279 q 483 1247 451 1279 q 514 1172 514 1215 l 489 1172 q 462 1231 485 1207 q 411 1256 439 1256 z "},"Ṟ":{"ha":892,"x_min":138,"x_max":817,"o":"m 138 0 l 138 986 l 539 986 q 651 960 600 986 q 738 892 701 935 q 796 796 775 849 q 817 688 817 743 q 785 545 817 611 q 697 436 753 479 q 565 388 640 393 l 815 0 l 782 0 l 532 388 l 165 388 l 165 0 l 138 0 m 165 415 l 549 415 q 677 455 624 415 q 760 557 731 494 q 789 688 789 619 q 756 820 789 758 q 665 920 722 882 q 539 958 608 958 l 165 958 l 165 415 m 244 -132 l 244 -104 l 633 -104 l 633 -132 l 244 -132 z "},"S":{"ha":836,"x_min":54,"x_max":785,"o":"m 707 856 q 648 909 678 888 q 585 943 618 931 q 516 961 553 956 q 435 967 479 967 q 191 902 267 967 q 115 731 115 838 q 147 619 115 660 q 248 553 179 578 q 426 507 317 529 q 617 456 536 485 q 741 378 697 428 q 785 242 785 329 q 761 135 785 182 q 692 58 738 89 q 583 10 647 26 q 438 -7 518 -7 q 291 10 358 -7 q 165 60 224 26 q 54 146 107 94 l 75 164 q 153 97 113 125 q 238 51 193 69 q 333 25 283 33 q 439 17 383 17 q 672 72 586 17 q 757 238 757 128 q 722 356 757 311 q 615 430 688 401 q 428 481 542 458 q 243 527 319 501 q 127 599 167 553 q 88 728 88 646 q 130 873 88 814 q 250 963 172 932 q 432 993 328 993 q 547 981 494 993 q 642 944 599 969 q 725 875 686 918 l 707 856 z "},"Ś":{"ha":836,"x_min":54,"x_max":785,"o":"m 707 856 q 648 909 678 888 q 585 943 618 931 q 516 961 553 956 q 435 967 479 967 q 191 902 267 967 q 115 731 115 838 q 147 619 115 660 q 248 553 179 578 q 426 507 317 529 q 617 456 536 485 q 741 378 697 428 q 785 242 785 329 q 761 135 785 182 q 692 58 738 89 q 583 10 647 26 q 438 -7 518 -7 q 291 10 358 -7 q 165 60 224 26 q 54 146 107 94 l 75 164 q 153 97 113 125 q 238 51 193 69 q 333 25 283 33 q 439 17 383 17 q 672 72 586 17 q 757 238 757 128 q 722 356 757 311 q 615 430 688 401 q 428 481 542 458 q 243 527 319 501 q 127 599 167 553 q 88 728 88 646 q 130 873 88 814 q 250 963 172 932 q 432 993 328 993 q 547 981 494 993 q 642 944 599 969 q 725 875 686 918 l 707 856 m 443 1188 l 421 1204 l 510 1306 l 557 1306 l 443 1188 z "},"Ṥ":{"ha":836,"x_min":54,"x_max":785,"o":"m 707 856 q 648 909 678 888 q 585 943 618 931 q 516 961 553 956 q 435 967 479 967 q 191 902 267 967 q 115 731 115 838 q 147 619 115 660 q 248 553 179 578 q 426 507 317 529 q 617 456 536 485 q 741 378 697 428 q 785 242 785 329 q 761 135 785 182 q 692 58 738 89 q 583 10 647 26 q 438 -7 518 -7 q 291 10 358 -7 q 165 60 224 26 q 54 146 107 94 l 75 164 q 153 97 113 125 q 238 51 193 69 q 333 25 283 33 q 439 17 383 17 q 672 72 586 17 q 757 238 757 128 q 722 356 757 311 q 615 430 688 401 q 428 481 542 458 q 243 527 319 501 q 127 599 167 553 q 88 728 88 646 q 130 873 88 814 q 250 963 172 932 q 432 993 328 993 q 547 981 494 993 q 642 944 599 969 q 725 875 686 918 l 707 856 m 443 1188 l 421 1204 l 510 1306 l 557 1306 l 443 1188 m 475 1492 l 475 1599 l 503 1599 l 503 1492 l 475 1492 z "},"Š":{"ha":836,"x_min":54,"x_max":785,"o":"m 707 856 q 648 909 678 888 q 585 943 618 931 q 516 961 553 956 q 435 967 479 967 q 191 902 267 967 q 115 731 115 838 q 147 619 115 660 q 248 553 179 578 q 426 507 317 529 q 617 456 536 485 q 741 378 697 428 q 785 242 785 329 q 761 135 785 182 q 692 58 738 89 q 583 10 647 26 q 438 -7 518 -7 q 291 10 358 -7 q 165 60 224 26 q 54 146 107 94 l 75 164 q 153 97 113 125 q 238 51 193 69 q 333 25 283 33 q 439 17 383 17 q 672 72 586 17 q 757 238 757 128 q 722 356 757 311 q 615 430 688 401 q 428 481 542 458 q 243 527 319 501 q 127 599 167 553 q 88 728 88 646 q 130 873 88 814 q 250 963 172 932 q 432 993 328 993 q 547 981 494 993 q 642 944 599 969 q 725 875 686 918 l 707 856 m 317 1306 l 435 1218 l 553 1306 l 575 1289 l 446 1186 l 424 1186 l 294 1289 l 317 1306 z "},"Ṧ":{"ha":836,"x_min":54,"x_max":785,"o":"m 707 856 q 648 909 678 888 q 585 943 618 931 q 516 961 553 956 q 435 967 479 967 q 191 902 267 967 q 115 731 115 838 q 147 619 115 660 q 248 553 179 578 q 426 507 317 529 q 617 456 536 485 q 741 378 697 428 q 785 242 785 329 q 761 135 785 182 q 692 58 738 89 q 583 10 647 26 q 438 -7 518 -7 q 291 10 358 -7 q 165 60 224 26 q 54 146 107 94 l 75 164 q 153 97 113 125 q 238 51 193 69 q 333 25 283 33 q 439 17 383 17 q 672 72 586 17 q 757 238 757 128 q 722 356 757 311 q 615 430 688 401 q 428 481 542 458 q 243 527 319 501 q 127 599 167 553 q 88 728 88 646 q 130 873 88 814 q 250 963 172 932 q 432 993 328 993 q 547 981 494 993 q 642 944 599 969 q 725 875 686 918 l 707 856 m 317 1306 l 435 1218 l 553 1306 l 575 1289 l 446 1186 l 424 1186 l 294 1289 l 317 1306 m 421 1492 l 421 1599 l 449 1599 l 449 1492 l 421 1492 z "},"Ş":{"ha":836,"x_min":54,"x_max":785,"o":"m 707 856 q 648 909 678 888 q 585 943 618 931 q 516 961 553 956 q 435 967 479 967 q 191 902 267 967 q 115 731 115 838 q 147 619 115 660 q 248 553 179 578 q 426 507 317 529 q 617 456 536 485 q 741 378 697 428 q 785 242 785 329 q 761 135 785 182 q 692 58 738 89 q 583 10 647 26 q 438 -7 518 -7 q 291 10 358 -7 q 165 60 224 26 q 54 146 107 94 l 75 164 q 153 97 113 125 q 238 51 193 69 q 333 25 283 33 q 439 17 383 17 q 672 72 586 17 q 757 238 757 128 q 722 356 757 311 q 615 430 688 401 q 428 481 542 458 q 243 527 319 501 q 127 599 167 553 q 88 728 88 646 q 130 873 88 814 q 250 963 172 932 q 432 993 328 993 q 547 981 494 993 q 642 944 599 969 q 725 875 686 918 l 707 856 m 418 -228 q 342 -219 383 -228 q 265 -193 301 -211 l 281 -169 q 344 -193 314 -183 q 414 -203 375 -203 q 497 -183 468 -203 q 525 -125 525 -164 q 498 -56 525 -85 q 418 0 471 -28 l 446 11 q 524 -48 496 -17 q 553 -125 553 -79 q 515 -203 553 -179 q 418 -228 476 -228 z "},"Ŝ":{"ha":836,"x_min":54,"x_max":785,"o":"m 707 856 q 648 909 678 888 q 585 943 618 931 q 516 961 553 956 q 435 967 479 967 q 191 902 267 967 q 115 731 115 838 q 147 619 115 660 q 248 553 179 578 q 426 507 317 529 q 617 456 536 485 q 741 378 697 428 q 785 242 785 329 q 761 135 785 182 q 692 58 738 89 q 583 10 647 26 q 438 -7 518 -7 q 291 10 358 -7 q 165 60 224 26 q 54 146 107 94 l 75 164 q 153 97 113 125 q 238 51 193 69 q 333 25 283 33 q 439 17 383 17 q 672 72 586 17 q 757 238 757 128 q 722 356 757 311 q 615 430 688 401 q 428 481 542 458 q 243 527 319 501 q 127 599 167 553 q 88 728 88 646 q 130 873 88 814 q 250 963 172 932 q 432 993 328 993 q 547 981 494 993 q 642 944 599 969 q 725 875 686 918 l 707 856 m 294 1203 l 424 1306 l 446 1306 l 575 1203 l 553 1186 l 435 1274 l 317 1186 l 294 1203 z "},"Ș":{"ha":836,"x_min":54,"x_max":785,"o":"m 707 856 q 648 909 678 888 q 585 943 618 931 q 516 961 553 956 q 435 967 479 967 q 191 902 267 967 q 115 731 115 838 q 147 619 115 660 q 248 553 179 578 q 426 507 317 529 q 617 456 536 485 q 741 378 697 428 q 785 242 785 329 q 761 135 785 182 q 692 58 738 89 q 583 10 647 26 q 438 -7 518 -7 q 291 10 358 -7 q 165 60 224 26 q 54 146 107 94 l 75 164 q 153 97 113 125 q 238 51 193 69 q 333 25 283 33 q 439 17 383 17 q 672 72 586 17 q 757 238 757 128 q 722 356 757 311 q 615 430 688 401 q 428 481 542 458 q 243 527 319 501 q 127 599 167 553 q 88 728 88 646 q 130 873 88 814 q 250 963 172 932 q 432 993 328 993 q 547 981 494 993 q 642 944 599 969 q 725 875 686 918 l 707 856 m 408 -232 l 422 -151 l 410 -151 l 410 -69 l 446 -69 l 446 -151 l 428 -232 l 408 -232 z "},"Ṡ":{"ha":836,"x_min":54,"x_max":785,"o":"m 707 856 q 648 909 678 888 q 585 943 618 931 q 516 961 553 956 q 435 967 479 967 q 191 902 267 967 q 115 731 115 838 q 147 619 115 660 q 248 553 179 578 q 426 507 317 529 q 617 456 536 485 q 741 378 697 428 q 785 242 785 329 q 761 135 785 182 q 692 58 738 89 q 583 10 647 26 q 438 -7 518 -7 q 291 10 358 -7 q 165 60 224 26 q 54 146 107 94 l 75 164 q 153 97 113 125 q 238 51 193 69 q 333 25 283 33 q 439 17 383 17 q 672 72 586 17 q 757 238 757 128 q 722 356 757 311 q 615 430 688 401 q 428 481 542 458 q 243 527 319 501 q 127 599 167 553 q 88 728 88 646 q 130 873 88 814 q 250 963 172 932 q 432 993 328 993 q 547 981 494 993 q 642 944 599 969 q 725 875 686 918 l 707 856 m 421 1199 l 421 1306 l 449 1306 l 449 1199 l 421 1199 z "},"Ṣ":{"ha":836,"x_min":54,"x_max":785,"o":"m 707 856 q 648 909 678 888 q 585 943 618 931 q 516 961 553 956 q 435 967 479 967 q 191 902 267 967 q 115 731 115 838 q 147 619 115 660 q 248 553 179 578 q 426 507 317 529 q 617 456 536 485 q 741 378 697 428 q 785 242 785 329 q 761 135 785 182 q 692 58 738 89 q 583 10 647 26 q 438 -7 518 -7 q 291 10 358 -7 q 165 60 224 26 q 54 146 107 94 l 75 164 q 153 97 113 125 q 238 51 193 69 q 333 25 283 33 q 439 17 383 17 q 672 72 586 17 q 757 238 757 128 q 722 356 757 311 q 615 430 688 401 q 428 481 542 458 q 243 527 319 501 q 127 599 167 553 q 88 728 88 646 q 130 873 88 814 q 250 963 172 932 q 432 993 328 993 q 547 981 494 993 q 642 944 599 969 q 725 875 686 918 l 707 856 m 418 -176 l 418 -69 l 446 -69 l 446 -176 l 418 -176 z "},"Ṩ":{"ha":836,"x_min":54,"x_max":785,"o":"m 707 856 q 648 909 678 888 q 585 943 618 931 q 516 961 553 956 q 435 967 479 967 q 191 902 267 967 q 115 731 115 838 q 147 619 115 660 q 248 553 179 578 q 426 507 317 529 q 617 456 536 485 q 741 378 697 428 q 785 242 785 329 q 761 135 785 182 q 692 58 738 89 q 583 10 647 26 q 438 -7 518 -7 q 291 10 358 -7 q 165 60 224 26 q 54 146 107 94 l 75 164 q 153 97 113 125 q 238 51 193 69 q 333 25 283 33 q 439 17 383 17 q 672 72 586 17 q 757 238 757 128 q 722 356 757 311 q 615 430 688 401 q 428 481 542 458 q 243 527 319 501 q 127 599 167 553 q 88 728 88 646 q 130 873 88 814 q 250 963 172 932 q 432 993 328 993 q 547 981 494 993 q 642 944 599 969 q 725 875 686 918 l 707 856 m 418 -176 l 418 -69 l 446 -69 l 446 -176 l 418 -176 m 421 1199 l 421 1306 l 449 1306 l 449 1199 l 421 1199 z "},"ẞ":{"ha":821,"x_min":117,"x_max":761,"o":"m 493 -14 q 342 15 411 -14 q 218 103 272 43 l 239 121 q 356 40 294 67 q 493 14 417 14 q 667 60 600 14 q 733 189 733 107 q 705 271 733 242 q 620 319 676 300 q 482 357 564 338 q 359 392 408 375 q 285 440 310 410 q 261 525 261 469 q 296 637 261 594 q 392 703 331 679 q 533 742 453 728 q 701 765 613 756 l 696 749 q 662 863 694 815 q 574 938 629 911 q 449 964 519 964 q 291 922 360 964 q 183 803 222 879 q 144 624 144 726 l 144 0 l 117 0 l 117 624 q 141 774 117 707 q 210 890 165 842 q 317 965 256 939 q 453 992 379 992 q 588 963 531 992 q 680 883 646 933 q 722 764 714 832 l 725 742 q 553 719 632 732 q 415 684 474 707 q 322 624 356 661 q 289 528 289 586 q 311 456 289 482 q 376 415 333 431 q 483 385 419 400 q 632 344 569 365 q 728 290 694 324 q 761 193 761 256 q 688 42 761 99 q 493 -14 614 -14 z "},"Ə":{"ha":1026,"x_min":46,"x_max":960,"o":"m 508 -14 q 326 25 410 -14 q 178 133 242 64 q 81 293 115 201 q 46 489 46 385 q 46 497 46 493 q 46 503 46 500 l 929 503 q 886 685 922 601 q 791 832 850 769 q 657 929 732 894 q 496 964 582 964 q 352 938 422 964 q 228 863 282 911 q 147 749 174 814 l 119 761 q 203 880 146 828 q 338 963 261 932 q 499 993 415 993 q 676 953 593 993 q 824 842 760 913 q 924 678 888 771 q 960 481 960 586 q 925 288 960 378 q 828 131 890 199 q 684 24 765 63 q 508 -14 603 -14 m 506 17 q 715 76 621 17 q 866 239 808 136 q 929 472 924 342 l 78 472 q 145 236 88 339 q 297 75 203 133 q 506 17 390 17 z "},"T":{"ha":833,"x_min":25,"x_max":808,"o":"m 808 958 l 431 958 l 431 0 l 403 0 l 403 958 l 25 958 l 25 986 l 808 986 l 808 958 z "},"Ŧ":{"ha":889,"x_min":53,"x_max":836,"o":"m 108 426 l 108 454 l 781 454 l 781 426 l 108 426 m 836 958 l 458 958 l 458 0 l 431 0 l 431 958 l 53 958 l 53 986 l 836 986 l 836 958 z "},"Ť":{"ha":833,"x_min":25,"x_max":808,"o":"m 808 958 l 431 958 l 431 0 l 403 0 l 403 958 l 25 958 l 25 986 l 808 986 l 808 958 m 299 1275 l 417 1188 l 535 1275 l 557 1258 l 428 1156 l 406 1156 l 276 1258 l 299 1275 z "},"Ţ":{"ha":833,"x_min":25,"x_max":808,"o":"m 808 958 l 431 958 l 431 0 l 403 0 l 403 958 l 25 958 l 25 986 l 808 986 l 808 958 m 403 -228 q 327 -219 368 -228 q 250 -193 286 -211 l 265 -169 q 329 -193 299 -183 q 399 -203 360 -203 q 481 -183 453 -203 q 510 -125 510 -164 q 483 -56 510 -85 q 403 0 456 -28 l 431 11 q 509 -48 481 -17 q 538 -125 538 -79 q 499 -203 538 -179 q 403 -228 461 -228 z "},"Ț":{"ha":833,"x_min":25,"x_max":808,"o":"m 808 958 l 431 958 l 431 0 l 403 0 l 403 958 l 25 958 l 25 986 l 808 986 l 808 958 m 393 -232 l 407 -151 l 394 -151 l 394 -69 l 431 -69 l 431 -151 l 413 -232 l 393 -232 z "},"Ṭ":{"ha":833,"x_min":25,"x_max":808,"o":"m 808 958 l 431 958 l 431 0 l 403 0 l 403 958 l 25 958 l 25 986 l 808 986 l 808 958 m 403 -176 l 403 -69 l 431 -69 l 431 -176 l 403 -176 z "},"Ṯ":{"ha":833,"x_min":25,"x_max":808,"o":"m 808 958 l 431 958 l 431 0 l 403 0 l 403 958 l 25 958 l 25 986 l 808 986 l 808 958 m 222 -132 l 222 -104 l 611 -104 l 611 -132 l 222 -132 z "},"U":{"ha":1050,"x_min":122,"x_max":929,"o":"m 526 -7 q 331 35 410 -7 q 207 150 253 78 q 142 311 161 222 q 122 493 122 400 l 122 986 l 150 986 l 150 493 q 168 319 150 404 q 228 167 186 235 q 343 60 271 100 q 525 21 415 21 q 710 62 636 21 q 825 171 783 103 q 884 323 867 239 q 901 493 901 407 l 901 986 l 929 986 l 929 493 q 908 306 929 396 q 841 145 888 215 q 717 34 794 75 q 526 -7 640 -7 z "},"Ú":{"ha":1050,"x_min":122,"x_max":929,"o":"m 526 -7 q 331 35 410 -7 q 207 150 253 78 q 142 311 161 222 q 122 493 122 400 l 122 986 l 150 986 l 150 493 q 168 319 150 404 q 228 167 186 235 q 343 60 271 100 q 525 21 415 21 q 710 62 636 21 q 825 171 783 103 q 884 323 867 239 q 901 493 901 407 l 901 986 l 929 986 l 929 493 q 908 306 929 396 q 841 145 888 215 q 717 34 794 75 q 526 -7 640 -7 m 535 1157 l 513 1174 l 601 1275 l 649 1275 l 535 1157 z "},"Ŭ":{"ha":1050,"x_min":122,"x_max":929,"o":"m 526 -7 q 331 35 410 -7 q 207 150 253 78 q 142 311 161 222 q 122 493 122 400 l 122 986 l 150 986 l 150 493 q 168 319 150 404 q 228 167 186 235 q 343 60 271 100 q 525 21 415 21 q 710 62 636 21 q 825 171 783 103 q 884 323 867 239 q 901 493 901 407 l 901 986 l 929 986 l 929 493 q 908 306 929 396 q 841 145 888 215 q 717 34 794 75 q 526 -7 640 -7 m 526 1192 q 577 1216 554 1192 q 604 1275 600 1240 l 629 1275 q 598 1200 629 1232 q 526 1168 567 1168 q 455 1200 486 1168 q 424 1275 424 1232 l 450 1275 q 474 1218 450 1244 q 526 1192 497 1192 z "},"Û":{"ha":1050,"x_min":122,"x_max":929,"o":"m 526 -7 q 331 35 410 -7 q 207 150 253 78 q 142 311 161 222 q 122 493 122 400 l 122 986 l 150 986 l 150 493 q 168 319 150 404 q 228 167 186 235 q 343 60 271 100 q 525 21 415 21 q 710 62 636 21 q 825 171 783 103 q 884 323 867 239 q 901 493 901 407 l 901 986 l 929 986 l 929 493 q 908 306 929 396 q 841 145 888 215 q 717 34 794 75 q 526 -7 640 -7 m 386 1172 l 515 1275 l 538 1275 l 667 1172 l 644 1156 l 526 1243 l 408 1156 l 386 1172 z "},"Ȕ":{"ha":1050,"x_min":122,"x_max":929,"o":"m 526 -7 q 331 35 410 -7 q 207 150 253 78 q 142 311 161 222 q 122 493 122 400 l 122 986 l 150 986 l 150 493 q 168 319 150 404 q 228 167 186 235 q 343 60 271 100 q 525 21 415 21 q 710 62 636 21 q 825 171 783 103 q 884 323 867 239 q 901 493 901 407 l 901 986 l 929 986 l 929 493 q 908 306 929 396 q 841 145 888 215 q 717 34 794 75 q 526 -7 640 -7 m 485 1275 l 532 1275 l 621 1174 l 599 1157 l 485 1275 m 346 1275 l 393 1275 l 482 1174 l 460 1157 l 346 1275 z "},"Ü":{"ha":1050,"x_min":122,"x_max":929,"o":"m 526 -7 q 331 35 410 -7 q 207 150 253 78 q 142 311 161 222 q 122 493 122 400 l 122 986 l 150 986 l 150 493 q 168 319 150 404 q 228 167 186 235 q 343 60 271 100 q 525 21 415 21 q 710 62 636 21 q 825 171 783 103 q 884 323 867 239 q 901 493 901 407 l 901 986 l 929 986 l 929 493 q 908 306 929 396 q 841 145 888 215 q 717 34 794 75 q 526 -7 640 -7 m 432 1168 l 432 1275 l 460 1275 l 460 1168 l 432 1168 m 593 1168 l 593 1275 l 621 1275 l 621 1168 l 593 1168 z "},"Ụ":{"ha":1050,"x_min":122,"x_max":929,"o":"m 526 -7 q 331 35 410 -7 q 207 150 253 78 q 142 311 161 222 q 122 493 122 400 l 122 986 l 150 986 l 150 493 q 168 319 150 404 q 228 167 186 235 q 343 60 271 100 q 525 21 415 21 q 710 62 636 21 q 825 171 783 103 q 884 323 867 239 q 901 493 901 407 l 901 986 l 929 986 l 929 493 q 908 306 929 396 q 841 145 888 215 q 717 34 794 75 q 526 -7 640 -7 m 513 -176 l 513 -69 l 540 -69 l 540 -176 l 513 -176 z "},"Ù":{"ha":1050,"x_min":122,"x_max":929,"o":"m 526 -7 q 331 35 410 -7 q 207 150 253 78 q 142 311 161 222 q 122 493 122 400 l 122 986 l 150 986 l 150 493 q 168 319 150 404 q 228 167 186 235 q 343 60 271 100 q 525 21 415 21 q 710 62 636 21 q 825 171 783 103 q 884 323 867 239 q 901 493 901 407 l 901 986 l 929 986 l 929 493 q 908 306 929 396 q 841 145 888 215 q 717 34 794 75 q 526 -7 640 -7 m 432 1275 l 478 1275 l 568 1174 l 546 1157 l 432 1275 z "},"Ủ":{"ha":1050,"x_min":122,"x_max":929,"o":"m 526 -7 q 331 35 410 -7 q 207 150 253 78 q 142 311 161 222 q 122 493 122 400 l 122 986 l 150 986 l 150 493 q 168 319 150 404 q 228 167 186 235 q 343 60 271 100 q 525 21 415 21 q 710 62 636 21 q 825 171 783 103 q 884 323 867 239 q 901 493 901 407 l 901 986 l 929 986 l 929 493 q 908 306 929 396 q 841 145 888 215 q 717 34 794 75 q 526 -7 640 -7 m 460 1208 l 443 1226 q 484 1257 465 1246 q 529 1268 503 1268 q 585 1247 563 1268 q 608 1189 608 1226 q 592 1143 608 1163 q 553 1096 576 1124 l 536 1111 q 571 1154 558 1136 q 583 1189 583 1172 q 570 1227 583 1211 q 526 1243 557 1243 q 494 1235 508 1243 q 460 1208 481 1226 z "},"Ư":{"ha":1050,"x_min":122,"x_max":1072,"o":"m 526 -7 q 331 35 410 -7 q 207 150 253 78 q 142 311 161 222 q 122 493 122 400 l 122 986 l 150 986 l 150 493 q 168 319 150 404 q 228 167 186 235 q 343 60 271 100 q 525 21 415 21 q 710 62 636 21 q 825 171 783 103 q 884 323 867 239 q 901 493 901 407 l 901 986 l 929 986 l 929 493 q 908 306 929 396 q 841 145 888 215 q 717 34 794 75 q 526 -7 640 -7 m 907 958 l 907 986 q 974 994 943 986 q 1019 1018 1006 1003 q 1035 1051 1031 1031 q 1042 1103 1040 1072 l 1072 1103 q 1068 1060 1071 1078 q 1060 1028 1065 1042 q 1042 1000 1054 1015 q 1010 978 1031 988 q 962 963 989 968 q 907 958 935 958 z "},"Ứ":{"ha":1050,"x_min":122,"x_max":1072,"o":"m 526 -7 q 331 35 410 -7 q 207 150 253 78 q 142 311 161 222 q 122 493 122 400 l 122 986 l 150 986 l 150 493 q 168 319 150 404 q 228 167 186 235 q 343 60 271 100 q 525 21 415 21 q 710 62 636 21 q 825 171 783 103 q 884 323 867 239 q 901 493 901 407 l 901 986 l 929 986 l 929 493 q 908 306 929 396 q 841 145 888 215 q 717 34 794 75 q 526 -7 640 -7 m 907 958 l 907 986 q 974 994 943 986 q 1019 1018 1006 1003 q 1035 1051 1031 1031 q 1042 1103 1040 1072 l 1072 1103 q 1068 1060 1071 1078 q 1060 1028 1065 1042 q 1042 1000 1054 1015 q 1010 978 1031 988 q 962 963 989 968 q 907 958 935 958 m 535 1157 l 513 1174 l 601 1275 l 649 1275 l 535 1157 z "},"Ự":{"ha":1050,"x_min":122,"x_max":1072,"o":"m 526 -7 q 331 35 410 -7 q 207 150 253 78 q 142 311 161 222 q 122 493 122 400 l 122 986 l 150 986 l 150 493 q 168 319 150 404 q 228 167 186 235 q 343 60 271 100 q 525 21 415 21 q 710 62 636 21 q 825 171 783 103 q 884 323 867 239 q 901 493 901 407 l 901 986 l 929 986 l 929 493 q 908 306 929 396 q 841 145 888 215 q 717 34 794 75 q 526 -7 640 -7 m 907 958 l 907 986 q 974 994 943 986 q 1019 1018 1006 1003 q 1035 1051 1031 1031 q 1042 1103 1040 1072 l 1072 1103 q 1068 1060 1071 1078 q 1060 1028 1065 1042 q 1042 1000 1054 1015 q 1010 978 1031 988 q 962 963 989 968 q 907 958 935 958 m 513 -176 l 513 -69 l 540 -69 l 540 -176 l 513 -176 z "},"Ừ":{"ha":1050,"x_min":122,"x_max":1072,"o":"m 526 -7 q 331 35 410 -7 q 207 150 253 78 q 142 311 161 222 q 122 493 122 400 l 122 986 l 150 986 l 150 493 q 168 319 150 404 q 228 167 186 235 q 343 60 271 100 q 525 21 415 21 q 710 62 636 21 q 825 171 783 103 q 884 323 867 239 q 901 493 901 407 l 901 986 l 929 986 l 929 493 q 908 306 929 396 q 841 145 888 215 q 717 34 794 75 q 526 -7 640 -7 m 907 958 l 907 986 q 974 994 943 986 q 1019 1018 1006 1003 q 1035 1051 1031 1031 q 1042 1103 1040 1072 l 1072 1103 q 1068 1060 1071 1078 q 1060 1028 1065 1042 q 1042 1000 1054 1015 q 1010 978 1031 988 q 962 963 989 968 q 907 958 935 958 m 432 1275 l 478 1275 l 568 1174 l 546 1157 l 432 1275 z "},"Ử":{"ha":1050,"x_min":122,"x_max":1072,"o":"m 526 -7 q 331 35 410 -7 q 207 150 253 78 q 142 311 161 222 q 122 493 122 400 l 122 986 l 150 986 l 150 493 q 168 319 150 404 q 228 167 186 235 q 343 60 271 100 q 525 21 415 21 q 710 62 636 21 q 825 171 783 103 q 884 323 867 239 q 901 493 901 407 l 901 986 l 929 986 l 929 493 q 908 306 929 396 q 841 145 888 215 q 717 34 794 75 q 526 -7 640 -7 m 907 958 l 907 986 q 974 994 943 986 q 1019 1018 1006 1003 q 1035 1051 1031 1031 q 1042 1103 1040 1072 l 1072 1103 q 1068 1060 1071 1078 q 1060 1028 1065 1042 q 1042 1000 1054 1015 q 1010 978 1031 988 q 962 963 989 968 q 907 958 935 958 m 460 1208 l 443 1226 q 484 1257 465 1246 q 529 1268 503 1268 q 585 1247 563 1268 q 608 1189 608 1226 q 592 1143 608 1163 q 553 1096 576 1124 l 536 1111 q 571 1154 558 1136 q 583 1189 583 1172 q 570 1227 583 1211 q 526 1243 557 1243 q 494 1235 508 1243 q 460 1208 481 1226 z "},"Ữ":{"ha":1050,"x_min":122,"x_max":1072,"o":"m 526 -7 q 331 35 410 -7 q 207 150 253 78 q 142 311 161 222 q 122 493 122 400 l 122 986 l 150 986 l 150 493 q 168 319 150 404 q 228 167 186 235 q 343 60 271 100 q 525 21 415 21 q 710 62 636 21 q 825 171 783 103 q 884 323 867 239 q 901 493 901 407 l 901 986 l 929 986 l 929 493 q 908 306 929 396 q 841 145 888 215 q 717 34 794 75 q 526 -7 640 -7 m 907 958 l 907 986 q 974 994 943 986 q 1019 1018 1006 1003 q 1035 1051 1031 1031 q 1042 1103 1040 1072 l 1072 1103 q 1068 1060 1071 1078 q 1060 1028 1065 1042 q 1042 1000 1054 1015 q 1010 978 1031 988 q 962 963 989 968 q 907 958 935 958 m 606 1182 q 537 1195 565 1182 q 485 1222 508 1208 q 432 1235 461 1235 q 388 1220 403 1235 q 367 1189 372 1206 q 361 1168 361 1172 l 333 1168 q 337 1185 333 1171 q 350 1217 340 1200 q 380 1248 360 1235 q 435 1261 400 1261 q 497 1248 471 1261 q 548 1222 522 1235 q 608 1208 574 1208 q 664 1224 647 1208 q 685 1256 681 1239 q 690 1275 690 1272 l 718 1275 q 715 1256 718 1271 q 700 1224 711 1240 q 666 1194 689 1207 q 606 1182 643 1182 z "},"Ű":{"ha":1050,"x_min":122,"x_max":929,"o":"m 526 -7 q 331 35 410 -7 q 207 150 253 78 q 142 311 161 222 q 122 493 122 400 l 122 986 l 150 986 l 150 493 q 168 319 150 404 q 228 167 186 235 q 343 60 271 100 q 525 21 415 21 q 710 62 636 21 q 825 171 783 103 q 884 323 867 239 q 901 493 901 407 l 901 986 l 929 986 l 929 493 q 908 306 929 396 q 841 145 888 215 q 717 34 794 75 q 526 -7 640 -7 m 438 1157 l 415 1174 l 504 1275 l 551 1275 l 438 1157 m 576 1157 l 554 1174 l 643 1275 l 690 1275 l 576 1157 z "},"Ȗ":{"ha":1050,"x_min":122,"x_max":929,"o":"m 526 -7 q 331 35 410 -7 q 207 150 253 78 q 142 311 161 222 q 122 493 122 400 l 122 986 l 150 986 l 150 493 q 168 319 150 404 q 228 167 186 235 q 343 60 271 100 q 525 21 415 21 q 710 62 636 21 q 825 171 783 103 q 884 323 867 239 q 901 493 901 407 l 901 986 l 929 986 l 929 493 q 908 306 929 396 q 841 145 888 215 q 717 34 794 75 q 526 -7 640 -7 m 526 1251 q 474 1226 497 1251 q 450 1168 450 1200 l 424 1168 q 455 1243 424 1211 q 526 1275 486 1275 q 598 1243 567 1275 q 629 1168 629 1211 l 604 1168 q 577 1227 600 1203 q 526 1251 554 1251 z "},"Ū":{"ha":1050,"x_min":122,"x_max":929,"o":"m 526 -7 q 331 35 410 -7 q 207 150 253 78 q 142 311 161 222 q 122 493 122 400 l 122 986 l 150 986 l 150 493 q 168 319 150 404 q 228 167 186 235 q 343 60 271 100 q 525 21 415 21 q 710 62 636 21 q 825 171 783 103 q 884 323 867 239 q 901 493 901 407 l 901 986 l 929 986 l 929 493 q 908 306 929 396 q 841 145 888 215 q 717 34 794 75 q 526 -7 640 -7 m 332 1214 l 332 1242 l 721 1242 l 721 1214 l 332 1214 z "},"Ṻ":{"ha":1050,"x_min":122,"x_max":929,"o":"m 526 -7 q 331 35 410 -7 q 207 150 253 78 q 142 311 161 222 q 122 493 122 400 l 122 986 l 150 986 l 150 493 q 168 319 150 404 q 228 167 186 235 q 343 60 271 100 q 525 21 415 21 q 710 62 636 21 q 825 171 783 103 q 884 323 867 239 q 901 493 901 407 l 901 986 l 929 986 l 929 493 q 908 306 929 396 q 841 145 888 215 q 717 34 794 75 q 526 -7 640 -7 m 332 1214 l 332 1242 l 721 1242 l 721 1214 l 332 1214 m 432 1428 l 432 1535 l 460 1535 l 460 1428 l 432 1428 m 593 1428 l 593 1535 l 621 1535 l 621 1428 l 593 1428 z "},"Ų":{"ha":1050,"x_min":122,"x_max":929,"o":"m 526 -7 q 331 35 410 -7 q 207 150 253 78 q 142 311 161 222 q 122 493 122 400 l 122 986 l 150 986 l 150 493 q 168 319 150 404 q 228 167 186 235 q 343 60 271 100 q 525 21 415 21 q 710 62 636 21 q 825 171 783 103 q 884 323 867 239 q 901 493 901 407 l 901 986 l 929 986 l 929 493 q 908 306 929 396 q 841 145 888 215 q 717 34 794 75 q 526 -7 640 -7 m 471 -139 q 500 -64 471 -101 q 585 17 529 -26 l 592 17 l 606 0 q 525 -74 550 -43 q 500 -135 500 -106 q 522 -176 500 -161 q 600 -204 544 -192 l 583 -228 q 518 -208 543 -219 q 482 -178 493 -196 q 471 -139 471 -161 z "},"Ů":{"ha":1050,"x_min":122,"x_max":929,"o":"m 526 -7 q 331 35 410 -7 q 207 150 253 78 q 142 311 161 222 q 122 493 122 400 l 122 986 l 150 986 l 150 493 q 168 319 150 404 q 228 167 186 235 q 343 60 271 100 q 525 21 415 21 q 710 62 636 21 q 825 171 783 103 q 884 323 867 239 q 901 493 901 407 l 901 986 l 929 986 l 929 493 q 908 306 929 396 q 841 145 888 215 q 717 34 794 75 q 526 -7 640 -7 m 422 1207 q 453 1281 422 1251 q 526 1311 483 1311 q 601 1281 571 1311 q 631 1207 631 1251 q 601 1133 631 1164 q 526 1103 571 1103 q 453 1133 483 1103 q 422 1207 422 1164 m 526 1282 q 474 1262 496 1282 q 451 1207 451 1242 q 474 1154 451 1176 q 526 1132 496 1132 q 578 1153 554 1132 q 601 1207 601 1174 q 579 1262 601 1242 q 526 1282 557 1282 z "},"Ũ":{"ha":1050,"x_min":122,"x_max":929,"o":"m 526 -7 q 331 35 410 -7 q 207 150 253 78 q 142 311 161 222 q 122 493 122 400 l 122 986 l 150 986 l 150 493 q 168 319 150 404 q 228 167 186 235 q 343 60 271 100 q 525 21 415 21 q 710 62 636 21 q 825 171 783 103 q 884 323 867 239 q 901 493 901 407 l 901 986 l 929 986 l 929 493 q 908 306 929 396 q 841 145 888 215 q 717 34 794 75 q 526 -7 640 -7 m 606 1182 q 537 1195 565 1182 q 485 1222 508 1208 q 432 1235 461 1235 q 388 1220 403 1235 q 367 1189 372 1206 q 361 1168 361 1172 l 333 1168 q 337 1185 333 1171 q 350 1217 340 1200 q 380 1248 360 1235 q 435 1261 400 1261 q 497 1248 471 1261 q 548 1222 522 1235 q 608 1208 574 1208 q 664 1224 647 1208 q 685 1256 681 1239 q 690 1275 690 1272 l 718 1275 q 715 1256 718 1271 q 700 1224 711 1240 q 666 1194 689 1207 q 606 1182 643 1182 z "},"Ṹ":{"ha":1050,"x_min":122,"x_max":929,"o":"m 526 -7 q 331 35 410 -7 q 207 150 253 78 q 142 311 161 222 q 122 493 122 400 l 122 986 l 150 986 l 150 493 q 168 319 150 404 q 228 167 186 235 q 343 60 271 100 q 525 21 415 21 q 710 62 636 21 q 825 171 783 103 q 884 323 867 239 q 901 493 901 407 l 901 986 l 929 986 l 929 493 q 908 306 929 396 q 841 145 888 215 q 717 34 794 75 q 526 -7 640 -7 m 606 1182 q 537 1195 565 1182 q 485 1222 508 1208 q 432 1235 461 1235 q 388 1220 403 1235 q 367 1189 372 1206 q 361 1168 361 1172 l 333 1168 q 337 1185 333 1171 q 350 1217 340 1200 q 380 1248 360 1235 q 435 1261 400 1261 q 497 1248 471 1261 q 548 1222 522 1235 q 608 1208 574 1208 q 664 1224 647 1208 q 685 1256 681 1239 q 690 1275 690 1272 l 718 1275 q 715 1256 718 1271 q 700 1224 711 1240 q 666 1194 689 1207 q 606 1182 643 1182 m 535 1450 l 513 1467 l 601 1568 l 649 1568 l 535 1450 z "},"V":{"ha":942,"x_min":26,"x_max":915,"o":"m 56 986 l 471 35 l 885 986 l 915 986 l 486 0 l 456 0 l 26 986 l 56 986 z "},"W":{"ha":1442,"x_min":26,"x_max":1415,"o":"m 529 978 l 560 978 l 719 608 l 881 978 l 911 978 l 735 575 l 971 35 l 1385 986 l 1415 986 l 986 0 l 956 0 l 721 540 l 486 0 l 456 0 l 26 986 l 57 986 l 471 35 l 706 575 l 529 978 z "},"Ẃ":{"ha":1442,"x_min":26,"x_max":1415,"o":"m 529 978 l 560 978 l 719 608 l 881 978 l 911 978 l 735 575 l 971 35 l 1385 986 l 1415 986 l 986 0 l 956 0 l 721 540 l 486 0 l 456 0 l 26 986 l 57 986 l 471 35 l 706 575 l 529 978 m 728 1157 l 706 1174 l 794 1275 l 842 1275 l 728 1157 z "},"Ŵ":{"ha":1442,"x_min":26,"x_max":1415,"o":"m 529 978 l 560 978 l 719 608 l 881 978 l 911 978 l 735 575 l 971 35 l 1385 986 l 1415 986 l 986 0 l 956 0 l 721 540 l 486 0 l 456 0 l 26 986 l 57 986 l 471 35 l 706 575 l 529 978 m 579 1172 l 708 1275 l 731 1275 l 860 1172 l 838 1156 l 719 1243 l 601 1156 l 579 1172 z "},"Ẅ":{"ha":1442,"x_min":26,"x_max":1415,"o":"m 529 978 l 560 978 l 719 608 l 881 978 l 911 978 l 735 575 l 971 35 l 1385 986 l 1415 986 l 986 0 l 956 0 l 721 540 l 486 0 l 456 0 l 26 986 l 57 986 l 471 35 l 706 575 l 529 978 m 625 1168 l 625 1275 l 653 1275 l 653 1168 l 625 1168 m 786 1168 l 786 1275 l 814 1275 l 814 1168 l 786 1168 z "},"Ẁ":{"ha":1442,"x_min":26,"x_max":1415,"o":"m 529 978 l 560 978 l 719 608 l 881 978 l 911 978 l 735 575 l 971 35 l 1385 986 l 1415 986 l 986 0 l 956 0 l 721 540 l 486 0 l 456 0 l 26 986 l 57 986 l 471 35 l 706 575 l 529 978 m 625 1275 l 671 1275 l 761 1174 l 739 1157 l 625 1275 z "},"X":{"ha":863,"x_min":15,"x_max":847,"o":"m 51 986 l 432 508 l 813 986 l 847 986 l 449 486 l 836 0 l 801 0 l 432 464 l 63 0 l 26 0 l 414 486 l 15 986 l 51 986 z "},"Y":{"ha":890,"x_min":32,"x_max":858,"o":"m 64 986 l 444 414 l 826 986 l 858 986 l 458 382 l 458 0 l 431 0 l 431 385 l 32 986 l 64 986 z "},"Ý":{"ha":890,"x_min":32,"x_max":858,"o":"m 64 986 l 444 414 l 826 986 l 858 986 l 458 382 l 458 0 l 431 0 l 431 385 l 32 986 l 64 986 m 453 1157 l 431 1174 l 519 1275 l 567 1275 l 453 1157 z "},"Ŷ":{"ha":890,"x_min":32,"x_max":858,"o":"m 64 986 l 444 414 l 826 986 l 858 986 l 458 382 l 458 0 l 431 0 l 431 385 l 32 986 l 64 986 m 304 1172 l 433 1275 l 456 1275 l 585 1172 l 563 1156 l 444 1243 l 326 1156 l 304 1172 z "},"Ÿ":{"ha":890,"x_min":32,"x_max":858,"o":"m 64 986 l 444 414 l 826 986 l 858 986 l 458 382 l 458 0 l 431 0 l 431 385 l 32 986 l 64 986 m 350 1168 l 350 1275 l 378 1275 l 378 1168 l 350 1168 m 511 1168 l 511 1275 l 539 1275 l 539 1168 l 511 1168 z "},"Ẏ":{"ha":890,"x_min":32,"x_max":858,"o":"m 64 986 l 444 414 l 826 986 l 858 986 l 458 382 l 458 0 l 431 0 l 431 385 l 32 986 l 64 986 m 431 1168 l 431 1275 l 458 1275 l 458 1168 l 431 1168 z "},"Ỵ":{"ha":890,"x_min":32,"x_max":858,"o":"m 64 986 l 444 414 l 826 986 l 858 986 l 458 382 l 458 0 l 431 0 l 431 385 l 32 986 l 64 986 m 432 -176 l 432 -69 l 460 -69 l 460 -176 l 432 -176 z "},"Ỳ":{"ha":890,"x_min":32,"x_max":858,"o":"m 64 986 l 444 414 l 826 986 l 858 986 l 458 382 l 458 0 l 431 0 l 431 385 l 32 986 l 64 986 m 350 1275 l 396 1275 l 486 1174 l 464 1157 l 350 1275 z "},"Ỷ":{"ha":890,"x_min":32,"x_max":858,"o":"m 64 986 l 444 414 l 826 986 l 858 986 l 458 382 l 458 0 l 431 0 l 431 385 l 32 986 l 64 986 m 378 1208 l 361 1226 q 402 1257 383 1246 q 447 1268 421 1268 q 503 1247 481 1268 q 526 1189 526 1226 q 510 1143 526 1163 q 471 1096 494 1124 l 454 1111 q 489 1154 476 1136 q 501 1189 501 1172 q 488 1227 501 1211 q 444 1243 475 1243 q 413 1235 426 1243 q 378 1208 399 1226 z "},"Ȳ":{"ha":890,"x_min":32,"x_max":858,"o":"m 64 986 l 444 414 l 826 986 l 858 986 l 458 382 l 458 0 l 431 0 l 431 385 l 32 986 l 64 986 m 250 1214 l 250 1242 l 639 1242 l 639 1214 l 250 1214 z "},"Ỹ":{"ha":890,"x_min":32,"x_max":858,"o":"m 64 986 l 444 414 l 826 986 l 858 986 l 458 382 l 458 0 l 431 0 l 431 385 l 32 986 l 64 986 m 524 1182 q 455 1195 483 1182 q 403 1222 426 1208 q 350 1235 379 1235 q 306 1220 321 1235 q 285 1189 290 1206 q 279 1168 279 1172 l 251 1168 q 255 1185 251 1171 q 268 1217 258 1200 q 298 1248 278 1235 q 353 1261 318 1261 q 415 1248 389 1261 q 466 1222 440 1235 q 526 1208 492 1208 q 582 1224 565 1208 q 603 1256 599 1239 q 608 1275 608 1272 l 636 1275 q 633 1256 636 1271 q 618 1224 629 1240 q 584 1194 607 1207 q 524 1182 561 1182 z "},"Z":{"ha":867,"x_min":39,"x_max":826,"o":"m 39 28 l 792 958 l 46 958 l 46 986 l 826 986 l 826 958 l 74 28 l 821 28 l 821 0 l 39 0 l 39 28 z "},"Ź":{"ha":867,"x_min":39,"x_max":826,"o":"m 39 28 l 792 958 l 46 958 l 46 986 l 826 986 l 826 958 l 74 28 l 821 28 l 821 0 l 39 0 l 39 28 m 467 1157 l 444 1174 l 533 1275 l 581 1275 l 467 1157 z "},"Ž":{"ha":867,"x_min":39,"x_max":826,"o":"m 39 28 l 792 958 l 46 958 l 46 986 l 826 986 l 826 958 l 74 28 l 821 28 l 821 0 l 39 0 l 39 28 m 340 1275 l 458 1188 l 576 1275 l 599 1258 l 469 1156 l 447 1156 l 318 1258 l 340 1275 z "},"Ż":{"ha":867,"x_min":39,"x_max":826,"o":"m 39 28 l 792 958 l 46 958 l 46 986 l 826 986 l 826 958 l 74 28 l 821 28 l 821 0 l 39 0 l 39 28 m 444 1168 l 444 1275 l 472 1275 l 472 1168 l 444 1168 z "},"Ẓ":{"ha":867,"x_min":39,"x_max":826,"o":"m 39 28 l 792 958 l 46 958 l 46 986 l 826 986 l 826 958 l 74 28 l 821 28 l 821 0 l 39 0 l 39 28 m 419 -176 l 419 -69 l 447 -69 l 447 -176 l 419 -176 z "},"a":{"ha":728,"x_min":54,"x_max":643,"o":"m 54 207 q 92 314 54 268 q 197 386 131 360 q 351 413 264 413 q 477 402 413 413 q 593 372 542 392 l 593 454 q 528 635 593 567 q 357 704 464 704 q 245 681 306 704 q 124 615 185 658 l 107 638 q 239 708 176 685 q 357 732 301 732 q 549 657 478 732 q 621 454 621 582 l 621 56 q 627 35 621 42 q 643 28 633 28 l 643 0 q 631 1 635 0 q 624 3 626 1 q 601 23 610 8 q 593 56 593 38 l 593 122 q 463 22 543 58 q 288 -14 382 -14 q 169 15 222 -14 q 85 95 117 44 q 54 207 54 146 m 572 142 q 588 172 583 157 q 593 199 593 186 l 593 342 q 477 374 538 364 q 351 385 417 385 q 156 336 231 385 q 82 207 82 288 q 109 109 82 153 q 183 40 136 65 q 288 14 231 14 q 458 49 381 14 q 572 142 535 83 z "},"á":{"ha":728,"x_min":54,"x_max":643,"o":"m 54 207 q 92 314 54 268 q 197 386 131 360 q 351 413 264 413 q 477 402 413 413 q 593 372 542 392 l 593 454 q 528 635 593 567 q 357 704 464 704 q 245 681 306 704 q 124 615 185 658 l 107 638 q 239 708 176 685 q 357 732 301 732 q 549 657 478 732 q 621 454 621 582 l 621 56 q 627 35 621 42 q 643 28 633 28 l 643 0 q 631 1 635 0 q 624 3 626 1 q 601 23 610 8 q 593 56 593 38 l 593 122 q 463 22 543 58 q 288 -14 382 -14 q 169 15 222 -14 q 85 95 117 44 q 54 207 54 146 m 572 142 q 588 172 583 157 q 593 199 593 186 l 593 342 q 477 374 538 364 q 351 385 417 385 q 156 336 231 385 q 82 207 82 288 q 109 109 82 153 q 183 40 136 65 q 288 14 231 14 q 458 49 381 14 q 572 142 535 83 m 365 896 l 343 913 l 432 1014 l 479 1014 l 365 896 z "},"ă":{"ha":728,"x_min":54,"x_max":643,"o":"m 54 207 q 92 314 54 268 q 197 386 131 360 q 351 413 264 413 q 477 402 413 413 q 593 372 542 392 l 593 454 q 528 635 593 567 q 357 704 464 704 q 245 681 306 704 q 124 615 185 658 l 107 638 q 239 708 176 685 q 357 732 301 732 q 549 657 478 732 q 621 454 621 582 l 621 56 q 627 35 621 42 q 643 28 633 28 l 643 0 q 631 1 635 0 q 624 3 626 1 q 601 23 610 8 q 593 56 593 38 l 593 122 q 463 22 543 58 q 288 -14 382 -14 q 169 15 222 -14 q 85 95 117 44 q 54 207 54 146 m 572 142 q 588 172 583 157 q 593 199 593 186 l 593 342 q 477 374 538 364 q 351 385 417 385 q 156 336 231 385 q 82 207 82 288 q 109 109 82 153 q 183 40 136 65 q 288 14 231 14 q 458 49 381 14 q 572 142 535 83 m 357 931 q 408 955 385 931 q 435 1014 431 979 l 460 1014 q 428 939 460 971 q 357 907 397 907 q 285 939 317 907 q 254 1014 254 971 l 281 1014 q 304 957 281 983 q 357 931 328 931 z "},"ắ":{"ha":728,"x_min":54,"x_max":643,"o":"m 54 207 q 92 314 54 268 q 197 386 131 360 q 351 413 264 413 q 477 402 413 413 q 593 372 542 392 l 593 454 q 528 635 593 567 q 357 704 464 704 q 245 681 306 704 q 124 615 185 658 l 107 638 q 239 708 176 685 q 357 732 301 732 q 549 657 478 732 q 621 454 621 582 l 621 56 q 627 35 621 42 q 643 28 633 28 l 643 0 q 631 1 635 0 q 624 3 626 1 q 601 23 610 8 q 593 56 593 38 l 593 122 q 463 22 543 58 q 288 -14 382 -14 q 169 15 222 -14 q 85 95 117 44 q 54 207 54 146 m 572 142 q 588 172 583 157 q 593 199 593 186 l 593 342 q 477 374 538 364 q 351 385 417 385 q 156 336 231 385 q 82 207 82 288 q 109 109 82 153 q 183 40 136 65 q 288 14 231 14 q 458 49 381 14 q 572 142 535 83 z "},"ặ":{"ha":728,"x_min":54,"x_max":643,"o":"m 54 207 q 92 314 54 268 q 197 386 131 360 q 351 413 264 413 q 477 402 413 413 q 593 372 542 392 l 593 454 q 528 635 593 567 q 357 704 464 704 q 245 681 306 704 q 124 615 185 658 l 107 638 q 239 708 176 685 q 357 732 301 732 q 549 657 478 732 q 621 454 621 582 l 621 56 q 627 35 621 42 q 643 28 633 28 l 643 0 q 631 1 635 0 q 624 3 626 1 q 601 23 610 8 q 593 56 593 38 l 593 122 q 463 22 543 58 q 288 -14 382 -14 q 169 15 222 -14 q 85 95 117 44 q 54 207 54 146 m 572 142 q 588 172 583 157 q 593 199 593 186 l 593 342 q 477 374 538 364 q 351 385 417 385 q 156 336 231 385 q 82 207 82 288 q 109 109 82 153 q 183 40 136 65 q 288 14 231 14 q 458 49 381 14 q 572 142 535 83 m 360 -176 l 360 -69 l 388 -69 l 388 -176 l 360 -176 m 357 931 q 408 955 385 931 q 435 1014 431 979 l 460 1014 q 428 939 460 971 q 357 907 397 907 q 285 939 317 907 q 254 1014 254 971 l 281 1014 q 304 957 281 983 q 357 931 328 931 z "},"ằ":{"ha":728,"x_min":54,"x_max":643,"o":"m 54 207 q 92 314 54 268 q 197 386 131 360 q 351 413 264 413 q 477 402 413 413 q 593 372 542 392 l 593 454 q 528 635 593 567 q 357 704 464 704 q 245 681 306 704 q 124 615 185 658 l 107 638 q 239 708 176 685 q 357 732 301 732 q 549 657 478 732 q 621 454 621 582 l 621 56 q 627 35 621 42 q 643 28 633 28 l 643 0 q 631 1 635 0 q 624 3 626 1 q 601 23 610 8 q 593 56 593 38 l 593 122 q 463 22 543 58 q 288 -14 382 -14 q 169 15 222 -14 q 85 95 117 44 q 54 207 54 146 m 572 142 q 588 172 583 157 q 593 199 593 186 l 593 342 q 477 374 538 364 q 351 385 417 385 q 156 336 231 385 q 82 207 82 288 q 109 109 82 153 q 183 40 136 65 q 288 14 231 14 q 458 49 381 14 q 572 142 535 83 z "},"ẳ":{"ha":728,"x_min":54,"x_max":643,"o":"m 54 207 q 92 314 54 268 q 197 386 131 360 q 351 413 264 413 q 477 402 413 413 q 593 372 542 392 l 593 454 q 528 635 593 567 q 357 704 464 704 q 245 681 306 704 q 124 615 185 658 l 107 638 q 239 708 176 685 q 357 732 301 732 q 549 657 478 732 q 621 454 621 582 l 621 56 q 627 35 621 42 q 643 28 633 28 l 643 0 q 631 1 635 0 q 624 3 626 1 q 601 23 610 8 q 593 56 593 38 l 593 122 q 463 22 543 58 q 288 -14 382 -14 q 169 15 222 -14 q 85 95 117 44 q 54 207 54 146 m 572 142 q 588 172 583 157 q 593 199 593 186 l 593 342 q 477 374 538 364 q 351 385 417 385 q 156 336 231 385 q 82 207 82 288 q 109 109 82 153 q 183 40 136 65 q 288 14 231 14 q 458 49 381 14 q 572 142 535 83 z "},"ẵ":{"ha":728,"x_min":54,"x_max":643,"o":"m 54 207 q 92 314 54 268 q 197 386 131 360 q 351 413 264 413 q 477 402 413 413 q 593 372 542 392 l 593 454 q 528 635 593 567 q 357 704 464 704 q 245 681 306 704 q 124 615 185 658 l 107 638 q 239 708 176 685 q 357 732 301 732 q 549 657 478 732 q 621 454 621 582 l 621 56 q 627 35 621 42 q 643 28 633 28 l 643 0 q 631 1 635 0 q 624 3 626 1 q 601 23 610 8 q 593 56 593 38 l 593 122 q 463 22 543 58 q 288 -14 382 -14 q 169 15 222 -14 q 85 95 117 44 q 54 207 54 146 m 572 142 q 588 172 583 157 q 593 199 593 186 l 593 342 q 477 374 538 364 q 351 385 417 385 q 156 336 231 385 q 82 207 82 288 q 109 109 82 153 q 183 40 136 65 q 288 14 231 14 q 458 49 381 14 q 572 142 535 83 z "},"â":{"ha":728,"x_min":54,"x_max":643,"o":"m 54 207 q 92 314 54 268 q 197 386 131 360 q 351 413 264 413 q 477 402 413 413 q 593 372 542 392 l 593 454 q 528 635 593 567 q 357 704 464 704 q 245 681 306 704 q 124 615 185 658 l 107 638 q 239 708 176 685 q 357 732 301 732 q 549 657 478 732 q 621 454 621 582 l 621 56 q 627 35 621 42 q 643 28 633 28 l 643 0 q 631 1 635 0 q 624 3 626 1 q 601 23 610 8 q 593 56 593 38 l 593 122 q 463 22 543 58 q 288 -14 382 -14 q 169 15 222 -14 q 85 95 117 44 q 54 207 54 146 m 572 142 q 588 172 583 157 q 593 199 593 186 l 593 342 q 477 374 538 364 q 351 385 417 385 q 156 336 231 385 q 82 207 82 288 q 109 109 82 153 q 183 40 136 65 q 288 14 231 14 q 458 49 381 14 q 572 142 535 83 m 217 911 l 346 1014 l 368 1014 l 497 911 l 475 894 l 357 982 l 239 894 l 217 911 z "},"ấ":{"ha":728,"x_min":54,"x_max":643,"o":"m 54 207 q 92 314 54 268 q 197 386 131 360 q 351 413 264 413 q 477 402 413 413 q 593 372 542 392 l 593 454 q 528 635 593 567 q 357 704 464 704 q 245 681 306 704 q 124 615 185 658 l 107 638 q 239 708 176 685 q 357 732 301 732 q 549 657 478 732 q 621 454 621 582 l 621 56 q 627 35 621 42 q 643 28 633 28 l 643 0 q 631 1 635 0 q 624 3 626 1 q 601 23 610 8 q 593 56 593 38 l 593 122 q 463 22 543 58 q 288 -14 382 -14 q 169 15 222 -14 q 85 95 117 44 q 54 207 54 146 m 572 142 q 588 172 583 157 q 593 199 593 186 l 593 342 q 477 374 538 364 q 351 385 417 385 q 156 336 231 385 q 82 207 82 288 q 109 109 82 153 q 183 40 136 65 q 288 14 231 14 q 458 49 381 14 q 572 142 535 83 z "},"ậ":{"ha":728,"x_min":54,"x_max":643,"o":"m 54 207 q 92 314 54 268 q 197 386 131 360 q 351 413 264 413 q 477 402 413 413 q 593 372 542 392 l 593 454 q 528 635 593 567 q 357 704 464 704 q 245 681 306 704 q 124 615 185 658 l 107 638 q 239 708 176 685 q 357 732 301 732 q 549 657 478 732 q 621 454 621 582 l 621 56 q 627 35 621 42 q 643 28 633 28 l 643 0 q 631 1 635 0 q 624 3 626 1 q 601 23 610 8 q 593 56 593 38 l 593 122 q 463 22 543 58 q 288 -14 382 -14 q 169 15 222 -14 q 85 95 117 44 q 54 207 54 146 m 572 142 q 588 172 583 157 q 593 199 593 186 l 593 342 q 477 374 538 364 q 351 385 417 385 q 156 336 231 385 q 82 207 82 288 q 109 109 82 153 q 183 40 136 65 q 288 14 231 14 q 458 49 381 14 q 572 142 535 83 m 360 -176 l 360 -69 l 388 -69 l 388 -176 l 360 -176 m 217 911 l 346 1014 l 368 1014 l 497 911 l 475 894 l 357 982 l 239 894 l 217 911 z "},"ầ":{"ha":728,"x_min":54,"x_max":643,"o":"m 54 207 q 92 314 54 268 q 197 386 131 360 q 351 413 264 413 q 477 402 413 413 q 593 372 542 392 l 593 454 q 528 635 593 567 q 357 704 464 704 q 245 681 306 704 q 124 615 185 658 l 107 638 q 239 708 176 685 q 357 732 301 732 q 549 657 478 732 q 621 454 621 582 l 621 56 q 627 35 621 42 q 643 28 633 28 l 643 0 q 631 1 635 0 q 624 3 626 1 q 601 23 610 8 q 593 56 593 38 l 593 122 q 463 22 543 58 q 288 -14 382 -14 q 169 15 222 -14 q 85 95 117 44 q 54 207 54 146 m 572 142 q 588 172 583 157 q 593 199 593 186 l 593 342 q 477 374 538 364 q 351 385 417 385 q 156 336 231 385 q 82 207 82 288 q 109 109 82 153 q 183 40 136 65 q 288 14 231 14 q 458 49 381 14 q 572 142 535 83 z "},"ẩ":{"ha":728,"x_min":54,"x_max":643,"o":"m 54 207 q 92 314 54 268 q 197 386 131 360 q 351 413 264 413 q 477 402 413 413 q 593 372 542 392 l 593 454 q 528 635 593 567 q 357 704 464 704 q 245 681 306 704 q 124 615 185 658 l 107 638 q 239 708 176 685 q 357 732 301 732 q 549 657 478 732 q 621 454 621 582 l 621 56 q 627 35 621 42 q 643 28 633 28 l 643 0 q 631 1 635 0 q 624 3 626 1 q 601 23 610 8 q 593 56 593 38 l 593 122 q 463 22 543 58 q 288 -14 382 -14 q 169 15 222 -14 q 85 95 117 44 q 54 207 54 146 m 572 142 q 588 172 583 157 q 593 199 593 186 l 593 342 q 477 374 538 364 q 351 385 417 385 q 156 336 231 385 q 82 207 82 288 q 109 109 82 153 q 183 40 136 65 q 288 14 231 14 q 458 49 381 14 q 572 142 535 83 z "},"ẫ":{"ha":728,"x_min":54,"x_max":643,"o":"m 54 207 q 92 314 54 268 q 197 386 131 360 q 351 413 264 413 q 477 402 413 413 q 593 372 542 392 l 593 454 q 528 635 593 567 q 357 704 464 704 q 245 681 306 704 q 124 615 185 658 l 107 638 q 239 708 176 685 q 357 732 301 732 q 549 657 478 732 q 621 454 621 582 l 621 56 q 627 35 621 42 q 643 28 633 28 l 643 0 q 631 1 635 0 q 624 3 626 1 q 601 23 610 8 q 593 56 593 38 l 593 122 q 463 22 543 58 q 288 -14 382 -14 q 169 15 222 -14 q 85 95 117 44 q 54 207 54 146 m 572 142 q 588 172 583 157 q 593 199 593 186 l 593 342 q 477 374 538 364 q 351 385 417 385 q 156 336 231 385 q 82 207 82 288 q 109 109 82 153 q 183 40 136 65 q 288 14 231 14 q 458 49 381 14 q 572 142 535 83 z "},"ȁ":{"ha":728,"x_min":54,"x_max":643,"o":"m 54 207 q 92 314 54 268 q 197 386 131 360 q 351 413 264 413 q 477 402 413 413 q 593 372 542 392 l 593 454 q 528 635 593 567 q 357 704 464 704 q 245 681 306 704 q 124 615 185 658 l 107 638 q 239 708 176 685 q 357 732 301 732 q 549 657 478 732 q 621 454 621 582 l 621 56 q 627 35 621 42 q 643 28 633 28 l 643 0 q 631 1 635 0 q 624 3 626 1 q 601 23 610 8 q 593 56 593 38 l 593 122 q 463 22 543 58 q 288 -14 382 -14 q 169 15 222 -14 q 85 95 117 44 q 54 207 54 146 m 572 142 q 588 172 583 157 q 593 199 593 186 l 593 342 q 477 374 538 364 q 351 385 417 385 q 156 336 231 385 q 82 207 82 288 q 109 109 82 153 q 183 40 136 65 q 288 14 231 14 q 458 49 381 14 q 572 142 535 83 m 315 1014 l 363 1014 l 451 913 l 429 896 l 315 1014 m 176 1014 l 224 1014 l 313 913 l 290 896 l 176 1014 z "},"ä":{"ha":728,"x_min":54,"x_max":643,"o":"m 54 207 q 92 314 54 268 q 197 386 131 360 q 351 413 264 413 q 477 402 413 413 q 593 372 542 392 l 593 454 q 528 635 593 567 q 357 704 464 704 q 245 681 306 704 q 124 615 185 658 l 107 638 q 239 708 176 685 q 357 732 301 732 q 549 657 478 732 q 621 454 621 582 l 621 56 q 627 35 621 42 q 643 28 633 28 l 643 0 q 631 1 635 0 q 624 3 626 1 q 601 23 610 8 q 593 56 593 38 l 593 122 q 463 22 543 58 q 288 -14 382 -14 q 169 15 222 -14 q 85 95 117 44 q 54 207 54 146 m 572 142 q 588 172 583 157 q 593 199 593 186 l 593 342 q 477 374 538 364 q 351 385 417 385 q 156 336 231 385 q 82 207 82 288 q 109 109 82 153 q 183 40 136 65 q 288 14 231 14 q 458 49 381 14 q 572 142 535 83 m 263 907 l 263 1014 l 290 1014 l 290 907 l 263 907 m 424 907 l 424 1014 l 451 1014 l 451 907 l 424 907 z "},"ạ":{"ha":728,"x_min":54,"x_max":643,"o":"m 54 207 q 92 314 54 268 q 197 386 131 360 q 351 413 264 413 q 477 402 413 413 q 593 372 542 392 l 593 454 q 528 635 593 567 q 357 704 464 704 q 245 681 306 704 q 124 615 185 658 l 107 638 q 239 708 176 685 q 357 732 301 732 q 549 657 478 732 q 621 454 621 582 l 621 56 q 627 35 621 42 q 643 28 633 28 l 643 0 q 631 1 635 0 q 624 3 626 1 q 601 23 610 8 q 593 56 593 38 l 593 122 q 463 22 543 58 q 288 -14 382 -14 q 169 15 222 -14 q 85 95 117 44 q 54 207 54 146 m 572 142 q 588 172 583 157 q 593 199 593 186 l 593 342 q 477 374 538 364 q 351 385 417 385 q 156 336 231 385 q 82 207 82 288 q 109 109 82 153 q 183 40 136 65 q 288 14 231 14 q 458 49 381 14 q 572 142 535 83 m 360 -176 l 360 -69 l 388 -69 l 388 -176 l 360 -176 z "},"à":{"ha":728,"x_min":54,"x_max":643,"o":"m 54 207 q 92 314 54 268 q 197 386 131 360 q 351 413 264 413 q 477 402 413 413 q 593 372 542 392 l 593 454 q 528 635 593 567 q 357 704 464 704 q 245 681 306 704 q 124 615 185 658 l 107 638 q 239 708 176 685 q 357 732 301 732 q 549 657 478 732 q 621 454 621 582 l 621 56 q 627 35 621 42 q 643 28 633 28 l 643 0 q 631 1 635 0 q 624 3 626 1 q 601 23 610 8 q 593 56 593 38 l 593 122 q 463 22 543 58 q 288 -14 382 -14 q 169 15 222 -14 q 85 95 117 44 q 54 207 54 146 m 572 142 q 588 172 583 157 q 593 199 593 186 l 593 342 q 477 374 538 364 q 351 385 417 385 q 156 336 231 385 q 82 207 82 288 q 109 109 82 153 q 183 40 136 65 q 288 14 231 14 q 458 49 381 14 q 572 142 535 83 m 263 1014 l 308 1014 l 399 913 l 376 896 l 263 1014 z "},"ả":{"ha":728,"x_min":54,"x_max":643,"o":"m 54 207 q 92 314 54 268 q 197 386 131 360 q 351 413 264 413 q 477 402 413 413 q 593 372 542 392 l 593 454 q 528 635 593 567 q 357 704 464 704 q 245 681 306 704 q 124 615 185 658 l 107 638 q 239 708 176 685 q 357 732 301 732 q 549 657 478 732 q 621 454 621 582 l 621 56 q 627 35 621 42 q 643 28 633 28 l 643 0 q 631 1 635 0 q 624 3 626 1 q 601 23 610 8 q 593 56 593 38 l 593 122 q 463 22 543 58 q 288 -14 382 -14 q 169 15 222 -14 q 85 95 117 44 q 54 207 54 146 m 572 142 q 588 172 583 157 q 593 199 593 186 l 593 342 q 477 374 538 364 q 351 385 417 385 q 156 336 231 385 q 82 207 82 288 q 109 109 82 153 q 183 40 136 65 q 288 14 231 14 q 458 49 381 14 q 572 142 535 83 m 290 947 l 274 965 q 315 996 296 985 q 360 1007 333 1007 q 416 986 393 1007 q 439 928 439 965 q 423 882 439 901 q 383 835 407 863 l 367 850 q 401 893 389 875 q 414 928 414 911 q 401 966 414 950 q 357 982 388 982 q 325 974 339 982 q 290 947 311 965 z "},"ȃ":{"ha":728,"x_min":54,"x_max":643,"o":"m 54 207 q 92 314 54 268 q 197 386 131 360 q 351 413 264 413 q 477 402 413 413 q 593 372 542 392 l 593 454 q 528 635 593 567 q 357 704 464 704 q 245 681 306 704 q 124 615 185 658 l 107 638 q 239 708 176 685 q 357 732 301 732 q 549 657 478 732 q 621 454 621 582 l 621 56 q 627 35 621 42 q 643 28 633 28 l 643 0 q 631 1 635 0 q 624 3 626 1 q 601 23 610 8 q 593 56 593 38 l 593 122 q 463 22 543 58 q 288 -14 382 -14 q 169 15 222 -14 q 85 95 117 44 q 54 207 54 146 m 572 142 q 588 172 583 157 q 593 199 593 186 l 593 342 q 477 374 538 364 q 351 385 417 385 q 156 336 231 385 q 82 207 82 288 q 109 109 82 153 q 183 40 136 65 q 288 14 231 14 q 458 49 381 14 q 572 142 535 83 m 357 990 q 304 965 328 990 q 281 907 281 939 l 254 907 q 285 982 254 950 q 357 1014 317 1014 q 428 982 397 1014 q 460 907 460 950 l 435 907 q 408 966 431 942 q 357 990 385 990 z "},"ā":{"ha":728,"x_min":54,"x_max":643,"o":"m 54 207 q 92 314 54 268 q 197 386 131 360 q 351 413 264 413 q 477 402 413 413 q 593 372 542 392 l 593 454 q 528 635 593 567 q 357 704 464 704 q 245 681 306 704 q 124 615 185 658 l 107 638 q 239 708 176 685 q 357 732 301 732 q 549 657 478 732 q 621 454 621 582 l 621 56 q 627 35 621 42 q 643 28 633 28 l 643 0 q 631 1 635 0 q 624 3 626 1 q 601 23 610 8 q 593 56 593 38 l 593 122 q 463 22 543 58 q 288 -14 382 -14 q 169 15 222 -14 q 85 95 117 44 q 54 207 54 146 m 572 142 q 588 172 583 157 q 593 199 593 186 l 593 342 q 477 374 538 364 q 351 385 417 385 q 156 336 231 385 q 82 207 82 288 q 109 109 82 153 q 183 40 136 65 q 288 14 231 14 q 458 49 381 14 q 572 142 535 83 m 163 953 l 163 981 l 551 981 l 551 953 l 163 953 z "},"ą":{"ha":728,"x_min":54,"x_max":643,"o":"m 54 207 q 92 314 54 268 q 197 386 131 360 q 351 413 264 413 q 477 402 413 413 q 593 372 542 392 l 593 454 q 528 635 593 567 q 357 704 464 704 q 245 681 306 704 q 124 615 185 658 l 107 638 q 239 708 176 685 q 357 732 301 732 q 549 657 478 732 q 621 454 621 582 l 621 56 q 627 35 621 42 q 643 28 633 28 l 643 0 q 631 1 635 0 q 624 3 626 1 q 601 23 610 8 q 593 56 593 38 l 593 122 q 463 22 543 58 q 288 -14 382 -14 q 169 15 222 -14 q 85 95 117 44 q 54 207 54 146 m 572 142 q 588 172 583 157 q 593 199 593 186 l 593 342 q 477 374 538 364 q 351 385 417 385 q 156 336 231 385 q 82 207 82 288 q 109 109 82 153 q 183 40 136 65 q 288 14 231 14 q 458 49 381 14 q 572 142 535 83 m 508 -139 q 538 -64 508 -101 q 622 17 567 -26 l 629 17 l 643 0 q 563 -74 588 -43 q 538 -135 538 -106 q 560 -176 538 -161 q 638 -204 582 -192 l 621 -228 q 556 -208 581 -219 q 519 -178 531 -196 q 508 -139 508 -161 z "},"å":{"ha":728,"x_min":54,"x_max":643,"o":"m 54 207 q 92 314 54 268 q 197 386 131 360 q 351 413 264 413 q 477 402 413 413 q 593 372 542 392 l 593 454 q 528 635 593 567 q 357 704 464 704 q 245 681 306 704 q 124 615 185 658 l 107 638 q 239 708 176 685 q 357 732 301 732 q 549 657 478 732 q 621 454 621 582 l 621 56 q 627 35 621 42 q 643 28 633 28 l 643 0 q 631 1 635 0 q 624 3 626 1 q 601 23 610 8 q 593 56 593 38 l 593 122 q 463 22 543 58 q 288 -14 382 -14 q 169 15 222 -14 q 85 95 117 44 q 54 207 54 146 m 572 142 q 588 172 583 157 q 593 199 593 186 l 593 342 q 477 374 538 364 q 351 385 417 385 q 156 336 231 385 q 82 207 82 288 q 109 109 82 153 q 183 40 136 65 q 288 14 231 14 q 458 49 381 14 q 572 142 535 83 m 253 946 q 283 1020 253 990 q 357 1050 314 1050 q 431 1020 401 1050 q 461 946 461 990 q 431 872 461 903 q 357 842 401 842 q 283 872 314 842 q 253 946 253 903 m 357 1021 q 304 1001 326 1021 q 282 946 282 981 q 304 893 282 915 q 357 871 326 871 q 408 892 385 871 q 432 946 432 913 q 410 1001 432 981 q 357 1021 388 1021 z "},"ǻ":{"ha":728,"x_min":54,"x_max":643,"o":"m 54 207 q 92 314 54 268 q 197 386 131 360 q 351 413 264 413 q 477 402 413 413 q 593 372 542 392 l 593 454 q 528 635 593 567 q 357 704 464 704 q 245 681 306 704 q 124 615 185 658 l 107 638 q 239 708 176 685 q 357 732 301 732 q 549 657 478 732 q 621 454 621 582 l 621 56 q 627 35 621 42 q 643 28 633 28 l 643 0 q 631 1 635 0 q 624 3 626 1 q 601 23 610 8 q 593 56 593 38 l 593 122 q 463 22 543 58 q 288 -14 382 -14 q 169 15 222 -14 q 85 95 117 44 q 54 207 54 146 m 572 142 q 588 172 583 157 q 593 199 593 186 l 593 342 q 477 374 538 364 q 351 385 417 385 q 156 336 231 385 q 82 207 82 288 q 109 109 82 153 q 183 40 136 65 q 288 14 231 14 q 458 49 381 14 q 572 142 535 83 m 253 946 q 283 1020 253 990 q 357 1050 314 1050 q 431 1020 401 1050 q 461 946 461 990 q 431 872 461 903 q 357 842 401 842 q 283 872 314 842 q 253 946 253 903 m 357 1021 q 304 1001 326 1021 q 282 946 282 981 q 304 893 282 915 q 357 871 326 871 q 408 892 385 871 q 432 946 432 913 q 410 1001 432 981 q 357 1021 388 1021 m 376 1157 l 354 1174 l 443 1275 l 490 1275 l 376 1157 z "},"ã":{"ha":728,"x_min":54,"x_max":643,"o":"m 54 207 q 92 314 54 268 q 197 386 131 360 q 351 413 264 413 q 477 402 413 413 q 593 372 542 392 l 593 454 q 528 635 593 567 q 357 704 464 704 q 245 681 306 704 q 124 615 185 658 l 107 638 q 239 708 176 685 q 357 732 301 732 q 549 657 478 732 q 621 454 621 582 l 621 56 q 627 35 621 42 q 643 28 633 28 l 643 0 q 631 1 635 0 q 624 3 626 1 q 601 23 610 8 q 593 56 593 38 l 593 122 q 463 22 543 58 q 288 -14 382 -14 q 169 15 222 -14 q 85 95 117 44 q 54 207 54 146 m 572 142 q 588 172 583 157 q 593 199 593 186 l 593 342 q 477 374 538 364 q 351 385 417 385 q 156 336 231 385 q 82 207 82 288 q 109 109 82 153 q 183 40 136 65 q 288 14 231 14 q 458 49 381 14 q 572 142 535 83 m 436 921 q 367 934 396 921 q 315 960 339 947 q 263 974 292 974 q 218 959 233 974 q 197 928 203 944 q 192 907 192 911 l 164 907 q 167 924 164 910 q 181 956 171 939 q 210 987 190 974 q 265 1000 231 1000 q 327 987 301 1000 q 378 960 353 974 q 439 947 404 947 q 494 963 478 947 q 516 994 511 978 q 521 1014 521 1011 l 549 1014 q 545 994 549 1010 q 531 963 542 979 q 497 933 519 946 q 436 921 474 921 z "},"æ":{"ha":1289,"x_min":54,"x_max":1240,"o":"m 288 -14 q 169 15 222 -14 q 85 95 117 44 q 54 207 54 146 q 92 314 54 268 q 197 386 131 360 q 351 413 264 413 q 454 405 401 413 q 553 385 507 397 q 563 456 556 421 q 585 522 571 490 q 506 655 567 606 q 357 704 446 704 q 245 681 306 704 q 124 615 185 658 l 107 638 q 357 732 246 732 q 514 687 450 732 q 604 560 578 642 q 725 685 649 638 q 893 732 801 732 q 1067 682 989 732 q 1193 548 1146 632 q 1240 360 1240 464 q 1240 352 1240 356 q 1240 344 1240 349 l 581 344 q 632 176 588 251 q 747 58 676 101 q 901 14 818 14 q 1057 56 985 14 q 1160 165 1129 99 l 1186 158 q 1123 70 1167 110 q 1021 8 1079 31 q 900 -14 963 -14 q 735 32 811 -14 q 613 154 660 78 q 529 58 583 94 q 411 3 475 21 q 288 -14 347 -14 m 288 14 q 458 49 381 14 q 572 142 535 83 q 593 190 589 167 q 565 269 575 228 q 553 356 554 311 q 455 378 506 371 q 351 385 404 385 q 156 336 231 385 q 82 207 82 288 q 109 109 82 153 q 183 40 136 65 q 288 14 231 14 m 1211 372 q 1163 544 1206 469 q 1050 661 1119 618 q 894 704 981 704 q 740 661 810 704 q 628 543 671 618 q 581 372 586 468 l 1211 372 z "},"ǽ":{"ha":1289,"x_min":54,"x_max":1240,"o":"m 288 -14 q 169 15 222 -14 q 85 95 117 44 q 54 207 54 146 q 92 314 54 268 q 197 386 131 360 q 351 413 264 413 q 454 405 401 413 q 553 385 507 397 q 563 456 556 421 q 585 522 571 490 q 506 655 567 606 q 357 704 446 704 q 245 681 306 704 q 124 615 185 658 l 107 638 q 357 732 246 732 q 514 687 450 732 q 604 560 578 642 q 725 685 649 638 q 893 732 801 732 q 1067 682 989 732 q 1193 548 1146 632 q 1240 360 1240 464 q 1240 352 1240 356 q 1240 344 1240 349 l 581 344 q 632 176 588 251 q 747 58 676 101 q 901 14 818 14 q 1057 56 985 14 q 1160 165 1129 99 l 1186 158 q 1123 70 1167 110 q 1021 8 1079 31 q 900 -14 963 -14 q 735 32 811 -14 q 613 154 660 78 q 529 58 583 94 q 411 3 475 21 q 288 -14 347 -14 m 288 14 q 458 49 381 14 q 572 142 535 83 q 593 190 589 167 q 565 269 575 228 q 553 356 554 311 q 455 378 506 371 q 351 385 404 385 q 156 336 231 385 q 82 207 82 288 q 109 109 82 153 q 183 40 136 65 q 288 14 231 14 m 1211 372 q 1163 544 1206 469 q 1050 661 1119 618 q 894 704 981 704 q 740 661 810 704 q 628 543 671 618 q 581 372 586 468 l 1211 372 m 614 896 l 592 913 l 681 1014 l 728 1014 l 614 896 z "},"b":{"ha":838,"x_min":117,"x_max":774,"o":"m 426 -14 q 265 34 342 -14 q 144 150 188 82 l 144 0 l 117 0 l 117 1014 l 144 1014 l 144 553 q 272 681 200 631 q 439 732 344 732 q 580 699 518 732 q 685 612 642 667 q 751 491 729 557 q 774 358 774 425 q 747 218 774 285 q 674 99 721 151 q 563 17 626 47 q 426 -14 500 -14 m 426 14 q 554 43 496 14 q 656 122 613 72 q 722 233 699 172 q 746 358 746 294 q 707 526 746 447 q 599 655 668 606 q 439 704 531 704 q 314 674 371 704 q 215 597 257 644 q 144 494 172 550 l 144 232 q 175 148 147 188 q 246 78 203 108 q 337 31 289 49 q 426 14 385 14 z "},"c":{"ha":747,"x_min":64,"x_max":692,"o":"m 413 -14 q 278 16 342 -14 q 167 98 215 46 q 91 218 118 150 q 64 364 64 286 q 110 551 64 468 q 235 683 156 635 q 411 732 314 732 q 574 690 501 732 q 682 571 646 647 l 654 561 q 553 666 619 628 q 407 704 486 704 q 248 659 319 704 q 134 537 176 614 q 92 364 92 460 q 135 190 92 269 q 250 62 178 110 q 408 14 322 14 q 519 35 465 14 q 613 92 574 57 q 664 165 653 126 l 692 157 q 633 69 676 108 q 533 8 590 31 q 413 -14 475 -14 z "},"ć":{"ha":747,"x_min":64,"x_max":692,"o":"m 413 -14 q 278 16 342 -14 q 167 98 215 46 q 91 218 118 150 q 64 364 64 286 q 110 551 64 468 q 235 683 156 635 q 411 732 314 732 q 574 690 501 732 q 682 571 646 647 l 654 561 q 553 666 619 628 q 407 704 486 704 q 248 659 319 704 q 134 537 176 614 q 92 364 92 460 q 135 190 92 269 q 250 62 178 110 q 408 14 322 14 q 519 35 465 14 q 613 92 574 57 q 664 165 653 126 l 692 157 q 633 69 676 108 q 533 8 590 31 q 413 -14 475 -14 m 415 896 l 393 913 l 482 1014 l 529 1014 l 415 896 z "},"č":{"ha":747,"x_min":64,"x_max":692,"o":"m 413 -14 q 278 16 342 -14 q 167 98 215 46 q 91 218 118 150 q 64 364 64 286 q 110 551 64 468 q 235 683 156 635 q 411 732 314 732 q 574 690 501 732 q 682 571 646 647 l 654 561 q 553 666 619 628 q 407 704 486 704 q 248 659 319 704 q 134 537 176 614 q 92 364 92 460 q 135 190 92 269 q 250 62 178 110 q 408 14 322 14 q 519 35 465 14 q 613 92 574 57 q 664 165 653 126 l 692 157 q 633 69 676 108 q 533 8 590 31 q 413 -14 475 -14 m 289 1014 l 407 926 l 525 1014 l 547 997 l 418 894 l 396 894 l 267 997 l 289 1014 z "},"ç":{"ha":747,"x_min":64,"x_max":692,"o":"m 413 -14 q 278 16 342 -14 q 167 98 215 46 q 91 218 118 150 q 64 364 64 286 q 110 551 64 468 q 235 683 156 635 q 411 732 314 732 q 574 690 501 732 q 682 571 646 647 l 654 561 q 553 666 619 628 q 407 704 486 704 q 248 659 319 704 q 134 537 176 614 q 92 364 92 460 q 135 190 92 269 q 250 62 178 110 q 408 14 322 14 q 519 35 465 14 q 613 92 574 57 q 664 165 653 126 l 692 157 q 633 69 676 108 q 533 8 590 31 q 413 -14 475 -14 m 399 -228 q 323 -219 364 -228 q 246 -193 282 -211 l 261 -169 q 325 -193 294 -183 q 394 -203 356 -203 q 477 -183 449 -203 q 506 -125 506 -164 q 478 -56 506 -85 q 399 0 451 -28 l 426 11 q 505 -48 476 -17 q 533 -125 533 -79 q 495 -203 533 -179 q 399 -228 457 -228 z "},"ḉ":{"ha":747,"x_min":64,"x_max":692,"o":"m 413 -14 q 278 16 342 -14 q 167 98 215 46 q 91 218 118 150 q 64 364 64 286 q 110 551 64 468 q 235 683 156 635 q 411 732 314 732 q 574 690 501 732 q 682 571 646 647 l 654 561 q 553 666 619 628 q 407 704 486 704 q 248 659 319 704 q 134 537 176 614 q 92 364 92 460 q 135 190 92 269 q 250 62 178 110 q 408 14 322 14 q 519 35 465 14 q 613 92 574 57 q 664 165 653 126 l 692 157 q 633 69 676 108 q 533 8 590 31 q 413 -14 475 -14 m 399 -228 q 323 -219 364 -228 q 246 -193 282 -211 l 261 -169 q 325 -193 294 -183 q 394 -203 356 -203 q 477 -183 449 -203 q 506 -125 506 -164 q 478 -56 506 -85 q 399 0 451 -28 l 426 11 q 505 -48 476 -17 q 533 -125 533 -79 q 495 -203 533 -179 q 399 -228 457 -228 m 415 896 l 393 913 l 482 1014 l 529 1014 l 415 896 z "},"ĉ":{"ha":747,"x_min":64,"x_max":692,"o":"m 413 -14 q 278 16 342 -14 q 167 98 215 46 q 91 218 118 150 q 64 364 64 286 q 110 551 64 468 q 235 683 156 635 q 411 732 314 732 q 574 690 501 732 q 682 571 646 647 l 654 561 q 553 666 619 628 q 407 704 486 704 q 248 659 319 704 q 134 537 176 614 q 92 364 92 460 q 135 190 92 269 q 250 62 178 110 q 408 14 322 14 q 519 35 465 14 q 613 92 574 57 q 664 165 653 126 l 692 157 q 633 69 676 108 q 533 8 590 31 q 413 -14 475 -14 m 267 911 l 396 1014 l 418 1014 l 547 911 l 525 894 l 407 982 l 289 894 l 267 911 z "},"ċ":{"ha":747,"x_min":64,"x_max":692,"o":"m 413 -14 q 278 16 342 -14 q 167 98 215 46 q 91 218 118 150 q 64 364 64 286 q 110 551 64 468 q 235 683 156 635 q 411 732 314 732 q 574 690 501 732 q 682 571 646 647 l 654 561 q 553 666 619 628 q 407 704 486 704 q 248 659 319 704 q 134 537 176 614 q 92 364 92 460 q 135 190 92 269 q 250 62 178 110 q 408 14 322 14 q 519 35 465 14 q 613 92 574 57 q 664 165 653 126 l 692 157 q 633 69 676 108 q 533 8 590 31 q 413 -14 475 -14 m 393 907 l 393 1014 l 421 1014 l 421 907 l 393 907 z "},"d":{"ha":839,"x_min":64,"x_max":743,"o":"m 64 358 q 108 543 64 458 q 227 680 151 628 q 399 732 303 732 q 574 678 497 732 q 693 553 650 625 l 693 1014 l 721 1014 l 721 56 q 727 35 721 43 q 743 28 733 28 l 743 0 q 725 3 731 0 q 701 24 710 10 q 693 56 693 39 l 693 150 q 570 32 647 78 q 411 -14 493 -14 q 272 18 336 -14 q 162 103 208 50 q 90 223 115 157 q 64 358 64 289 m 693 235 l 693 494 q 625 600 672 553 q 517 676 578 647 q 399 704 457 704 q 272 675 328 704 q 175 596 215 646 q 113 485 135 546 q 92 358 92 424 q 116 228 92 290 q 185 118 140 167 q 287 42 229 69 q 411 14 344 14 q 501 31 453 14 q 592 80 549 49 q 663 151 635 111 q 693 235 690 190 z "},"ð":{"ha":824,"x_min":67,"x_max":753,"o":"m 753 342 q 726 206 753 269 q 652 92 700 142 q 542 15 604 43 q 410 -14 481 -14 q 237 32 315 -14 q 113 155 158 78 q 67 322 67 232 q 94 452 67 392 q 168 560 121 513 q 278 633 215 607 q 410 660 340 660 q 603 603 518 660 q 725 458 689 547 q 697 593 718 525 q 632 731 676 661 q 508 872 588 801 q 306 1014 429 943 l 346 1014 q 563 852 482 933 q 685 688 643 771 q 740 518 726 604 q 753 342 753 432 m 94 319 q 137 167 94 236 q 251 56 179 97 q 408 14 322 14 q 567 59 494 14 q 682 179 639 104 q 725 343 725 254 q 682 488 725 422 q 567 592 639 553 q 410 632 496 632 q 253 589 325 632 q 138 475 181 546 q 94 319 94 404 m 654 971 l 521 883 l 511 876 l 333 760 l 319 779 l 493 893 l 501 899 l 640 990 l 654 971 z "},"ď":{"ha":839,"x_min":64,"x_max":918,"o":"m 64 358 q 108 543 64 458 q 227 680 151 628 q 399 732 303 732 q 574 678 497 732 q 693 553 650 625 l 693 1014 l 721 1014 l 721 56 q 727 35 721 43 q 743 28 733 28 l 743 0 q 725 3 731 0 q 701 24 710 10 q 693 56 693 39 l 693 150 q 570 32 647 78 q 411 -14 493 -14 q 272 18 336 -14 q 162 103 208 50 q 90 223 115 157 q 64 358 64 289 m 693 235 l 693 494 q 625 600 672 553 q 517 676 578 647 q 399 704 457 704 q 272 675 328 704 q 175 596 215 646 q 113 485 135 546 q 92 358 92 424 q 116 228 92 290 q 185 118 140 167 q 287 42 229 69 q 411 14 344 14 q 501 31 453 14 q 592 80 549 49 q 663 151 635 111 q 693 235 690 190 m 804 896 l 782 913 l 871 1014 l 918 1014 l 804 896 z "},"đ":{"ha":839,"x_min":64,"x_max":826,"o":"m 521 879 l 521 907 l 826 907 l 826 879 l 521 879 m 64 358 q 108 543 64 458 q 227 680 151 628 q 399 732 303 732 q 574 678 497 732 q 693 553 650 625 l 693 1014 l 721 1014 l 721 56 q 727 35 721 43 q 743 28 733 28 l 743 0 q 725 3 731 0 q 701 24 710 10 q 693 56 693 39 l 693 150 q 570 32 647 78 q 411 -14 493 -14 q 272 18 336 -14 q 162 103 208 50 q 90 223 115 157 q 64 358 64 289 m 693 235 l 693 494 q 625 600 672 553 q 517 676 578 647 q 399 704 457 704 q 272 675 328 704 q 175 596 215 646 q 113 485 135 546 q 92 358 92 424 q 116 228 92 290 q 185 118 140 167 q 287 42 229 69 q 411 14 344 14 q 501 31 453 14 q 592 80 549 49 q 663 151 635 111 q 693 235 690 190 z "},"ḍ":{"ha":839,"x_min":64,"x_max":743,"o":"m 64 358 q 108 543 64 458 q 227 680 151 628 q 399 732 303 732 q 574 678 497 732 q 693 553 650 625 l 693 1014 l 721 1014 l 721 56 q 727 35 721 43 q 743 28 733 28 l 743 0 q 725 3 731 0 q 701 24 710 10 q 693 56 693 39 l 693 150 q 570 32 647 78 q 411 -14 493 -14 q 272 18 336 -14 q 162 103 208 50 q 90 223 115 157 q 64 358 64 289 m 693 235 l 693 494 q 625 600 672 553 q 517 676 578 647 q 399 704 457 704 q 272 675 328 704 q 175 596 215 646 q 113 485 135 546 q 92 358 92 424 q 116 228 92 290 q 185 118 140 167 q 287 42 229 69 q 411 14 344 14 q 501 31 453 14 q 592 80 549 49 q 663 151 635 111 q 693 235 690 190 m 406 -176 l 406 -69 l 433 -69 l 433 -176 l 406 -176 z "},"ḏ":{"ha":839,"x_min":64,"x_max":743,"o":"m 64 358 q 108 543 64 458 q 227 680 151 628 q 399 732 303 732 q 574 678 497 732 q 693 553 650 625 l 693 1014 l 721 1014 l 721 56 q 727 35 721 43 q 743 28 733 28 l 743 0 q 725 3 731 0 q 701 24 710 10 q 693 56 693 39 l 693 150 q 570 32 647 78 q 411 -14 493 -14 q 272 18 336 -14 q 162 103 208 50 q 90 223 115 157 q 64 358 64 289 m 693 235 l 693 494 q 625 600 672 553 q 517 676 578 647 q 399 704 457 704 q 272 675 328 704 q 175 596 215 646 q 113 485 135 546 q 92 358 92 424 q 116 228 92 290 q 185 118 140 167 q 287 42 229 69 q 411 14 344 14 q 501 31 453 14 q 592 80 549 49 q 663 151 635 111 q 693 235 690 190 m 225 -132 l 225 -104 l 614 -104 l 614 -132 l 225 -132 z "},"e":{"ha":800,"x_min":64,"x_max":751,"o":"m 411 -14 q 277 16 340 -14 q 166 98 214 46 q 91 219 118 150 q 64 365 64 288 q 110 550 64 467 q 233 683 156 633 q 404 732 310 732 q 578 682 500 732 q 704 548 657 632 q 751 360 751 464 q 751 352 751 356 q 751 344 751 349 l 92 344 q 143 176 99 251 q 258 58 188 101 q 413 14 329 14 q 568 56 496 14 q 671 165 640 99 l 697 158 q 634 70 678 110 q 532 8 590 31 q 411 -14 474 -14 m 92 372 l 722 372 q 674 544 717 469 q 561 661 631 618 q 406 704 492 704 q 251 661 321 704 q 140 543 182 618 q 92 372 97 468 z "},"é":{"ha":800,"x_min":64,"x_max":751,"o":"m 411 -14 q 277 16 340 -14 q 166 98 214 46 q 91 219 118 150 q 64 365 64 288 q 110 550 64 467 q 233 683 156 633 q 404 732 310 732 q 578 682 500 732 q 704 548 657 632 q 751 360 751 464 q 751 352 751 356 q 751 344 751 349 l 92 344 q 143 176 99 251 q 258 58 188 101 q 413 14 329 14 q 568 56 496 14 q 671 165 640 99 l 697 158 q 634 70 678 110 q 532 8 590 31 q 411 -14 474 -14 m 92 372 l 722 372 q 674 544 717 469 q 561 661 631 618 q 406 704 492 704 q 251 661 321 704 q 140 543 182 618 q 92 372 97 468 m 414 896 l 392 913 l 481 1014 l 528 1014 l 414 896 z "},"ĕ":{"ha":800,"x_min":64,"x_max":751,"o":"m 411 -14 q 277 16 340 -14 q 166 98 214 46 q 91 219 118 150 q 64 365 64 288 q 110 550 64 467 q 233 683 156 633 q 404 732 310 732 q 578 682 500 732 q 704 548 657 632 q 751 360 751 464 q 751 352 751 356 q 751 344 751 349 l 92 344 q 143 176 99 251 q 258 58 188 101 q 413 14 329 14 q 568 56 496 14 q 671 165 640 99 l 697 158 q 634 70 678 110 q 532 8 590 31 q 411 -14 474 -14 m 92 372 l 722 372 q 674 544 717 469 q 561 661 631 618 q 406 704 492 704 q 251 661 321 704 q 140 543 182 618 q 92 372 97 468 m 406 931 q 456 955 433 931 q 483 1014 479 979 l 508 1014 q 477 939 508 971 q 406 907 446 907 q 334 939 365 907 q 303 1014 303 971 l 329 1014 q 353 957 329 983 q 406 931 376 931 z "},"ě":{"ha":800,"x_min":64,"x_max":751,"o":"m 411 -14 q 277 16 340 -14 q 166 98 214 46 q 91 219 118 150 q 64 365 64 288 q 110 550 64 467 q 233 683 156 633 q 404 732 310 732 q 578 682 500 732 q 704 548 657 632 q 751 360 751 464 q 751 352 751 356 q 751 344 751 349 l 92 344 q 143 176 99 251 q 258 58 188 101 q 413 14 329 14 q 568 56 496 14 q 671 165 640 99 l 697 158 q 634 70 678 110 q 532 8 590 31 q 411 -14 474 -14 m 92 372 l 722 372 q 674 544 717 469 q 561 661 631 618 q 406 704 492 704 q 251 661 321 704 q 140 543 182 618 q 92 372 97 468 m 288 1014 l 406 926 l 524 1014 l 546 997 l 417 894 l 394 894 l 265 997 l 288 1014 z "},"ḝ":{"ha":800,"x_min":64,"x_max":751,"o":"m 411 -14 q 277 16 340 -14 q 166 98 214 46 q 91 219 118 150 q 64 365 64 288 q 110 550 64 467 q 233 683 156 633 q 404 732 310 732 q 578 682 500 732 q 704 548 657 632 q 751 360 751 464 q 751 352 751 356 q 751 344 751 349 l 92 344 q 143 176 99 251 q 258 58 188 101 q 413 14 329 14 q 568 56 496 14 q 671 165 640 99 l 697 158 q 634 70 678 110 q 532 8 590 31 q 411 -14 474 -14 m 92 372 l 722 372 q 674 544 717 469 q 561 661 631 618 q 406 704 492 704 q 251 661 321 704 q 140 543 182 618 q 92 372 97 468 m 397 -228 q 322 -219 363 -228 q 244 -193 281 -211 l 260 -169 q 324 -193 293 -183 q 393 -203 354 -203 q 476 -183 447 -203 q 504 -125 504 -164 q 477 -56 504 -85 q 397 0 450 -28 l 425 11 q 503 -48 475 -17 q 532 -125 532 -79 q 494 -203 532 -179 q 397 -228 456 -228 m 406 931 q 456 955 433 931 q 483 1014 479 979 l 508 1014 q 477 939 508 971 q 406 907 446 907 q 334 939 365 907 q 303 1014 303 971 l 329 1014 q 353 957 329 983 q 406 931 376 931 z "},"ê":{"ha":800,"x_min":64,"x_max":751,"o":"m 411 -14 q 277 16 340 -14 q 166 98 214 46 q 91 219 118 150 q 64 365 64 288 q 110 550 64 467 q 233 683 156 633 q 404 732 310 732 q 578 682 500 732 q 704 548 657 632 q 751 360 751 464 q 751 352 751 356 q 751 344 751 349 l 92 344 q 143 176 99 251 q 258 58 188 101 q 413 14 329 14 q 568 56 496 14 q 671 165 640 99 l 697 158 q 634 70 678 110 q 532 8 590 31 q 411 -14 474 -14 m 92 372 l 722 372 q 674 544 717 469 q 561 661 631 618 q 406 704 492 704 q 251 661 321 704 q 140 543 182 618 q 92 372 97 468 m 265 911 l 394 1014 l 417 1014 l 546 911 l 524 894 l 406 982 l 288 894 l 265 911 z "},"ế":{"ha":800,"x_min":64,"x_max":751,"o":"m 411 -14 q 277 16 340 -14 q 166 98 214 46 q 91 219 118 150 q 64 365 64 288 q 110 550 64 467 q 233 683 156 633 q 404 732 310 732 q 578 682 500 732 q 704 548 657 632 q 751 360 751 464 q 751 352 751 356 q 751 344 751 349 l 92 344 q 143 176 99 251 q 258 58 188 101 q 413 14 329 14 q 568 56 496 14 q 671 165 640 99 l 697 158 q 634 70 678 110 q 532 8 590 31 q 411 -14 474 -14 m 92 372 l 722 372 q 674 544 717 469 q 561 661 631 618 q 406 704 492 704 q 251 661 321 704 q 140 543 182 618 q 92 372 97 468 z "},"ệ":{"ha":800,"x_min":64,"x_max":751,"o":"m 411 -14 q 277 16 340 -14 q 166 98 214 46 q 91 219 118 150 q 64 365 64 288 q 110 550 64 467 q 233 683 156 633 q 404 732 310 732 q 578 682 500 732 q 704 548 657 632 q 751 360 751 464 q 751 352 751 356 q 751 344 751 349 l 92 344 q 143 176 99 251 q 258 58 188 101 q 413 14 329 14 q 568 56 496 14 q 671 165 640 99 l 697 158 q 634 70 678 110 q 532 8 590 31 q 411 -14 474 -14 m 92 372 l 722 372 q 674 544 717 469 q 561 661 631 618 q 406 704 492 704 q 251 661 321 704 q 140 543 182 618 q 92 372 97 468 m 397 -176 l 397 -69 l 425 -69 l 425 -176 l 397 -176 m 265 911 l 394 1014 l 417 1014 l 546 911 l 524 894 l 406 982 l 288 894 l 265 911 z "},"ề":{"ha":800,"x_min":64,"x_max":751,"o":"m 411 -14 q 277 16 340 -14 q 166 98 214 46 q 91 219 118 150 q 64 365 64 288 q 110 550 64 467 q 233 683 156 633 q 404 732 310 732 q 578 682 500 732 q 704 548 657 632 q 751 360 751 464 q 751 352 751 356 q 751 344 751 349 l 92 344 q 143 176 99 251 q 258 58 188 101 q 413 14 329 14 q 568 56 496 14 q 671 165 640 99 l 697 158 q 634 70 678 110 q 532 8 590 31 q 411 -14 474 -14 m 92 372 l 722 372 q 674 544 717 469 q 561 661 631 618 q 406 704 492 704 q 251 661 321 704 q 140 543 182 618 q 92 372 97 468 z "},"ể":{"ha":800,"x_min":64,"x_max":751,"o":"m 411 -14 q 277 16 340 -14 q 166 98 214 46 q 91 219 118 150 q 64 365 64 288 q 110 550 64 467 q 233 683 156 633 q 404 732 310 732 q 578 682 500 732 q 704 548 657 632 q 751 360 751 464 q 751 352 751 356 q 751 344 751 349 l 92 344 q 143 176 99 251 q 258 58 188 101 q 413 14 329 14 q 568 56 496 14 q 671 165 640 99 l 697 158 q 634 70 678 110 q 532 8 590 31 q 411 -14 474 -14 m 92 372 l 722 372 q 674 544 717 469 q 561 661 631 618 q 406 704 492 704 q 251 661 321 704 q 140 543 182 618 q 92 372 97 468 z "},"ễ":{"ha":800,"x_min":64,"x_max":751,"o":"m 411 -14 q 277 16 340 -14 q 166 98 214 46 q 91 219 118 150 q 64 365 64 288 q 110 550 64 467 q 233 683 156 633 q 404 732 310 732 q 578 682 500 732 q 704 548 657 632 q 751 360 751 464 q 751 352 751 356 q 751 344 751 349 l 92 344 q 143 176 99 251 q 258 58 188 101 q 413 14 329 14 q 568 56 496 14 q 671 165 640 99 l 697 158 q 634 70 678 110 q 532 8 590 31 q 411 -14 474 -14 m 92 372 l 722 372 q 674 544 717 469 q 561 661 631 618 q 406 704 492 704 q 251 661 321 704 q 140 543 182 618 q 92 372 97 468 z "},"ȅ":{"ha":800,"x_min":64,"x_max":751,"o":"m 411 -14 q 277 16 340 -14 q 166 98 214 46 q 91 219 118 150 q 64 365 64 288 q 110 550 64 467 q 233 683 156 633 q 404 732 310 732 q 578 682 500 732 q 704 548 657 632 q 751 360 751 464 q 751 352 751 356 q 751 344 751 349 l 92 344 q 143 176 99 251 q 258 58 188 101 q 413 14 329 14 q 568 56 496 14 q 671 165 640 99 l 697 158 q 634 70 678 110 q 532 8 590 31 q 411 -14 474 -14 m 92 372 l 722 372 q 674 544 717 469 q 561 661 631 618 q 406 704 492 704 q 251 661 321 704 q 140 543 182 618 q 92 372 97 468 m 364 1014 l 411 1014 l 500 913 l 478 896 l 364 1014 m 225 1014 l 272 1014 l 361 913 l 339 896 l 225 1014 z "},"ë":{"ha":800,"x_min":64,"x_max":751,"o":"m 411 -14 q 277 16 340 -14 q 166 98 214 46 q 91 219 118 150 q 64 365 64 288 q 110 550 64 467 q 233 683 156 633 q 404 732 310 732 q 578 682 500 732 q 704 548 657 632 q 751 360 751 464 q 751 352 751 356 q 751 344 751 349 l 92 344 q 143 176 99 251 q 258 58 188 101 q 413 14 329 14 q 568 56 496 14 q 671 165 640 99 l 697 158 q 634 70 678 110 q 532 8 590 31 q 411 -14 474 -14 m 92 372 l 722 372 q 674 544 717 469 q 561 661 631 618 q 406 704 492 704 q 251 661 321 704 q 140 543 182 618 q 92 372 97 468 m 311 907 l 311 1014 l 339 1014 l 339 907 l 311 907 m 472 907 l 472 1014 l 500 1014 l 500 907 l 472 907 z "},"ė":{"ha":800,"x_min":64,"x_max":751,"o":"m 411 -14 q 277 16 340 -14 q 166 98 214 46 q 91 219 118 150 q 64 365 64 288 q 110 550 64 467 q 233 683 156 633 q 404 732 310 732 q 578 682 500 732 q 704 548 657 632 q 751 360 751 464 q 751 352 751 356 q 751 344 751 349 l 92 344 q 143 176 99 251 q 258 58 188 101 q 413 14 329 14 q 568 56 496 14 q 671 165 640 99 l 697 158 q 634 70 678 110 q 532 8 590 31 q 411 -14 474 -14 m 92 372 l 722 372 q 674 544 717 469 q 561 661 631 618 q 406 704 492 704 q 251 661 321 704 q 140 543 182 618 q 92 372 97 468 m 392 907 l 392 1014 l 419 1014 l 419 907 l 392 907 z "},"ẹ":{"ha":800,"x_min":64,"x_max":751,"o":"m 411 -14 q 277 16 340 -14 q 166 98 214 46 q 91 219 118 150 q 64 365 64 288 q 110 550 64 467 q 233 683 156 633 q 404 732 310 732 q 578 682 500 732 q 704 548 657 632 q 751 360 751 464 q 751 352 751 356 q 751 344 751 349 l 92 344 q 143 176 99 251 q 258 58 188 101 q 413 14 329 14 q 568 56 496 14 q 671 165 640 99 l 697 158 q 634 70 678 110 q 532 8 590 31 q 411 -14 474 -14 m 92 372 l 722 372 q 674 544 717 469 q 561 661 631 618 q 406 704 492 704 q 251 661 321 704 q 140 543 182 618 q 92 372 97 468 m 397 -176 l 397 -69 l 425 -69 l 425 -176 l 397 -176 z "},"è":{"ha":800,"x_min":64,"x_max":751,"o":"m 411 -14 q 277 16 340 -14 q 166 98 214 46 q 91 219 118 150 q 64 365 64 288 q 110 550 64 467 q 233 683 156 633 q 404 732 310 732 q 578 682 500 732 q 704 548 657 632 q 751 360 751 464 q 751 352 751 356 q 751 344 751 349 l 92 344 q 143 176 99 251 q 258 58 188 101 q 413 14 329 14 q 568 56 496 14 q 671 165 640 99 l 697 158 q 634 70 678 110 q 532 8 590 31 q 411 -14 474 -14 m 92 372 l 722 372 q 674 544 717 469 q 561 661 631 618 q 406 704 492 704 q 251 661 321 704 q 140 543 182 618 q 92 372 97 468 m 311 1014 l 357 1014 l 447 913 l 425 896 l 311 1014 z "},"ẻ":{"ha":800,"x_min":64,"x_max":751,"o":"m 411 -14 q 277 16 340 -14 q 166 98 214 46 q 91 219 118 150 q 64 365 64 288 q 110 550 64 467 q 233 683 156 633 q 404 732 310 732 q 578 682 500 732 q 704 548 657 632 q 751 360 751 464 q 751 352 751 356 q 751 344 751 349 l 92 344 q 143 176 99 251 q 258 58 188 101 q 413 14 329 14 q 568 56 496 14 q 671 165 640 99 l 697 158 q 634 70 678 110 q 532 8 590 31 q 411 -14 474 -14 m 92 372 l 722 372 q 674 544 717 469 q 561 661 631 618 q 406 704 492 704 q 251 661 321 704 q 140 543 182 618 q 92 372 97 468 m 339 947 l 322 965 q 363 996 344 985 q 408 1007 382 1007 q 465 986 442 1007 q 488 928 488 965 q 472 882 488 901 q 432 835 456 863 l 415 850 q 450 893 438 875 q 463 928 463 911 q 449 966 463 950 q 406 982 436 982 q 374 974 388 982 q 339 947 360 965 z "},"ȇ":{"ha":800,"x_min":64,"x_max":751,"o":"m 411 -14 q 277 16 340 -14 q 166 98 214 46 q 91 219 118 150 q 64 365 64 288 q 110 550 64 467 q 233 683 156 633 q 404 732 310 732 q 578 682 500 732 q 704 548 657 632 q 751 360 751 464 q 751 352 751 356 q 751 344 751 349 l 92 344 q 143 176 99 251 q 258 58 188 101 q 413 14 329 14 q 568 56 496 14 q 671 165 640 99 l 697 158 q 634 70 678 110 q 532 8 590 31 q 411 -14 474 -14 m 92 372 l 722 372 q 674 544 717 469 q 561 661 631 618 q 406 704 492 704 q 251 661 321 704 q 140 543 182 618 q 92 372 97 468 m 406 990 q 353 965 376 990 q 329 907 329 939 l 303 907 q 334 982 303 950 q 406 1014 365 1014 q 477 982 446 1014 q 508 907 508 950 l 483 907 q 456 966 479 942 q 406 990 433 990 z "},"ē":{"ha":800,"x_min":64,"x_max":751,"o":"m 411 -14 q 277 16 340 -14 q 166 98 214 46 q 91 219 118 150 q 64 365 64 288 q 110 550 64 467 q 233 683 156 633 q 404 732 310 732 q 578 682 500 732 q 704 548 657 632 q 751 360 751 464 q 751 352 751 356 q 751 344 751 349 l 92 344 q 143 176 99 251 q 258 58 188 101 q 413 14 329 14 q 568 56 496 14 q 671 165 640 99 l 697 158 q 634 70 678 110 q 532 8 590 31 q 411 -14 474 -14 m 92 372 l 722 372 q 674 544 717 469 q 561 661 631 618 q 406 704 492 704 q 251 661 321 704 q 140 543 182 618 q 92 372 97 468 m 211 953 l 211 981 l 600 981 l 600 953 l 211 953 z "},"ḗ":{"ha":800,"x_min":64,"x_max":751,"o":"m 411 -14 q 277 16 340 -14 q 166 98 214 46 q 91 219 118 150 q 64 365 64 288 q 110 550 64 467 q 233 683 156 633 q 404 732 310 732 q 578 682 500 732 q 704 548 657 632 q 751 360 751 464 q 751 352 751 356 q 751 344 751 349 l 92 344 q 143 176 99 251 q 258 58 188 101 q 413 14 329 14 q 568 56 496 14 q 671 165 640 99 l 697 158 q 634 70 678 110 q 532 8 590 31 q 411 -14 474 -14 m 92 372 l 722 372 q 674 544 717 469 q 561 661 631 618 q 406 704 492 704 q 251 661 321 704 q 140 543 182 618 q 92 372 97 468 m 211 953 l 211 981 l 600 981 l 600 953 l 211 953 m 414 1156 l 392 1172 l 481 1274 l 528 1274 l 414 1156 z "},"ḕ":{"ha":800,"x_min":64,"x_max":751,"o":"m 411 -14 q 277 16 340 -14 q 166 98 214 46 q 91 219 118 150 q 64 365 64 288 q 110 550 64 467 q 233 683 156 633 q 404 732 310 732 q 578 682 500 732 q 704 548 657 632 q 751 360 751 464 q 751 352 751 356 q 751 344 751 349 l 92 344 q 143 176 99 251 q 258 58 188 101 q 413 14 329 14 q 568 56 496 14 q 671 165 640 99 l 697 158 q 634 70 678 110 q 532 8 590 31 q 411 -14 474 -14 m 92 372 l 722 372 q 674 544 717 469 q 561 661 631 618 q 406 704 492 704 q 251 661 321 704 q 140 543 182 618 q 92 372 97 468 m 211 953 l 211 981 l 600 981 l 600 953 l 211 953 m 311 1274 l 357 1274 l 447 1172 l 425 1156 l 311 1274 z "},"ę":{"ha":800,"x_min":64,"x_max":751,"o":"m 411 -14 q 277 16 340 -14 q 166 98 214 46 q 91 219 118 150 q 64 365 64 288 q 110 550 64 467 q 233 683 156 633 q 404 732 310 732 q 578 682 500 732 q 704 548 657 632 q 751 360 751 464 q 751 352 751 356 q 751 344 751 349 l 92 344 q 143 176 99 251 q 258 58 188 101 q 413 14 329 14 q 568 56 496 14 q 671 165 640 99 l 697 158 q 634 70 678 110 q 532 8 590 31 q 411 -14 474 -14 m 92 372 l 722 372 q 674 544 717 469 q 561 661 631 618 q 406 704 492 704 q 251 661 321 704 q 140 543 182 618 q 92 372 97 468 m 365 -139 q 394 -64 365 -101 q 479 17 424 -26 l 486 17 l 500 0 q 419 -74 444 -43 q 394 -135 394 -106 q 417 -176 394 -161 q 494 -204 439 -192 l 478 -228 q 413 -208 438 -219 q 376 -178 388 -196 q 365 -139 365 -161 z "},"ẽ":{"ha":800,"x_min":64,"x_max":751,"o":"m 411 -14 q 277 16 340 -14 q 166 98 214 46 q 91 219 118 150 q 64 365 64 288 q 110 550 64 467 q 233 683 156 633 q 404 732 310 732 q 578 682 500 732 q 704 548 657 632 q 751 360 751 464 q 751 352 751 356 q 751 344 751 349 l 92 344 q 143 176 99 251 q 258 58 188 101 q 413 14 329 14 q 568 56 496 14 q 671 165 640 99 l 697 158 q 634 70 678 110 q 532 8 590 31 q 411 -14 474 -14 m 92 372 l 722 372 q 674 544 717 469 q 561 661 631 618 q 406 704 492 704 q 251 661 321 704 q 140 543 182 618 q 92 372 97 468 m 485 921 q 416 934 444 921 q 364 960 388 947 q 311 974 340 974 q 267 959 282 974 q 246 928 251 944 q 240 907 240 911 l 213 907 q 216 924 213 910 q 229 956 219 939 q 259 987 239 974 q 314 1000 279 1000 q 376 987 350 1000 q 427 960 401 974 q 488 947 453 947 q 543 963 526 947 q 565 994 560 978 q 569 1014 569 1011 l 597 1014 q 594 994 597 1010 q 579 963 590 979 q 545 933 568 946 q 485 921 522 921 z "},"ə":{"ha":800,"x_min":49,"x_max":736,"o":"m 396 -14 q 222 36 300 -14 q 97 171 143 86 q 49 358 50 256 q 49 366 49 363 q 49 374 49 369 l 708 374 q 657 542 701 467 q 542 660 613 617 q 388 704 472 704 q 232 662 304 704 q 129 553 160 619 l 103 560 q 166 649 122 610 q 268 710 210 688 q 389 732 326 732 q 523 702 460 732 q 634 620 586 672 q 709 499 682 568 q 736 353 736 431 q 690 168 736 251 q 567 35 644 85 q 396 -14 490 -14 m 394 14 q 549 57 481 14 q 661 176 618 100 q 708 346 704 251 l 78 346 q 128 175 85 250 q 240 57 171 100 q 394 14 310 14 z "},"f":{"ha":415,"x_min":39,"x_max":465,"o":"m 143 0 l 143 693 l 39 693 l 39 721 l 143 721 l 143 750 q 166 900 143 838 q 231 995 189 963 q 333 1028 274 1028 q 410 1015 374 1028 q 465 981 447 1001 l 443 964 q 397 991 426 981 q 335 1001 367 1001 q 213 937 256 1001 q 171 750 171 872 l 171 721 l 386 721 l 386 693 l 171 693 l 171 0 l 143 0 z "},"g":{"ha":838,"x_min":64,"x_max":721,"o":"m 411 -14 q 272 18 336 -14 q 162 103 208 50 q 90 223 115 157 q 64 358 64 289 q 88 498 64 431 q 157 618 113 565 q 263 701 201 671 q 399 732 325 732 q 569 679 497 732 q 693 553 642 626 l 693 721 l 721 721 l 721 -31 q 676 -187 721 -125 q 558 -280 631 -250 q 403 -310 485 -310 q 203 -262 275 -310 q 90 -137 131 -214 l 117 -129 q 238 -246 161 -210 q 403 -282 315 -282 q 548 -253 482 -282 q 653 -169 614 -225 q 693 -31 693 -112 l 693 150 q 570 32 647 78 q 411 -14 493 -14 m 411 14 q 511 33 463 14 q 600 85 560 53 q 665 157 640 118 q 693 235 690 196 l 693 494 q 624 603 671 556 q 519 677 578 650 q 399 704 461 704 q 269 674 326 704 q 172 592 211 643 q 113 481 133 542 q 92 358 92 419 q 116 228 92 290 q 185 118 140 167 q 287 42 229 69 q 411 14 344 14 z "},"ğ":{"ha":838,"x_min":64,"x_max":721,"o":"m 411 -14 q 272 18 336 -14 q 162 103 208 50 q 90 223 115 157 q 64 358 64 289 q 88 498 64 431 q 157 618 113 565 q 263 701 201 671 q 399 732 325 732 q 569 679 497 732 q 693 553 642 626 l 693 721 l 721 721 l 721 -31 q 676 -187 721 -125 q 558 -280 631 -250 q 403 -310 485 -310 q 203 -262 275 -310 q 90 -137 131 -214 l 117 -129 q 238 -246 161 -210 q 403 -282 315 -282 q 548 -253 482 -282 q 653 -169 614 -225 q 693 -31 693 -112 l 693 150 q 570 32 647 78 q 411 -14 493 -14 m 411 14 q 511 33 463 14 q 600 85 560 53 q 665 157 640 118 q 693 235 690 196 l 693 494 q 624 603 671 556 q 519 677 578 650 q 399 704 461 704 q 269 674 326 704 q 172 592 211 643 q 113 481 133 542 q 92 358 92 419 q 116 228 92 290 q 185 118 140 167 q 287 42 229 69 q 411 14 344 14 m 418 931 q 469 955 446 931 q 496 1014 492 979 l 521 1014 q 490 939 521 971 q 418 907 458 907 q 347 939 378 907 q 315 1014 315 971 l 342 1014 q 365 957 342 983 q 418 931 389 931 z "},"ǧ":{"ha":838,"x_min":64,"x_max":721,"o":"m 411 -14 q 272 18 336 -14 q 162 103 208 50 q 90 223 115 157 q 64 358 64 289 q 88 498 64 431 q 157 618 113 565 q 263 701 201 671 q 399 732 325 732 q 569 679 497 732 q 693 553 642 626 l 693 721 l 721 721 l 721 -31 q 676 -187 721 -125 q 558 -280 631 -250 q 403 -310 485 -310 q 203 -262 275 -310 q 90 -137 131 -214 l 117 -129 q 238 -246 161 -210 q 403 -282 315 -282 q 548 -253 482 -282 q 653 -169 614 -225 q 693 -31 693 -112 l 693 150 q 570 32 647 78 q 411 -14 493 -14 m 411 14 q 511 33 463 14 q 600 85 560 53 q 665 157 640 118 q 693 235 690 196 l 693 494 q 624 603 671 556 q 519 677 578 650 q 399 704 461 704 q 269 674 326 704 q 172 592 211 643 q 113 481 133 542 q 92 358 92 419 q 116 228 92 290 q 185 118 140 167 q 287 42 229 69 q 411 14 344 14 m 300 1014 l 418 926 l 536 1014 l 558 997 l 429 894 l 407 894 l 278 997 l 300 1014 z "},"ĝ":{"ha":838,"x_min":64,"x_max":721,"o":"m 411 -14 q 272 18 336 -14 q 162 103 208 50 q 90 223 115 157 q 64 358 64 289 q 88 498 64 431 q 157 618 113 565 q 263 701 201 671 q 399 732 325 732 q 569 679 497 732 q 693 553 642 626 l 693 721 l 721 721 l 721 -31 q 676 -187 721 -125 q 558 -280 631 -250 q 403 -310 485 -310 q 203 -262 275 -310 q 90 -137 131 -214 l 117 -129 q 238 -246 161 -210 q 403 -282 315 -282 q 548 -253 482 -282 q 653 -169 614 -225 q 693 -31 693 -112 l 693 150 q 570 32 647 78 q 411 -14 493 -14 m 411 14 q 511 33 463 14 q 600 85 560 53 q 665 157 640 118 q 693 235 690 196 l 693 494 q 624 603 671 556 q 519 677 578 650 q 399 704 461 704 q 269 674 326 704 q 172 592 211 643 q 113 481 133 542 q 92 358 92 419 q 116 228 92 290 q 185 118 140 167 q 287 42 229 69 q 411 14 344 14 m 278 911 l 407 1014 l 429 1014 l 558 911 l 536 894 l 418 982 l 300 894 l 278 911 z "},"ģ":{"ha":838,"x_min":64,"x_max":721,"o":"m 411 -14 q 272 18 336 -14 q 162 103 208 50 q 90 223 115 157 q 64 358 64 289 q 88 498 64 431 q 157 618 113 565 q 263 701 201 671 q 399 732 325 732 q 569 679 497 732 q 693 553 642 626 l 693 721 l 721 721 l 721 -31 q 676 -187 721 -125 q 558 -280 631 -250 q 403 -310 485 -310 q 203 -262 275 -310 q 90 -137 131 -214 l 117 -129 q 238 -246 161 -210 q 403 -282 315 -282 q 548 -253 482 -282 q 653 -169 614 -225 q 693 -31 693 -112 l 693 150 q 570 32 647 78 q 411 -14 493 -14 m 411 14 q 511 33 463 14 q 600 85 560 53 q 665 157 640 118 q 693 235 690 196 l 693 494 q 624 603 671 556 q 519 677 578 650 q 399 704 461 704 q 269 674 326 704 q 172 592 211 643 q 113 481 133 542 q 92 358 92 419 q 116 228 92 290 q 185 118 140 167 q 287 42 229 69 q 411 14 344 14 m 436 1014 l 422 933 l 435 933 l 435 851 l 399 851 l 399 933 l 417 1014 l 436 1014 z "},"ġ":{"ha":838,"x_min":64,"x_max":721,"o":"m 411 -14 q 272 18 336 -14 q 162 103 208 50 q 90 223 115 157 q 64 358 64 289 q 88 498 64 431 q 157 618 113 565 q 263 701 201 671 q 399 732 325 732 q 569 679 497 732 q 693 553 642 626 l 693 721 l 721 721 l 721 -31 q 676 -187 721 -125 q 558 -280 631 -250 q 403 -310 485 -310 q 203 -262 275 -310 q 90 -137 131 -214 l 117 -129 q 238 -246 161 -210 q 403 -282 315 -282 q 548 -253 482 -282 q 653 -169 614 -225 q 693 -31 693 -112 l 693 150 q 570 32 647 78 q 411 -14 493 -14 m 411 14 q 511 33 463 14 q 600 85 560 53 q 665 157 640 118 q 693 235 690 196 l 693 494 q 624 603 671 556 q 519 677 578 650 q 399 704 461 704 q 269 674 326 704 q 172 592 211 643 q 113 481 133 542 q 92 358 92 419 q 116 228 92 290 q 185 118 140 167 q 287 42 229 69 q 411 14 344 14 m 404 907 l 404 1014 l 432 1014 l 432 907 l 404 907 z "},"ḡ":{"ha":838,"x_min":64,"x_max":721,"o":"m 411 -14 q 272 18 336 -14 q 162 103 208 50 q 90 223 115 157 q 64 358 64 289 q 88 498 64 431 q 157 618 113 565 q 263 701 201 671 q 399 732 325 732 q 569 679 497 732 q 693 553 642 626 l 693 721 l 721 721 l 721 -31 q 676 -187 721 -125 q 558 -280 631 -250 q 403 -310 485 -310 q 203 -262 275 -310 q 90 -137 131 -214 l 117 -129 q 238 -246 161 -210 q 403 -282 315 -282 q 548 -253 482 -282 q 653 -169 614 -225 q 693 -31 693 -112 l 693 150 q 570 32 647 78 q 411 -14 493 -14 m 411 14 q 511 33 463 14 q 600 85 560 53 q 665 157 640 118 q 693 235 690 196 l 693 494 q 624 603 671 556 q 519 677 578 650 q 399 704 461 704 q 269 674 326 704 q 172 592 211 643 q 113 481 133 542 q 92 358 92 419 q 116 228 92 290 q 185 118 140 167 q 287 42 229 69 q 411 14 344 14 m 224 953 l 224 981 l 613 981 l 613 953 l 224 953 z "},"h":{"ha":785,"x_min":117,"x_max":676,"o":"m 676 0 l 649 0 l 649 401 q 598 628 649 551 q 449 704 547 704 q 319 672 382 704 q 210 583 256 639 q 144 456 164 526 l 144 0 l 117 0 l 117 1014 l 144 1014 l 144 535 q 272 678 189 625 q 447 732 354 732 q 547 711 504 732 q 618 648 589 690 q 662 544 647 606 q 676 401 676 483 l 676 0 z "},"ħ":{"ha":785,"x_min":14,"x_max":676,"o":"m 14 879 l 14 907 l 319 907 l 319 879 l 14 879 m 676 0 l 649 0 l 649 401 q 598 628 649 551 q 449 704 547 704 q 319 672 382 704 q 210 583 256 639 q 144 456 164 526 l 144 0 l 117 0 l 117 1014 l 144 1014 l 144 535 q 272 678 189 625 q 447 732 354 732 q 547 711 504 732 q 618 648 589 690 q 662 544 647 606 q 676 401 676 483 l 676 0 z "},"ḫ":{"ha":785,"x_min":117,"x_max":676,"o":"m 676 0 l 649 0 l 649 401 q 598 628 649 551 q 449 704 547 704 q 319 672 382 704 q 210 583 256 639 q 144 456 164 526 l 144 0 l 117 0 l 117 1014 l 144 1014 l 144 535 q 272 678 189 625 q 447 732 354 732 q 547 711 504 732 q 618 648 589 690 q 662 544 647 606 q 676 401 676 483 l 676 0 m 393 -142 q 444 -117 421 -142 q 471 -58 467 -93 l 496 -58 q 465 -133 496 -101 q 393 -165 433 -165 q 322 -133 353 -165 q 290 -58 290 -101 l 317 -58 q 340 -115 317 -89 q 393 -142 364 -142 z "},"ĥ":{"ha":785,"x_min":117,"x_max":676,"o":"m 676 0 l 649 0 l 649 401 q 598 628 649 551 q 449 704 547 704 q 319 672 382 704 q 210 583 256 639 q 144 456 164 526 l 144 0 l 117 0 l 117 1014 l 144 1014 l 144 535 q 272 678 189 625 q 447 732 354 732 q 547 711 504 732 q 618 648 589 690 q 662 544 647 606 q 676 401 676 483 l 676 0 m 286 1176 l 415 1279 l 438 1279 l 567 1176 l 544 1160 l 426 1247 l 308 1160 l 286 1176 z "},"ḥ":{"ha":785,"x_min":117,"x_max":676,"o":"m 676 0 l 649 0 l 649 401 q 598 628 649 551 q 449 704 547 704 q 319 672 382 704 q 210 583 256 639 q 144 456 164 526 l 144 0 l 117 0 l 117 1014 l 144 1014 l 144 535 q 272 678 189 625 q 447 732 354 732 q 547 711 504 732 q 618 648 589 690 q 662 544 647 606 q 676 401 676 483 l 676 0 m 379 -176 l 379 -69 l 407 -69 l 407 -176 l 379 -176 z "},"i":{"ha":261,"x_min":117,"x_max":144,"o":"m 117 0 l 117 721 l 144 721 l 144 0 l 117 0 m 117 907 l 117 1014 l 144 1014 l 144 907 l 117 907 z "},"ı":{"ha":261,"x_min":117,"x_max":144,"o":"m 117 0 l 117 721 l 144 721 l 144 0 l 117 0 z "},"í":{"ha":261,"x_min":117,"x_max":253,"o":"m 117 0 l 117 721 l 144 721 l 144 0 l 117 0 m 139 896 l 117 913 l 206 1014 l 253 1014 l 139 896 z "},"ĭ":{"ha":261,"x_min":28,"x_max":233,"o":"m 117 0 l 117 721 l 144 721 l 144 0 l 117 0 m 131 931 q 181 955 158 931 q 208 1014 204 979 l 233 1014 q 202 939 233 971 q 131 907 171 907 q 59 939 90 907 q 28 1014 28 971 l 54 1014 q 78 957 54 983 q 131 931 101 931 z "},"î":{"ha":261,"x_min":-10,"x_max":271,"o":"m 117 0 l 117 721 l 144 721 l 144 0 l 117 0 m -10 911 l 119 1014 l 142 1014 l 271 911 l 249 894 l 131 982 l 13 894 l -10 911 z "},"ȉ":{"ha":261,"x_min":-50,"x_max":225,"o":"m 117 0 l 117 721 l 144 721 l 144 0 l 117 0 m 89 1014 l 136 1014 l 225 913 l 203 896 l 89 1014 m -50 1014 l -3 1014 l 86 913 l 64 896 l -50 1014 z "},"ï":{"ha":261,"x_min":36,"x_max":225,"o":"m 117 0 l 117 721 l 144 721 l 144 0 l 117 0 m 36 907 l 36 1014 l 64 1014 l 64 907 l 36 907 m 197 907 l 197 1014 l 225 1014 l 225 907 l 197 907 z "},"ḯ":{"ha":261,"x_min":36,"x_max":253,"o":"m 117 0 l 117 721 l 144 721 l 144 0 l 117 0 m 36 907 l 36 1014 l 64 1014 l 64 907 l 36 907 m 197 907 l 197 1014 l 225 1014 l 225 907 l 197 907 m 139 1175 l 117 1192 l 206 1293 l 253 1293 l 139 1175 z "},"ị":{"ha":261,"x_min":117,"x_max":144,"o":"m 117 0 l 117 721 l 144 721 l 144 0 l 117 0 m 117 907 l 117 1014 l 144 1014 l 144 907 l 117 907 m 117 -176 l 117 -69 l 144 -69 l 144 -176 l 117 -176 z "},"ì":{"ha":261,"x_min":36,"x_max":172,"o":"m 117 0 l 117 721 l 144 721 l 144 0 l 117 0 m 36 1014 l 82 1014 l 172 913 l 150 896 l 36 1014 z "},"ỉ":{"ha":261,"x_min":24,"x_max":189,"o":"m 117 0 l 117 721 l 144 721 l 144 0 l 117 0 m 40 910 l 24 928 q 65 958 46 947 q 110 969 83 969 q 166 949 143 969 q 189 890 189 928 q 173 844 189 864 q 133 797 157 825 l 117 813 q 151 856 139 838 q 164 890 164 874 q 151 928 164 913 q 107 944 138 944 q 75 936 89 944 q 40 910 61 928 z "},"ȋ":{"ha":261,"x_min":28,"x_max":233,"o":"m 117 0 l 117 721 l 144 721 l 144 0 l 117 0 m 131 990 q 78 965 101 990 q 54 907 54 939 l 28 907 q 59 982 28 950 q 131 1014 90 1014 q 202 982 171 1014 q 233 907 233 950 l 208 907 q 181 966 204 942 q 131 990 158 990 z "},"ī":{"ha":261,"x_min":-64,"x_max":325,"o":"m 117 0 l 117 721 l 144 721 l 144 0 l 117 0 m -64 953 l -64 981 l 325 981 l 325 953 l -64 953 z "},"į":{"ha":261,"x_min":10,"x_max":144,"o":"m 117 0 l 117 721 l 144 721 l 144 0 l 117 0 m 117 907 l 117 1014 l 144 1014 l 144 907 l 117 907 m 10 -139 q 39 -64 10 -101 q 124 17 68 -26 l 131 17 l 144 0 q 64 -74 89 -43 q 39 -135 39 -106 q 61 -176 39 -161 q 139 -204 83 -192 l 122 -228 q 57 -208 82 -219 q 21 -178 32 -196 q 10 -139 10 -161 z "},"ĩ":{"ha":261,"x_min":-62,"x_max":322,"o":"m 117 0 l 117 721 l 144 721 l 144 0 l 117 0 m 210 921 q 141 934 169 921 q 89 960 113 947 q 36 974 65 974 q -8 959 7 974 q -29 928 -24 944 q -35 907 -35 911 l -62 907 q -59 924 -62 910 q -46 956 -56 939 q -16 987 -36 974 q 39 1000 4 1000 q 101 987 75 1000 q 152 960 126 974 q 213 947 178 947 q 268 963 251 947 q 290 994 285 978 q 294 1014 294 1011 l 322 1014 q 319 994 322 1010 q 304 963 315 979 q 270 933 293 946 q 210 921 247 921 z "},"j":{"ha":272,"x_min":-168,"x_max":156,"o":"m -29 -236 q -105 -226 -69 -236 q -168 -189 -140 -215 l -146 -172 q -90 -201 -121 -194 q -31 -208 -60 -208 q 44 -187 8 -208 q 104 -131 81 -167 q 128 -50 128 -94 l 128 721 l 156 721 l 156 -50 q 127 -146 156 -104 q 56 -212 99 -187 q -29 -236 14 -236 m 128 907 l 128 1014 l 156 1014 l 156 907 l 128 907 z "},"ȷ":{"ha":261,"x_min":-179,"x_max":144,"o":"m -40 -236 q -116 -226 -81 -236 q -179 -189 -151 -215 l -157 -172 q -101 -201 -132 -194 q -42 -208 -71 -208 q 33 -187 -3 -208 q 93 -131 69 -167 q 117 -50 117 -94 l 117 721 l 144 721 l 144 -50 q 116 -146 144 -104 q 45 -212 88 -187 q -40 -236 3 -236 z "},"ĵ":{"ha":261,"x_min":-179,"x_max":271,"o":"m -40 -236 q -116 -226 -81 -236 q -179 -189 -151 -215 l -157 -172 q -101 -201 -132 -194 q -42 -208 -71 -208 q 33 -187 -3 -208 q 93 -131 69 -167 q 117 -50 117 -94 l 117 721 l 144 721 l 144 -50 q 116 -146 144 -104 q 45 -212 88 -187 q -40 -236 3 -236 m -10 911 l 119 1014 l 142 1014 l 271 911 l 249 894 l 131 982 l 13 894 l -10 911 z "},"k":{"ha":706,"x_min":117,"x_max":681,"o":"m 647 0 l 340 413 l 144 235 l 144 0 l 117 0 l 117 1014 l 144 1014 l 144 272 l 636 718 l 674 718 l 361 432 l 681 0 l 647 0 z "},"ķ":{"ha":706,"x_min":117,"x_max":681,"o":"m 647 0 l 340 413 l 144 235 l 144 0 l 117 0 l 117 1014 l 144 1014 l 144 272 l 636 718 l 674 718 l 361 432 l 681 0 l 647 0 m 344 -232 l 358 -151 l 346 -151 l 346 -69 l 382 -69 l 382 -151 l 364 -232 l 344 -232 z "},"ĸ":{"ha":706,"x_min":117,"x_max":681,"o":"m 647 0 l 340 413 l 144 235 l 144 0 l 117 0 l 117 721 l 144 721 l 144 272 l 636 718 l 674 718 l 361 432 l 681 0 l 647 0 z "},"l":{"ha":331,"x_min":125,"x_max":331,"o":"m 125 1014 l 153 1014 l 153 107 q 178 43 153 67 q 244 19 203 19 q 281 23 260 19 q 321 32 303 26 l 331 10 q 283 -1 313 4 q 235 -7 254 -7 q 156 24 186 -7 q 125 107 125 56 l 125 1014 z "},"ĺ":{"ha":331,"x_min":125,"x_max":331,"o":"m 125 1014 l 153 1014 l 153 107 q 178 43 153 67 q 244 19 203 19 q 281 23 260 19 q 321 32 303 26 l 331 10 q 283 -1 313 4 q 235 -7 254 -7 q 156 24 186 -7 q 125 107 125 56 l 125 1014 m 149 1161 l 126 1178 l 215 1279 l 263 1279 l 149 1161 z "},"ľ":{"ha":331,"x_min":125,"x_max":360,"o":"m 125 1014 l 153 1014 l 153 107 q 178 43 153 67 q 244 19 203 19 q 281 23 260 19 q 321 32 303 26 l 331 10 q 283 -1 313 4 q 235 -7 254 -7 q 156 24 186 -7 q 125 107 125 56 l 125 1014 m 246 896 l 224 913 l 313 1014 l 360 1014 l 246 896 z "},"ļ":{"ha":331,"x_min":125,"x_max":331,"o":"m 125 1014 l 153 1014 l 153 107 q 178 43 153 67 q 244 19 203 19 q 281 23 260 19 q 321 32 303 26 l 331 10 q 283 -1 313 4 q 235 -7 254 -7 q 156 24 186 -7 q 125 107 125 56 l 125 1014 m 201 -232 l 215 -151 l 203 -151 l 203 -69 l 239 -69 l 239 -151 l 221 -232 l 201 -232 z "},"ŀ":{"ha":354,"x_min":125,"x_max":331,"o":"m 125 1014 l 153 1014 l 153 107 q 178 43 153 67 q 244 19 203 19 q 281 23 260 19 q 321 32 303 26 l 331 10 q 283 -1 313 4 q 235 -7 254 -7 q 156 24 186 -7 q 125 107 125 56 l 125 1014 m 300 347 l 300 463 l 328 463 l 328 347 l 300 347 z "},"ḷ":{"ha":331,"x_min":125,"x_max":331,"o":"m 125 1014 l 153 1014 l 153 107 q 178 43 153 67 q 244 19 203 19 q 281 23 260 19 q 321 32 303 26 l 331 10 q 283 -1 313 4 q 235 -7 254 -7 q 156 24 186 -7 q 125 107 125 56 l 125 1014 m 211 -176 l 211 -69 l 239 -69 l 239 -176 l 211 -176 z "},"ḻ":{"ha":331,"x_min":31,"x_max":419,"o":"m 125 1014 l 153 1014 l 153 107 q 178 43 153 67 q 244 19 203 19 q 281 23 260 19 q 321 32 303 26 l 331 10 q 283 -1 313 4 q 235 -7 254 -7 q 156 24 186 -7 q 125 107 125 56 l 125 1014 m 31 -132 l 31 -104 l 419 -104 l 419 -132 l 31 -132 z "},"ł":{"ha":351,"x_min":22,"x_max":350,"o":"m 43 422 l 22 442 l 300 719 l 321 700 l 43 422 m 144 1014 l 172 1014 l 172 107 q 197 43 172 67 q 264 19 222 19 q 301 23 279 19 q 340 32 322 26 l 350 10 q 303 -1 332 4 q 254 -7 274 -7 q 175 24 206 -7 q 144 107 144 56 l 144 1014 z "},"m":{"ha":1261,"x_min":117,"x_max":1153,"o":"m 1153 0 l 1125 0 l 1125 401 q 1078 630 1125 556 q 932 704 1031 704 q 753 634 829 704 q 649 454 678 564 l 649 0 l 621 0 l 621 401 q 574 631 621 558 q 429 704 528 704 q 252 635 328 704 q 144 456 176 567 l 144 0 l 117 0 l 117 721 l 144 721 l 144 535 q 265 681 192 629 q 424 732 339 732 q 574 675 514 732 q 643 522 633 618 q 769 680 697 628 q 932 732 840 732 q 1030 712 989 732 q 1099 651 1071 692 q 1140 547 1126 610 q 1153 401 1153 485 l 1153 0 z "},"ṃ":{"ha":1261,"x_min":117,"x_max":1153,"o":"m 1153 0 l 1125 0 l 1125 401 q 1078 630 1125 556 q 932 704 1031 704 q 753 634 829 704 q 649 454 678 564 l 649 0 l 621 0 l 621 401 q 574 631 621 558 q 429 704 528 704 q 252 635 328 704 q 144 456 176 567 l 144 0 l 117 0 l 117 721 l 144 721 l 144 535 q 265 681 192 629 q 424 732 339 732 q 574 675 514 732 q 643 522 633 618 q 769 680 697 628 q 932 732 840 732 q 1030 712 989 732 q 1099 651 1071 692 q 1140 547 1126 610 q 1153 401 1153 485 l 1153 0 m 617 -176 l 617 -69 l 644 -69 l 644 -176 l 617 -176 z "},"n":{"ha":785,"x_min":117,"x_max":676,"o":"m 676 0 l 649 0 l 649 401 q 605 631 649 558 q 464 704 561 704 q 328 672 394 704 q 214 583 263 639 q 144 456 165 526 l 144 0 l 117 0 l 117 721 l 144 721 l 144 535 q 225 638 175 593 q 337 707 275 682 q 463 732 399 732 q 558 712 518 732 q 625 651 599 692 q 664 549 651 611 q 676 401 676 486 l 676 0 z "},"ń":{"ha":785,"x_min":117,"x_max":676,"o":"m 676 0 l 649 0 l 649 401 q 605 631 649 558 q 464 704 561 704 q 328 672 394 704 q 214 583 263 639 q 144 456 165 526 l 144 0 l 117 0 l 117 721 l 144 721 l 144 535 q 225 638 175 593 q 337 707 275 682 q 463 732 399 732 q 558 712 518 732 q 625 651 599 692 q 664 549 651 611 q 676 401 676 486 l 676 0 m 397 896 l 375 913 l 464 1014 l 511 1014 l 397 896 z "},"ň":{"ha":785,"x_min":117,"x_max":676,"o":"m 676 0 l 649 0 l 649 401 q 605 631 649 558 q 464 704 561 704 q 328 672 394 704 q 214 583 263 639 q 144 456 165 526 l 144 0 l 117 0 l 117 721 l 144 721 l 144 535 q 225 638 175 593 q 337 707 275 682 q 463 732 399 732 q 558 712 518 732 q 625 651 599 692 q 664 549 651 611 q 676 401 676 486 l 676 0 m 271 1014 l 389 926 l 507 1014 l 529 997 l 400 894 l 378 894 l 249 997 l 271 1014 z "},"ņ":{"ha":785,"x_min":117,"x_max":676,"o":"m 676 0 l 649 0 l 649 401 q 605 631 649 558 q 464 704 561 704 q 328 672 394 704 q 214 583 263 639 q 144 456 165 526 l 144 0 l 117 0 l 117 721 l 144 721 l 144 535 q 225 638 175 593 q 337 707 275 682 q 463 732 399 732 q 558 712 518 732 q 625 651 599 692 q 664 549 651 611 q 676 401 676 486 l 676 0 m 365 -232 l 379 -151 l 367 -151 l 367 -69 l 403 -69 l 403 -151 l 385 -232 l 365 -232 z "},"ṅ":{"ha":785,"x_min":117,"x_max":676,"o":"m 676 0 l 649 0 l 649 401 q 605 631 649 558 q 464 704 561 704 q 328 672 394 704 q 214 583 263 639 q 144 456 165 526 l 144 0 l 117 0 l 117 721 l 144 721 l 144 535 q 225 638 175 593 q 337 707 275 682 q 463 732 399 732 q 558 712 518 732 q 625 651 599 692 q 664 549 651 611 q 676 401 676 486 l 676 0 m 375 907 l 375 1014 l 403 1014 l 403 907 l 375 907 z "},"ṇ":{"ha":785,"x_min":117,"x_max":676,"o":"m 676 0 l 649 0 l 649 401 q 605 631 649 558 q 464 704 561 704 q 328 672 394 704 q 214 583 263 639 q 144 456 165 526 l 144 0 l 117 0 l 117 721 l 144 721 l 144 535 q 225 638 175 593 q 337 707 275 682 q 463 732 399 732 q 558 712 518 732 q 625 651 599 692 q 664 549 651 611 q 676 401 676 486 l 676 0 m 375 -176 l 375 -69 l 403 -69 l 403 -176 l 375 -176 z "},"ŋ":{"ha":785,"x_min":117,"x_max":676,"o":"m 492 -236 q 416 -226 451 -236 q 353 -189 381 -215 l 375 -172 q 431 -201 400 -194 q 490 -208 461 -208 q 565 -187 529 -208 q 625 -131 601 -167 q 649 -50 649 -94 l 649 401 q 605 631 649 558 q 464 704 561 704 q 328 672 394 704 q 214 583 263 639 q 144 456 165 526 l 144 0 l 117 0 l 117 721 l 144 721 l 144 535 q 225 638 175 593 q 337 707 275 682 q 463 732 399 732 q 558 712 518 732 q 625 651 599 692 q 664 549 651 611 q 676 401 676 486 l 676 -50 q 648 -146 676 -104 q 577 -212 619 -187 q 492 -236 535 -236 z "},"ṉ":{"ha":785,"x_min":117,"x_max":676,"o":"m 676 0 l 649 0 l 649 401 q 605 631 649 558 q 464 704 561 704 q 328 672 394 704 q 214 583 263 639 q 144 456 165 526 l 144 0 l 117 0 l 117 721 l 144 721 l 144 535 q 225 638 175 593 q 337 707 275 682 q 463 732 399 732 q 558 712 518 732 q 625 651 599 692 q 664 549 651 611 q 676 401 676 486 l 676 0 m 194 -132 l 194 -104 l 583 -104 l 583 -132 l 194 -132 z "},"ñ":{"ha":785,"x_min":117,"x_max":676,"o":"m 676 0 l 649 0 l 649 401 q 605 631 649 558 q 464 704 561 704 q 328 672 394 704 q 214 583 263 639 q 144 456 165 526 l 144 0 l 117 0 l 117 721 l 144 721 l 144 535 q 225 638 175 593 q 337 707 275 682 q 463 732 399 732 q 558 712 518 732 q 625 651 599 692 q 664 549 651 611 q 676 401 676 486 l 676 0 m 468 921 q 399 934 428 921 q 347 960 371 947 q 294 974 324 974 q 250 959 265 974 q 229 928 235 944 q 224 907 224 911 l 196 907 q 199 924 196 910 q 213 956 203 939 q 242 987 222 974 q 297 1000 263 1000 q 359 987 333 1000 q 410 960 385 974 q 471 947 436 947 q 526 963 510 947 q 548 994 543 978 q 553 1014 553 1011 l 581 1014 q 577 994 581 1010 q 563 963 574 979 q 528 933 551 946 q 468 921 506 921 z "},"o":{"ha":814,"x_min":64,"x_max":750,"o":"m 407 -14 q 274 15 336 -14 q 164 97 211 44 q 90 216 117 149 q 64 358 64 283 q 91 502 64 435 q 165 622 118 569 q 275 703 213 674 q 407 732 338 732 q 539 703 476 732 q 649 622 601 674 q 723 502 696 569 q 750 358 750 435 q 724 216 750 283 q 649 97 697 149 q 540 15 601 44 q 407 -14 478 -14 m 92 356 q 134 185 92 263 q 248 60 176 107 q 406 14 319 14 q 564 61 492 14 q 679 188 636 108 q 722 360 722 267 q 679 531 722 453 q 565 657 636 610 q 407 704 493 704 q 250 656 322 704 q 135 529 178 608 q 92 356 92 450 z "},"ó":{"ha":814,"x_min":64,"x_max":750,"o":"m 407 -14 q 274 15 336 -14 q 164 97 211 44 q 90 216 117 149 q 64 358 64 283 q 91 502 64 435 q 165 622 118 569 q 275 703 213 674 q 407 732 338 732 q 539 703 476 732 q 649 622 601 674 q 723 502 696 569 q 750 358 750 435 q 724 216 750 283 q 649 97 697 149 q 540 15 601 44 q 407 -14 478 -14 m 92 356 q 134 185 92 263 q 248 60 176 107 q 406 14 319 14 q 564 61 492 14 q 679 188 636 108 q 722 360 722 267 q 679 531 722 453 q 565 657 636 610 q 407 704 493 704 q 250 656 322 704 q 135 529 178 608 q 92 356 92 450 m 415 896 l 393 913 l 482 1014 l 529 1014 l 415 896 z "},"ŏ":{"ha":814,"x_min":64,"x_max":750,"o":"m 407 -14 q 274 15 336 -14 q 164 97 211 44 q 90 216 117 149 q 64 358 64 283 q 91 502 64 435 q 165 622 118 569 q 275 703 213 674 q 407 732 338 732 q 539 703 476 732 q 649 622 601 674 q 723 502 696 569 q 750 358 750 435 q 724 216 750 283 q 649 97 697 149 q 540 15 601 44 q 407 -14 478 -14 m 92 356 q 134 185 92 263 q 248 60 176 107 q 406 14 319 14 q 564 61 492 14 q 679 188 636 108 q 722 360 722 267 q 679 531 722 453 q 565 657 636 610 q 407 704 493 704 q 250 656 322 704 q 135 529 178 608 q 92 356 92 450 m 407 931 q 458 955 435 931 q 485 1014 481 979 l 510 1014 q 478 939 510 971 q 407 907 447 907 q 335 939 367 907 q 304 1014 304 971 l 331 1014 q 354 957 331 983 q 407 931 378 931 z "},"ô":{"ha":814,"x_min":64,"x_max":750,"o":"m 407 -14 q 274 15 336 -14 q 164 97 211 44 q 90 216 117 149 q 64 358 64 283 q 91 502 64 435 q 165 622 118 569 q 275 703 213 674 q 407 732 338 732 q 539 703 476 732 q 649 622 601 674 q 723 502 696 569 q 750 358 750 435 q 724 216 750 283 q 649 97 697 149 q 540 15 601 44 q 407 -14 478 -14 m 92 356 q 134 185 92 263 q 248 60 176 107 q 406 14 319 14 q 564 61 492 14 q 679 188 636 108 q 722 360 722 267 q 679 531 722 453 q 565 657 636 610 q 407 704 493 704 q 250 656 322 704 q 135 529 178 608 q 92 356 92 450 m 267 911 l 396 1014 l 418 1014 l 547 911 l 525 894 l 407 982 l 289 894 l 267 911 z "},"ố":{"ha":814,"x_min":64,"x_max":750,"o":"m 407 -14 q 274 15 336 -14 q 164 97 211 44 q 90 216 117 149 q 64 358 64 283 q 91 502 64 435 q 165 622 118 569 q 275 703 213 674 q 407 732 338 732 q 539 703 476 732 q 649 622 601 674 q 723 502 696 569 q 750 358 750 435 q 724 216 750 283 q 649 97 697 149 q 540 15 601 44 q 407 -14 478 -14 m 92 356 q 134 185 92 263 q 248 60 176 107 q 406 14 319 14 q 564 61 492 14 q 679 188 636 108 q 722 360 722 267 q 679 531 722 453 q 565 657 636 610 q 407 704 493 704 q 250 656 322 704 q 135 529 178 608 q 92 356 92 450 z "},"ộ":{"ha":814,"x_min":64,"x_max":750,"o":"m 407 -14 q 274 15 336 -14 q 164 97 211 44 q 90 216 117 149 q 64 358 64 283 q 91 502 64 435 q 165 622 118 569 q 275 703 213 674 q 407 732 338 732 q 539 703 476 732 q 649 622 601 674 q 723 502 696 569 q 750 358 750 435 q 724 216 750 283 q 649 97 697 149 q 540 15 601 44 q 407 -14 478 -14 m 92 356 q 134 185 92 263 q 248 60 176 107 q 406 14 319 14 q 564 61 492 14 q 679 188 636 108 q 722 360 722 267 q 679 531 722 453 q 565 657 636 610 q 407 704 493 704 q 250 656 322 704 q 135 529 178 608 q 92 356 92 450 m 392 -176 l 392 -69 l 419 -69 l 419 -176 l 392 -176 m 267 911 l 396 1014 l 418 1014 l 547 911 l 525 894 l 407 982 l 289 894 l 267 911 z "},"ồ":{"ha":814,"x_min":64,"x_max":750,"o":"m 407 -14 q 274 15 336 -14 q 164 97 211 44 q 90 216 117 149 q 64 358 64 283 q 91 502 64 435 q 165 622 118 569 q 275 703 213 674 q 407 732 338 732 q 539 703 476 732 q 649 622 601 674 q 723 502 696 569 q 750 358 750 435 q 724 216 750 283 q 649 97 697 149 q 540 15 601 44 q 407 -14 478 -14 m 92 356 q 134 185 92 263 q 248 60 176 107 q 406 14 319 14 q 564 61 492 14 q 679 188 636 108 q 722 360 722 267 q 679 531 722 453 q 565 657 636 610 q 407 704 493 704 q 250 656 322 704 q 135 529 178 608 q 92 356 92 450 z "},"ổ":{"ha":814,"x_min":64,"x_max":750,"o":"m 407 -14 q 274 15 336 -14 q 164 97 211 44 q 90 216 117 149 q 64 358 64 283 q 91 502 64 435 q 165 622 118 569 q 275 703 213 674 q 407 732 338 732 q 539 703 476 732 q 649 622 601 674 q 723 502 696 569 q 750 358 750 435 q 724 216 750 283 q 649 97 697 149 q 540 15 601 44 q 407 -14 478 -14 m 92 356 q 134 185 92 263 q 248 60 176 107 q 406 14 319 14 q 564 61 492 14 q 679 188 636 108 q 722 360 722 267 q 679 531 722 453 q 565 657 636 610 q 407 704 493 704 q 250 656 322 704 q 135 529 178 608 q 92 356 92 450 z "},"ỗ":{"ha":814,"x_min":64,"x_max":750,"o":"m 407 -14 q 274 15 336 -14 q 164 97 211 44 q 90 216 117 149 q 64 358 64 283 q 91 502 64 435 q 165 622 118 569 q 275 703 213 674 q 407 732 338 732 q 539 703 476 732 q 649 622 601 674 q 723 502 696 569 q 750 358 750 435 q 724 216 750 283 q 649 97 697 149 q 540 15 601 44 q 407 -14 478 -14 m 92 356 q 134 185 92 263 q 248 60 176 107 q 406 14 319 14 q 564 61 492 14 q 679 188 636 108 q 722 360 722 267 q 679 531 722 453 q 565 657 636 610 q 407 704 493 704 q 250 656 322 704 q 135 529 178 608 q 92 356 92 450 z "},"ȍ":{"ha":814,"x_min":64,"x_max":750,"o":"m 407 -14 q 274 15 336 -14 q 164 97 211 44 q 90 216 117 149 q 64 358 64 283 q 91 502 64 435 q 165 622 118 569 q 275 703 213 674 q 407 732 338 732 q 539 703 476 732 q 649 622 601 674 q 723 502 696 569 q 750 358 750 435 q 724 216 750 283 q 649 97 697 149 q 540 15 601 44 q 407 -14 478 -14 m 92 356 q 134 185 92 263 q 248 60 176 107 q 406 14 319 14 q 564 61 492 14 q 679 188 636 108 q 722 360 722 267 q 679 531 722 453 q 565 657 636 610 q 407 704 493 704 q 250 656 322 704 q 135 529 178 608 q 92 356 92 450 m 365 1014 l 413 1014 l 501 913 l 479 896 l 365 1014 m 226 1014 l 274 1014 l 363 913 l 340 896 l 226 1014 z "},"ö":{"ha":814,"x_min":64,"x_max":750,"o":"m 407 -14 q 274 15 336 -14 q 164 97 211 44 q 90 216 117 149 q 64 358 64 283 q 91 502 64 435 q 165 622 118 569 q 275 703 213 674 q 407 732 338 732 q 539 703 476 732 q 649 622 601 674 q 723 502 696 569 q 750 358 750 435 q 724 216 750 283 q 649 97 697 149 q 540 15 601 44 q 407 -14 478 -14 m 92 356 q 134 185 92 263 q 248 60 176 107 q 406 14 319 14 q 564 61 492 14 q 679 188 636 108 q 722 360 722 267 q 679 531 722 453 q 565 657 636 610 q 407 704 493 704 q 250 656 322 704 q 135 529 178 608 q 92 356 92 450 m 313 907 l 313 1014 l 340 1014 l 340 907 l 313 907 m 474 907 l 474 1014 l 501 1014 l 501 907 l 474 907 z "},"ȫ":{"ha":814,"x_min":64,"x_max":750,"o":"m 407 -14 q 274 15 336 -14 q 164 97 211 44 q 90 216 117 149 q 64 358 64 283 q 91 502 64 435 q 165 622 118 569 q 275 703 213 674 q 407 732 338 732 q 539 703 476 732 q 649 622 601 674 q 723 502 696 569 q 750 358 750 435 q 724 216 750 283 q 649 97 697 149 q 540 15 601 44 q 407 -14 478 -14 m 92 356 q 134 185 92 263 q 248 60 176 107 q 406 14 319 14 q 564 61 492 14 q 679 188 636 108 q 722 360 722 267 q 679 531 722 453 q 565 657 636 610 q 407 704 493 704 q 250 656 322 704 q 135 529 178 608 q 92 356 92 450 m 313 907 l 313 1014 l 340 1014 l 340 907 l 313 907 m 474 907 l 474 1014 l 501 1014 l 501 907 l 474 907 m 213 1232 l 213 1260 l 601 1260 l 601 1232 l 213 1232 z "},"ȱ":{"ha":814,"x_min":64,"x_max":750,"o":"m 407 -14 q 274 15 336 -14 q 164 97 211 44 q 90 216 117 149 q 64 358 64 283 q 91 502 64 435 q 165 622 118 569 q 275 703 213 674 q 407 732 338 732 q 539 703 476 732 q 649 622 601 674 q 723 502 696 569 q 750 358 750 435 q 724 216 750 283 q 649 97 697 149 q 540 15 601 44 q 407 -14 478 -14 m 92 356 q 134 185 92 263 q 248 60 176 107 q 406 14 319 14 q 564 61 492 14 q 679 188 636 108 q 722 360 722 267 q 679 531 722 453 q 565 657 636 610 q 407 704 493 704 q 250 656 322 704 q 135 529 178 608 q 92 356 92 450 m 393 907 l 393 1014 l 421 1014 l 421 907 l 393 907 m 213 1246 l 213 1274 l 601 1274 l 601 1246 l 213 1246 z "},"ọ":{"ha":814,"x_min":64,"x_max":750,"o":"m 407 -14 q 274 15 336 -14 q 164 97 211 44 q 90 216 117 149 q 64 358 64 283 q 91 502 64 435 q 165 622 118 569 q 275 703 213 674 q 407 732 338 732 q 539 703 476 732 q 649 622 601 674 q 723 502 696 569 q 750 358 750 435 q 724 216 750 283 q 649 97 697 149 q 540 15 601 44 q 407 -14 478 -14 m 92 356 q 134 185 92 263 q 248 60 176 107 q 406 14 319 14 q 564 61 492 14 q 679 188 636 108 q 722 360 722 267 q 679 531 722 453 q 565 657 636 610 q 407 704 493 704 q 250 656 322 704 q 135 529 178 608 q 92 356 92 450 m 392 -176 l 392 -69 l 419 -69 l 419 -176 l 392 -176 z "},"ò":{"ha":814,"x_min":64,"x_max":750,"o":"m 407 -14 q 274 15 336 -14 q 164 97 211 44 q 90 216 117 149 q 64 358 64 283 q 91 502 64 435 q 165 622 118 569 q 275 703 213 674 q 407 732 338 732 q 539 703 476 732 q 649 622 601 674 q 723 502 696 569 q 750 358 750 435 q 724 216 750 283 q 649 97 697 149 q 540 15 601 44 q 407 -14 478 -14 m 92 356 q 134 185 92 263 q 248 60 176 107 q 406 14 319 14 q 564 61 492 14 q 679 188 636 108 q 722 360 722 267 q 679 531 722 453 q 565 657 636 610 q 407 704 493 704 q 250 656 322 704 q 135 529 178 608 q 92 356 92 450 m 313 1014 l 358 1014 l 449 913 l 426 896 l 313 1014 z "},"ỏ":{"ha":814,"x_min":64,"x_max":750,"o":"m 407 -14 q 274 15 336 -14 q 164 97 211 44 q 90 216 117 149 q 64 358 64 283 q 91 502 64 435 q 165 622 118 569 q 275 703 213 674 q 407 732 338 732 q 539 703 476 732 q 649 622 601 674 q 723 502 696 569 q 750 358 750 435 q 724 216 750 283 q 649 97 697 149 q 540 15 601 44 q 407 -14 478 -14 m 92 356 q 134 185 92 263 q 248 60 176 107 q 406 14 319 14 q 564 61 492 14 q 679 188 636 108 q 722 360 722 267 q 679 531 722 453 q 565 657 636 610 q 407 704 493 704 q 250 656 322 704 q 135 529 178 608 q 92 356 92 450 m 340 947 l 324 965 q 365 996 346 985 q 410 1007 383 1007 q 466 986 443 1007 q 489 928 489 965 q 473 882 489 901 q 433 835 457 863 l 417 850 q 451 893 439 875 q 464 928 464 911 q 451 966 464 950 q 407 982 438 982 q 375 974 389 982 q 340 947 361 965 z "},"ơ":{"ha":814,"x_min":64,"x_max":750,"o":"m 407 -14 q 274 15 336 -14 q 164 97 211 44 q 90 216 117 149 q 64 358 64 283 q 91 502 64 435 q 165 622 118 569 q 275 703 213 674 q 407 732 338 732 q 539 703 476 732 q 649 622 601 674 q 723 502 696 569 q 750 358 750 435 q 724 216 750 283 q 649 97 697 149 q 540 15 601 44 q 407 -14 478 -14 m 92 356 q 134 185 92 263 q 248 60 176 107 q 406 14 319 14 q 564 61 492 14 q 679 188 636 108 q 722 360 722 267 q 679 531 722 453 q 565 657 636 610 q 407 704 493 704 q 250 656 322 704 q 135 529 178 608 q 92 356 92 450 m 488 693 l 488 721 q 555 729 524 721 q 600 753 586 738 q 616 786 611 765 q 622 838 621 807 l 653 838 q 649 794 651 813 q 640 763 646 776 q 622 735 635 750 q 590 713 611 722 q 542 698 569 703 q 488 693 515 693 z "},"ớ":{"ha":814,"x_min":64,"x_max":750,"o":"m 407 -14 q 274 15 336 -14 q 164 97 211 44 q 90 216 117 149 q 64 358 64 283 q 91 502 64 435 q 165 622 118 569 q 275 703 213 674 q 407 732 338 732 q 539 703 476 732 q 649 622 601 674 q 723 502 696 569 q 750 358 750 435 q 724 216 750 283 q 649 97 697 149 q 540 15 601 44 q 407 -14 478 -14 m 92 356 q 134 185 92 263 q 248 60 176 107 q 406 14 319 14 q 564 61 492 14 q 679 188 636 108 q 722 360 722 267 q 679 531 722 453 q 565 657 636 610 q 407 704 493 704 q 250 656 322 704 q 135 529 178 608 q 92 356 92 450 m 488 693 l 488 721 q 555 729 524 721 q 600 753 586 738 q 616 786 611 765 q 622 838 621 807 l 653 838 q 649 794 651 813 q 640 763 646 776 q 622 735 635 750 q 590 713 611 722 q 542 698 569 703 q 488 693 515 693 m 415 896 l 393 913 l 482 1014 l 529 1014 l 415 896 z "},"ợ":{"ha":814,"x_min":64,"x_max":750,"o":"m 407 -14 q 274 15 336 -14 q 164 97 211 44 q 90 216 117 149 q 64 358 64 283 q 91 502 64 435 q 165 622 118 569 q 275 703 213 674 q 407 732 338 732 q 539 703 476 732 q 649 622 601 674 q 723 502 696 569 q 750 358 750 435 q 724 216 750 283 q 649 97 697 149 q 540 15 601 44 q 407 -14 478 -14 m 92 356 q 134 185 92 263 q 248 60 176 107 q 406 14 319 14 q 564 61 492 14 q 679 188 636 108 q 722 360 722 267 q 679 531 722 453 q 565 657 636 610 q 407 704 493 704 q 250 656 322 704 q 135 529 178 608 q 92 356 92 450 m 488 693 l 488 721 q 555 729 524 721 q 600 753 586 738 q 616 786 611 765 q 622 838 621 807 l 653 838 q 649 794 651 813 q 640 763 646 776 q 622 735 635 750 q 590 713 611 722 q 542 698 569 703 q 488 693 515 693 m 392 -176 l 392 -69 l 419 -69 l 419 -176 l 392 -176 z "},"ờ":{"ha":814,"x_min":64,"x_max":750,"o":"m 407 -14 q 274 15 336 -14 q 164 97 211 44 q 90 216 117 149 q 64 358 64 283 q 91 502 64 435 q 165 622 118 569 q 275 703 213 674 q 407 732 338 732 q 539 703 476 732 q 649 622 601 674 q 723 502 696 569 q 750 358 750 435 q 724 216 750 283 q 649 97 697 149 q 540 15 601 44 q 407 -14 478 -14 m 92 356 q 134 185 92 263 q 248 60 176 107 q 406 14 319 14 q 564 61 492 14 q 679 188 636 108 q 722 360 722 267 q 679 531 722 453 q 565 657 636 610 q 407 704 493 704 q 250 656 322 704 q 135 529 178 608 q 92 356 92 450 m 488 693 l 488 721 q 555 729 524 721 q 600 753 586 738 q 616 786 611 765 q 622 838 621 807 l 653 838 q 649 794 651 813 q 640 763 646 776 q 622 735 635 750 q 590 713 611 722 q 542 698 569 703 q 488 693 515 693 m 313 1014 l 358 1014 l 449 913 l 426 896 l 313 1014 z "},"ở":{"ha":814,"x_min":64,"x_max":750,"o":"m 407 -14 q 274 15 336 -14 q 164 97 211 44 q 90 216 117 149 q 64 358 64 283 q 91 502 64 435 q 165 622 118 569 q 275 703 213 674 q 407 732 338 732 q 539 703 476 732 q 649 622 601 674 q 723 502 696 569 q 750 358 750 435 q 724 216 750 283 q 649 97 697 149 q 540 15 601 44 q 407 -14 478 -14 m 92 356 q 134 185 92 263 q 248 60 176 107 q 406 14 319 14 q 564 61 492 14 q 679 188 636 108 q 722 360 722 267 q 679 531 722 453 q 565 657 636 610 q 407 704 493 704 q 250 656 322 704 q 135 529 178 608 q 92 356 92 450 m 488 693 l 488 721 q 555 729 524 721 q 600 753 586 738 q 616 786 611 765 q 622 838 621 807 l 653 838 q 649 794 651 813 q 640 763 646 776 q 622 735 635 750 q 590 713 611 722 q 542 698 569 703 q 488 693 515 693 m 340 947 l 324 965 q 365 996 346 985 q 410 1007 383 1007 q 466 986 443 1007 q 489 928 489 965 q 473 882 489 901 q 433 835 457 863 l 417 850 q 451 893 439 875 q 464 928 464 911 q 451 966 464 950 q 407 982 438 982 q 375 974 389 982 q 340 947 361 965 z "},"ỡ":{"ha":814,"x_min":64,"x_max":750,"o":"m 407 -14 q 274 15 336 -14 q 164 97 211 44 q 90 216 117 149 q 64 358 64 283 q 91 502 64 435 q 165 622 118 569 q 275 703 213 674 q 407 732 338 732 q 539 703 476 732 q 649 622 601 674 q 723 502 696 569 q 750 358 750 435 q 724 216 750 283 q 649 97 697 149 q 540 15 601 44 q 407 -14 478 -14 m 92 356 q 134 185 92 263 q 248 60 176 107 q 406 14 319 14 q 564 61 492 14 q 679 188 636 108 q 722 360 722 267 q 679 531 722 453 q 565 657 636 610 q 407 704 493 704 q 250 656 322 704 q 135 529 178 608 q 92 356 92 450 m 488 693 l 488 721 q 555 729 524 721 q 600 753 586 738 q 616 786 611 765 q 622 838 621 807 l 653 838 q 649 794 651 813 q 640 763 646 776 q 622 735 635 750 q 590 713 611 722 q 542 698 569 703 q 488 693 515 693 m 486 921 q 417 934 446 921 q 365 960 389 947 q 313 974 342 974 q 268 959 283 974 q 247 928 253 944 q 242 907 242 911 l 214 907 q 217 924 214 910 q 231 956 221 939 q 260 987 240 974 q 315 1000 281 1000 q 377 987 351 1000 q 428 960 403 974 q 489 947 454 947 q 544 963 528 947 q 566 994 561 978 q 571 1014 571 1011 l 599 1014 q 595 994 599 1010 q 581 963 592 979 q 547 933 569 946 q 486 921 524 921 z "},"ő":{"ha":814,"x_min":64,"x_max":750,"o":"m 407 -14 q 274 15 336 -14 q 164 97 211 44 q 90 216 117 149 q 64 358 64 283 q 91 502 64 435 q 165 622 118 569 q 275 703 213 674 q 407 732 338 732 q 539 703 476 732 q 649 622 601 674 q 723 502 696 569 q 750 358 750 435 q 724 216 750 283 q 649 97 697 149 q 540 15 601 44 q 407 -14 478 -14 m 92 356 q 134 185 92 263 q 248 60 176 107 q 406 14 319 14 q 564 61 492 14 q 679 188 636 108 q 722 360 722 267 q 679 531 722 453 q 565 657 636 610 q 407 704 493 704 q 250 656 322 704 q 135 529 178 608 q 92 356 92 450 m 318 896 l 296 913 l 385 1014 l 432 1014 l 318 896 m 457 896 l 435 913 l 524 1014 l 571 1014 l 457 896 z "},"ȏ":{"ha":814,"x_min":64,"x_max":750,"o":"m 407 -14 q 274 15 336 -14 q 164 97 211 44 q 90 216 117 149 q 64 358 64 283 q 91 502 64 435 q 165 622 118 569 q 275 703 213 674 q 407 732 338 732 q 539 703 476 732 q 649 622 601 674 q 723 502 696 569 q 750 358 750 435 q 724 216 750 283 q 649 97 697 149 q 540 15 601 44 q 407 -14 478 -14 m 92 356 q 134 185 92 263 q 248 60 176 107 q 406 14 319 14 q 564 61 492 14 q 679 188 636 108 q 722 360 722 267 q 679 531 722 453 q 565 657 636 610 q 407 704 493 704 q 250 656 322 704 q 135 529 178 608 q 92 356 92 450 m 407 990 q 354 965 378 990 q 331 907 331 939 l 304 907 q 335 982 304 950 q 407 1014 367 1014 q 478 982 447 1014 q 510 907 510 950 l 485 907 q 458 966 481 942 q 407 990 435 990 z "},"ō":{"ha":814,"x_min":64,"x_max":750,"o":"m 407 -14 q 274 15 336 -14 q 164 97 211 44 q 90 216 117 149 q 64 358 64 283 q 91 502 64 435 q 165 622 118 569 q 275 703 213 674 q 407 732 338 732 q 539 703 476 732 q 649 622 601 674 q 723 502 696 569 q 750 358 750 435 q 724 216 750 283 q 649 97 697 149 q 540 15 601 44 q 407 -14 478 -14 m 92 356 q 134 185 92 263 q 248 60 176 107 q 406 14 319 14 q 564 61 492 14 q 679 188 636 108 q 722 360 722 267 q 679 531 722 453 q 565 657 636 610 q 407 704 493 704 q 250 656 322 704 q 135 529 178 608 q 92 356 92 450 m 213 953 l 213 981 l 601 981 l 601 953 l 213 953 z "},"ṓ":{"ha":814,"x_min":64,"x_max":750,"o":"m 407 -14 q 274 15 336 -14 q 164 97 211 44 q 90 216 117 149 q 64 358 64 283 q 91 502 64 435 q 165 622 118 569 q 275 703 213 674 q 407 732 338 732 q 539 703 476 732 q 649 622 601 674 q 723 502 696 569 q 750 358 750 435 q 724 216 750 283 q 649 97 697 149 q 540 15 601 44 q 407 -14 478 -14 m 92 356 q 134 185 92 263 q 248 60 176 107 q 406 14 319 14 q 564 61 492 14 q 679 188 636 108 q 722 360 722 267 q 679 531 722 453 q 565 657 636 610 q 407 704 493 704 q 250 656 322 704 q 135 529 178 608 q 92 356 92 450 m 213 953 l 213 981 l 601 981 l 601 953 l 213 953 m 415 1156 l 393 1172 l 482 1274 l 529 1274 l 415 1156 z "},"ṑ":{"ha":814,"x_min":64,"x_max":750,"o":"m 407 -14 q 274 15 336 -14 q 164 97 211 44 q 90 216 117 149 q 64 358 64 283 q 91 502 64 435 q 165 622 118 569 q 275 703 213 674 q 407 732 338 732 q 539 703 476 732 q 649 622 601 674 q 723 502 696 569 q 750 358 750 435 q 724 216 750 283 q 649 97 697 149 q 540 15 601 44 q 407 -14 478 -14 m 92 356 q 134 185 92 263 q 248 60 176 107 q 406 14 319 14 q 564 61 492 14 q 679 188 636 108 q 722 360 722 267 q 679 531 722 453 q 565 657 636 610 q 407 704 493 704 q 250 656 322 704 q 135 529 178 608 q 92 356 92 450 m 213 953 l 213 981 l 601 981 l 601 953 l 213 953 m 313 1274 l 358 1274 l 449 1172 l 426 1156 l 313 1274 z "},"ǫ":{"ha":814,"x_min":64,"x_max":750,"o":"m 407 -14 q 274 15 336 -14 q 164 97 211 44 q 90 216 117 149 q 64 358 64 283 q 91 502 64 435 q 165 622 118 569 q 275 703 213 674 q 407 732 338 732 q 539 703 476 732 q 649 622 601 674 q 723 502 696 569 q 750 358 750 435 q 724 216 750 283 q 649 97 697 149 q 540 15 601 44 q 407 -14 478 -14 m 92 356 q 134 185 92 263 q 248 60 176 107 q 406 14 319 14 q 564 61 492 14 q 679 188 636 108 q 722 360 722 267 q 679 531 722 453 q 565 657 636 610 q 407 704 493 704 q 250 656 322 704 q 135 529 178 608 q 92 356 92 450 m 349 -139 q 378 -64 349 -101 q 463 17 407 -26 l 469 17 l 483 0 q 403 -74 428 -43 q 378 -135 378 -106 q 400 -176 378 -161 q 478 -204 422 -192 l 461 -228 q 396 -208 421 -219 q 360 -178 371 -196 q 349 -139 349 -161 z "},"ø":{"ha":814,"x_min":64,"x_max":750,"o":"m 407 -14 q 274 15 336 -14 q 164 97 211 44 q 90 216 117 149 q 64 358 64 283 q 91 502 64 435 q 165 622 118 569 q 275 703 213 674 q 407 732 338 732 q 539 703 476 732 q 649 622 601 674 q 723 502 696 569 q 750 358 750 435 q 724 216 750 283 q 649 97 697 149 q 540 15 601 44 q 407 -14 478 -14 m 406 14 q 564 61 492 14 q 679 188 636 108 q 722 360 722 267 q 679 531 722 453 q 565 657 636 610 q 407 704 493 704 q 250 656 322 704 q 135 529 178 608 q 92 356 92 450 q 134 185 92 263 q 248 60 176 107 q 406 14 319 14 m 171 0 l 214 71 l 238 53 l 206 0 l 171 0 m 238 53 l 214 71 l 578 665 l 603 647 l 238 53 m 603 647 l 578 665 l 611 721 l 647 721 l 603 647 z "},"ǿ":{"ha":814,"x_min":64,"x_max":750,"o":"m 407 -14 q 274 15 336 -14 q 164 97 211 44 q 90 216 117 149 q 64 358 64 283 q 91 502 64 435 q 165 622 118 569 q 275 703 213 674 q 407 732 338 732 q 539 703 476 732 q 649 622 601 674 q 723 502 696 569 q 750 358 750 435 q 724 216 750 283 q 649 97 697 149 q 540 15 601 44 q 407 -14 478 -14 m 406 14 q 564 61 492 14 q 679 188 636 108 q 722 360 722 267 q 679 531 722 453 q 565 657 636 610 q 407 704 493 704 q 250 656 322 704 q 135 529 178 608 q 92 356 92 450 q 134 185 92 263 q 248 60 176 107 q 406 14 319 14 m 171 0 l 214 71 l 238 53 l 206 0 l 171 0 m 238 53 l 214 71 l 578 665 l 603 647 l 238 53 m 603 647 l 578 665 l 611 721 l 647 721 l 603 647 m 335 896 l 313 913 l 401 1014 l 449 1014 l 335 896 z "},"õ":{"ha":814,"x_min":64,"x_max":750,"o":"m 407 -14 q 274 15 336 -14 q 164 97 211 44 q 90 216 117 149 q 64 358 64 283 q 91 502 64 435 q 165 622 118 569 q 275 703 213 674 q 407 732 338 732 q 539 703 476 732 q 649 622 601 674 q 723 502 696 569 q 750 358 750 435 q 724 216 750 283 q 649 97 697 149 q 540 15 601 44 q 407 -14 478 -14 m 92 356 q 134 185 92 263 q 248 60 176 107 q 406 14 319 14 q 564 61 492 14 q 679 188 636 108 q 722 360 722 267 q 679 531 722 453 q 565 657 636 610 q 407 704 493 704 q 250 656 322 704 q 135 529 178 608 q 92 356 92 450 m 486 921 q 417 934 446 921 q 365 960 389 947 q 313 974 342 974 q 268 959 283 974 q 247 928 253 944 q 242 907 242 911 l 214 907 q 217 924 214 910 q 231 956 221 939 q 260 987 240 974 q 315 1000 281 1000 q 377 987 351 1000 q 428 960 403 974 q 489 947 454 947 q 544 963 528 947 q 566 994 561 978 q 571 1014 571 1011 l 599 1014 q 595 994 599 1010 q 581 963 592 979 q 547 933 569 946 q 486 921 524 921 z "},"ṍ":{"ha":814,"x_min":64,"x_max":750,"o":"m 407 -14 q 274 15 336 -14 q 164 97 211 44 q 90 216 117 149 q 64 358 64 283 q 91 502 64 435 q 165 622 118 569 q 275 703 213 674 q 407 732 338 732 q 539 703 476 732 q 649 622 601 674 q 723 502 696 569 q 750 358 750 435 q 724 216 750 283 q 649 97 697 149 q 540 15 601 44 q 407 -14 478 -14 m 92 356 q 134 185 92 263 q 248 60 176 107 q 406 14 319 14 q 564 61 492 14 q 679 188 636 108 q 722 360 722 267 q 679 531 722 453 q 565 657 636 610 q 407 704 493 704 q 250 656 322 704 q 135 529 178 608 q 92 356 92 450 m 486 921 q 417 934 446 921 q 365 960 389 947 q 313 974 342 974 q 268 959 283 974 q 247 928 253 944 q 242 907 242 911 l 214 907 q 217 924 214 910 q 231 956 221 939 q 260 987 240 974 q 315 1000 281 1000 q 377 987 351 1000 q 428 960 403 974 q 489 947 454 947 q 544 963 528 947 q 566 994 561 978 q 571 1014 571 1011 l 599 1014 q 595 994 599 1010 q 581 963 592 979 q 547 933 569 946 q 486 921 524 921 m 415 1189 l 393 1206 l 482 1307 l 529 1307 l 415 1189 z "},"ṏ":{"ha":814,"x_min":64,"x_max":750,"o":"m 407 -14 q 274 15 336 -14 q 164 97 211 44 q 90 216 117 149 q 64 358 64 283 q 91 502 64 435 q 165 622 118 569 q 275 703 213 674 q 407 732 338 732 q 539 703 476 732 q 649 622 601 674 q 723 502 696 569 q 750 358 750 435 q 724 216 750 283 q 649 97 697 149 q 540 15 601 44 q 407 -14 478 -14 m 92 356 q 134 185 92 263 q 248 60 176 107 q 406 14 319 14 q 564 61 492 14 q 679 188 636 108 q 722 360 722 267 q 679 531 722 453 q 565 657 636 610 q 407 704 493 704 q 250 656 322 704 q 135 529 178 608 q 92 356 92 450 m 486 921 q 417 934 446 921 q 365 960 389 947 q 313 974 342 974 q 268 959 283 974 q 247 928 253 944 q 242 907 242 911 l 214 907 q 217 924 214 910 q 231 956 221 939 q 260 987 240 974 q 315 1000 281 1000 q 377 987 351 1000 q 428 960 403 974 q 489 947 454 947 q 544 963 528 947 q 566 994 561 978 q 571 1014 571 1011 l 599 1014 q 595 994 599 1010 q 581 963 592 979 q 547 933 569 946 q 486 921 524 921 m 313 1200 l 313 1307 l 340 1307 l 340 1200 l 313 1200 m 474 1200 l 474 1307 l 501 1307 l 501 1200 l 474 1200 z "},"ȭ":{"ha":814,"x_min":64,"x_max":750,"o":"m 407 -14 q 274 15 336 -14 q 164 97 211 44 q 90 216 117 149 q 64 358 64 283 q 91 502 64 435 q 165 622 118 569 q 275 703 213 674 q 407 732 338 732 q 539 703 476 732 q 649 622 601 674 q 723 502 696 569 q 750 358 750 435 q 724 216 750 283 q 649 97 697 149 q 540 15 601 44 q 407 -14 478 -14 m 92 356 q 134 185 92 263 q 248 60 176 107 q 406 14 319 14 q 564 61 492 14 q 679 188 636 108 q 722 360 722 267 q 679 531 722 453 q 565 657 636 610 q 407 704 493 704 q 250 656 322 704 q 135 529 178 608 q 92 356 92 450 m 486 921 q 417 934 446 921 q 365 960 389 947 q 313 974 342 974 q 268 959 283 974 q 247 928 253 944 q 242 907 242 911 l 214 907 q 217 924 214 910 q 231 956 221 939 q 260 987 240 974 q 315 1000 281 1000 q 377 987 351 1000 q 428 960 403 974 q 489 947 454 947 q 544 963 528 947 q 566 994 561 978 q 571 1014 571 1011 l 599 1014 q 595 994 599 1010 q 581 963 592 979 q 547 933 569 946 q 486 921 524 921 m 213 1246 l 213 1274 l 601 1274 l 601 1246 l 213 1246 z "}}}
